<?xml version="1.0" encoding="utf-8"?>
<!-- Generator: Adobe Illustrator 17.1.0, SVG Export Plug-In . SVG Version: 6.00 Build 0)  -->
<!DOCTYPE svg PUBLIC "-//W3C//DTD SVG 1.1//EN" "http://www.w3.org/Graphics/SVG/1.1/DTD/svg11.dtd">
<svg version="1.1" id="Layer_1" xmlns="http://www.w3.org/2000/svg" xmlns:xlink="http://www.w3.org/1999/xlink" x="0px" y="0px"
	 viewBox="284.6 0 390.9 560" enable-background="new 284.6 0 390.9 560" xml:space="preserve">
<path fill="#FFFFFF" d="M305.1,111V0h349.1v108l18,24.6L661,161.2c0,0,6,3.6,9.8,18.4c3.8,14.8-1.6,30.6-4.4,26.8
	c-2.6-4-11.4-13-16.8-12c-5.4,0.8-12.6,5.4-9.6,21.2s23.6,63,26.8,69l8,34l-6.6,34.8c0,0,2,7.8,1,12s-2.6,7.2-3.8,8.2
	s-5.2-6.2-15.8-4.2c-7.4,1.4-10,6.6-12.8,9.2c-0.2,1.4-3.8,12.8-4.8,25.4c-1,13.8,0,51.8,0,51.8s-6.2,14.2-11.8,23.6
	c-5.6,9.2-16.2,25.2-16.2,25.2s-15,9.4-19.6,11.2s-19.6,10-19.6,10l-39.2,12.4C523,539,510.8,559,481.4,560
	c-29.2,1-46.4-19.6-46.4-19.6L388,526l-34.4-20c-1.6-1-12.6-18.4-14.6-22.6c-2-4.4-11.4-23.4-11.4-23.4s-0.8-21-0.8-25.4
	s0.4-26-0.2-35.4c-0.4-9.6-3.4-17-3.4-17l-0.6-1.2c-3-2.4-5.6-8-13-9.4c-10.6-2-14.8,5.2-15.8,4.2c-1.2-1-2.8-4-3.8-8.2s1-12,1-12
	l-6.4-35l8-34c3.2-6,23.8-53.2,26.8-69s-4.2-20.4-9.6-21.2s-14.2,8.2-16.8,12c-2.6,3.8-8.2-12-4.4-26.8c3.8-14.8,9.8-18.4,9.8-18.4
	l-11-28.4L305.1,111z"/>
<polygon fill="#007934" points="305.1,136.8 305.1,0 654.3,0 654.3,135 645.5,139 645.5,9 314.3,9 314.3,141.7 "/>
<path fill="#007934" d="M597,388.5c0,51.8-51.6,96.4-119.2,97c-66.8,0.6-117.2-43.2-118-97.8V60.6H597V388.5z"/>
<path fill="#FFFFFF" d="M561.4,390.5c0,28.2-27.6,46-57.8,53.6c-8.8,2.2-18,3.4-26.6,3.4c-39.6,0-82.8-19.8-83.2-59.6L393,99h168.5
	L561.4,390.5L561.4,390.5z"/>
<path fill="#231F20" d="M380.2,17.8c2,0,3.6,0.4,4.2,1c0.8,0.6,1,2,1,3.8V32c0,1.8-0.4,3.2-1,3.8c-0.8,0.6-2.2,1-4.2,1h-3v-5.4h1V23
	h-1v-5.2H380.2z M380.8,23v8.4h0.6c0.6,0,0.8,0,1-0.2s0.2-0.6,0.2-1.2v-5.4c0-0.6,0-1.2-0.2-1.2c-0.2-0.2-0.6-0.2-1-0.2h-0.6V23z
	 M366.6,36.8v-5.4h0.8l1.2-8.4h-0.8v-5.2h6.8v5h-0.8l1,8.4h0.8v5.4h-4.4v-5.4h0.8l-0.2-1.8h-2l-0.2,1.8h0.8v5.4h-3.8L366.6,36.8
	L366.6,36.8z M370,27.2h1.4l-0.6-6.4L370,27.2z M359.6,17.8c2,0,3.6,0.4,4.2,1c0.8,0.6,1,2,1,3.8V32c0,1.8-0.4,3.2-1,3.8
	c-0.8,0.6-2.2,1-4.2,1h-3v-5.4h1V23h-1v-5.2H359.6z M360.2,23v8.4h0.6c0.6,0,0.8,0,1-0.2C362,31,362,30.6,362,30v-5.4
	c0-0.6,0-1.2-0.2-1.2c-0.2-0.2-0.6-0.2-1-0.2h-0.6L360.2,23L360.2,23z M349.8,36.8v-5.4h1V23h-1v-5.2h4.6v5h-1v8.4h1v5.4h-4.6V36.8z
	 M343.2,39.2l-2.8-6.8l2.4-1L343,32c0.2,0.6,0.4,0.8,0.6,1c0.2,0,0.4,0,0.6,0c0.2-0.2,0.4-0.2,0.4-0.4s0-0.6-0.2-1
	c-0.4-0.8-1-1.4-2-1.4c-0.2,0-0.6,0-0.6-0.2c-1.2-0.2-2.2-0.6-2.6-1s-1-1.2-1.4-2.2l-1-2.2c-0.4-1-0.6-1.8-0.4-2.4s0.6-1.2,1.4-1.4
	c0.4-0.2,0.8-0.2,1.2-0.2s0.8,0.2,1.2,0.4l-0.2-1l2-0.8l2.6,6.2l-2.2,1l-0.2-0.6c-0.2-0.6-0.4-0.8-0.6-1s-0.4-0.2-0.6,0
	s-0.4,0.2-0.4,0.4c0,0.2,0,0.6,0.2,1s0.8,0.8,2.2,1l0,0c1.4,0.2,2.4,0.6,3,1s1,1.2,1.4,2.2l1.2,3c0.4,1,0.6,2,0.4,2.6
	s-0.8,1.2-1.6,1.6c-0.4,0.4-0.8,0.4-1,0.4c-0.4,0-0.6-0.2-1-0.4l0.4,0.8L343.2,39.2z M339.5,47.4l1.6-4.2l-5-2l-0.2,0.8l-2.8-1.2
	l0.2-0.4c0.2-0.4,0.4-0.6,0.6-0.6s0.8,0,1.2,0.2c0.4,0.2,1,0.4,1.8,0.8c0.8,0.4,1.4,0.6,2,0.8c1,0.4,1.8,0.6,2.4,0.4
	c0.6-0.2,1-0.6,1.2-1.2c0.4-0.8,0.2-1.4-0.4-2s-1.6-1.2-3.2-1.8c-0.4-0.2-0.8-0.4-1.2-0.4c-0.4-0.2-1-0.4-1.4-0.6l-0.4,1l0.4,0.2
	c0.6,0.2,0.8,0.4,1,0.4c0.2,0.2,0.2,0.2,0,0.4c0,0.2-0.2,0.2-0.2,0.2c-0.2,0-0.4,0-0.6-0.2l-1-0.4c-1-0.4-1.6-0.6-2-0.4
	c-0.4,0.2-0.8,0.4-1,1.2c0.2-0.8,0-1.4-0.2-1.8c-0.2-0.4-0.8-0.8-1.6-1.2l-2.6-1c-1.2-0.6-2.2-0.6-3-0.2c-0.8,0.4-1.4,1.4-2.2,3.2
	l-1.2,3l4.8,2l0.4-1l7.8,3.2l-0.2,0.8L339.5,47.4z M330.3,38c0.4,0.2,0.8,0.4,0.8,0.6c0,0.2,0,0.4-0.2,0.8V40l-2.8-1.2l0.2-0.4
	c0.2-0.4,0.4-0.6,0.6-0.8c0.2,0,0.4,0,1,0.2L330.3,38z M339.5,55.8h-5.4v-1h-8.4v1h-5.2V48h7.8v2.6h-2.8v1.6h3.4v-2.4h2.2v2.4h3
	v-1.6h-2.4V48h7.8V55.8z M339.3,64.4l-14,1.6v0.8h-5v-4.2h5v0.8l9.4-1l-9.4-1.2V62h-5v-3.8h5V59l14,1.8V64.4z M339.3,74h-5.4v-1
	h-8.4v1h-5v-4.6h5v1h8.4v-1h5.4V74z M339.1,86.2h-5.4v-1h-8.4v1h-5V82l13-2.6h-8V80h-5v-3.8h5v1h14V80l-14.8,3h9.4v-0.8h5.4v4H339.1
	z M334.9,89.6c1.6,0,2.6,0.2,3.4,0.8c0.6,0.6,1,1.4,1,2.6s-0.4,2-1,2.6s-1.8,0.8-3.4,0.8h-9.8v0.8h-5v-4h5v0.4h7c0.6,0,1,0,1.4-0.2
	c0.2-0.2,0.4-0.4,0.4-0.6c0-0.4-0.2-0.6-0.4-0.6c-0.2-0.2-0.6-0.2-1.2-0.2h-7v0.6h-5v-3.8h5v0.8L334.9,89.6L334.9,89.6z M617.8,82.8
	h5.4v0.8l8.4,1.2V84h5v6.8h-5V90l-8.4,1.2V92h-5.4v-4.4h5.4v0.8l1.8-0.2v-2l-1.8-0.2v0.8h-5.4V82.8z M636.9,80.2h-5.4v-1h-8.4v1h-5
	v-4.6h5v1h8.4v-1h5.4V80.2z M617.4,63.2h5.4v1h8.4v-1h5v4.2l-13,2.6h8v-0.8h5V73h-5v-1h-14v-2.8l14.8-3h-9.4V67h-5.4v-3.8H617.4z
	 M617.6,51.4h5.4v1h8.4v-1h5v3.2c0,1.8-0.2,3.2-0.8,3.8s-1.4,1-2.8,1H630c-0.8,0-1.4-0.2-1.8-0.4c-0.4-0.4-0.6-0.8-0.8-1.6
	c0,0.8-0.2,1.2-0.6,1.4c-0.4,0.2-1,0.4-2,0.4h-1.2c-0.2,0-0.4,0-0.6,0.2c-0.2,0-0.2,0.2-0.2,0.2c0,0.2,0,0.2,0.2,0.4
	c0.2,0,0.6,0,1,0h0.6v1c-0.6,0-1,0-1.6,0c-0.4,0-0.8,0-1.2,0c-1.6,0-3-0.2-3.6-0.6c-0.8-0.4-1-1-1-1.8c0-0.6,0.2-1.2,0.8-1.6
	c0.6-0.4,1.2-0.6,2.2-0.6c0.6,0,1.2,0,2.2,0c0.8,0,1.6,0,1.8,0c0.6,0,1,0,1.2-0.2s0.4-0.4,0.4-0.8v-0.6h-3V56h-5.4v-4.6H617.6z
	 M622.9,49.4c-1.6,0.2-2.8,0.2-3.6-0.2s-1.2-1.4-1.4-2.6s0-2.2,0.6-3c0.6-0.6,1.8-1.2,3.4-1.4l10-1.6c1.6-0.2,2.8-0.2,3.6,0.2
	s1.2,1.4,1.4,2.6s0,2.2-0.6,3c-0.6,0.6-1.8,1.2-3.4,1.4L622.9,49.4z M613.6,38.2l3.8,3l3.4-4.2l-1-0.8l1.8-2.2l1.8,1.6l1.4-1.6
	l-1.8-1.6l2.2-2.8l1.2,1l-1.8,2.2l2,1.6l5-6l-6-5l-3.2,4l0.8,0.6l-5.4,6.6L617,34L613.6,38.2z M608.8,36.8l1.2-5.4l1,0.2l1.8-8.2
	l-1-0.2l1.2-5l4.6,1l-1.2,5l-1-0.2l-1.8,8.2l1,0.2l-1.2,5.4L608.8,36.8z M600.2,36.6l0.2-5.4h1l0.2-8.4h-1l0.2-5l4.8,0.2l-0.2,5
	h-1.2l-0.2,8.4h1.6v-3.2h2.6L608,37L600.2,36.6z M590.4,36.6v-5.4h0.8l1.2-8.4h-0.8v-5.2h6.8v5h-0.8l1,8.4h0.8v5.4H595V31h0.8
	l-0.2-1.8h-2l-0.2,1.8h0.8v5.4h-3.8L590.4,36.6L590.4,36.6z M585,24.4c0-0.8,0-1.2-0.2-1.6c-0.2-0.2-0.4-0.4-0.6-0.4
	c-0.4,0-0.6,0.2-0.8,0.4s-0.2,0.8-0.2,1.6v5c0,0.8,0,1.2,0.2,1.6c0.2,0.2,0.4,0.4,0.8,0.4s0.6-0.2,0.6-0.4c0.2-0.2,0.2-0.8,0.2-1.6
	v-1.6h2.8v4.4c0,1.6-0.2,2.8-0.8,3.6s-1.6,1.2-2.8,1.2c-1.4,0-2.2-0.4-2.8-1c-0.6-0.8-0.8-2-0.8-3.6v-10c0-1.6,0.2-2.8,0.6-3.6
	c0.4-0.8,1-1,2-1c0.4,0,0.8,0,1,0.2c0.4,0.2,0.6,0.6,1,1v-1.4h2.6v8H585V24.4L585,24.4z M593.8,27h1.4l-0.6-6.4L593.8,27z
	 M625.1,46.2l4.8-0.8c0.8-0.2,1.2-0.2,1.6-0.4c0.2-0.2,0.4-0.4,0.2-0.8c0-0.4-0.2-0.6-0.6-0.8c-0.4-0.2-0.8-0.2-1.6,0l-4.8,0.8
	c-0.8,0.2-1.2,0.2-1.4,0.4s-0.4,0.4-0.4,0.8c0,0.4,0.2,0.6,0.6,0.6C623.9,46.4,624.3,46.4,625.1,46.2 M629.7,56.8h0.8
	c0.4,0,0.8,0,1-0.2s0.2-0.4,0.2-0.8v-0.6h-3v0.6c0,0.4,0,0.8,0.2,0.8C628.9,56.6,629.1,56.8,629.7,56.8 M627.5,86.2v1.4l6.4-0.6
	L627.5,86.2z M556.6,37v-5.4h0.8l1.2-8.4h-0.8v-5.4h6.8v5h-0.8l1,8.4h0.8v5.4h-4.4v-5.4h0.8l-0.2-1.8h-2l-0.2,1.8h0.8v5.4h-3.8
	L556.6,37L556.6,37z M555,32.6c0,1.8-0.2,3-0.8,3.6s-1.4,1-2.6,1s-2.2-0.4-2.6-1c-0.6-0.6-0.8-1.8-0.8-3.6v-4.4h2.8v2.2
	c0,0.6,0,1,0.2,1.2c0,0.2,0.2,0.2,0.4,0.2s0.4-0.2,0.6-0.4c0.2-0.2,0.2-0.6,0.2-1.2V23h-1v-5.2h4.6v5h-1L555,32.6L555,32.6z M538,37
	v-5.4h0.8l1.2-8.4h-0.8V18h6.8v5h-0.8l1,8.4h0.8v5.4h-4.4v-5.4h0.8l-0.2-1.8h-2l-0.2,1.8h0.8v5.4H538V37z M529.2,36.8v-5.4h1v-8.6
	h-1v-5h3.2c1.8,0,3.2,0.2,3.8,0.8c0.6,0.6,1,1.4,1,2.8v3.2c0,0.8-0.2,1.2-0.4,1.6s-0.8,0.6-1.4,0.8c0.6,0.2,1,0.4,1.4,0.8
	s0.4,0.8,0.4,1.4V33c0,1.4-0.4,2.2-1,3c-0.8,0.6-1.8,1-3.4,1h-3.6V36.8z M507.2,37v-5.4h1v-8.4h-1V18h7.8v7.8h-2.6V23h-1.6v3.4h2.4
	v2.2h-2.4v3h1.6v-2.4h2.6V37H507.2z M499.4,18c2,0,3.6,0.4,4.2,1c0.8,0.6,1,2,1,3.8v9.4c0,1.8-0.4,3.2-1,3.8c-0.8,0.6-2.2,1-4.2,1
	h-3v-5.4h1v-8.4h-1V18H499.4z M500,23v8.4h0.6c0.6,0,0.8,0,1-0.2s0.2-0.6,0.2-1.2v-5.4c0-0.6,0-1.2-0.2-1.2c-0.2-0.2-0.6-0.2-1-0.2
	H500V23z M473.4,37v-5.4h0.8l1.2-8.4h-0.8V18h6.8v5h-0.8l1,8.4h0.8v5.4H478v-5.4h0.8l-0.2-1.8h-2l-0.2,1.8h0.8v5.4h-3.8L473.4,37
	L473.4,37z M459.6,37v-5.4h1v-8.4h-1V18h5l1,10.6l1.2-10.6h5v5h-1v8.4h1v5.4h-4.4v-5.4h0.8V20.8L466,37h-1.2l-2.2-16.2v10.6h0.8v5.4
	h-3.8L459.6,37L459.6,37z M457.6,32.4c0,1.6-0.2,2.8-0.8,3.6s-1.4,1-2.8,1s-2.2-0.4-2.8-1c-0.6-0.8-0.8-2-0.8-3.6v-10
	c0-1.6,0.2-2.8,0.8-3.6c0.4-0.8,1.4-1.2,2.6-1.2c1.4,0,2.2,0.4,2.8,1c0.6,0.8,0.8,2,0.8,3.6v10.2H457.6z M438.4,36.8v-5.4h1V23h-1
	v-5.2h4.2l2.6,13v-8h-0.6v-5h3.8v5h-1v14h-2.8L441.4,22v9.4h0.8v5.4H438.4z M436.2,32.4c0,1.6-0.2,2.8-0.8,3.6s-1.4,1-2.8,1
	s-2.2-0.4-2.8-1c-0.6-0.8-0.8-2-0.8-3.6v-10c0-1.6,0.2-2.8,0.8-3.6c0.4-0.8,1.4-1.2,2.8-1.2s2.2,0.4,2.8,1c0.6,0.8,0.8,2,0.8,3.6
	V32.4z M420,36.8v-5.4h1V23h-1.2v3.2H418v-8.4h8.6v8.4h-1.8V23h-1.2v8.4h1v5.4H420z M416.2,32.6c0,1.6-0.2,2.6-0.8,3.4
	c-0.6,0.6-1.4,1-2.6,1s-2-0.4-2.6-1s-0.8-1.8-0.8-3.4v-9.8h-0.8v-5h4v5h-0.4V30c0,0.6,0,1,0.2,1.4c0.2,0.2,0.4,0.4,0.6,0.4
	c0.4,0,0.6-0.2,0.6-0.4c0.2-0.2,0.2-0.6,0.2-1.2v-7h-0.6v-5.4h3.8v5h-0.8L416.2,32.6L416.2,32.6z M399.2,36.8v-5.4h0.8l1.2-8.4h-0.8
	v-5.2h6.8v5h-0.8l1,8.4h0.8v5.4h-4.4v-5.4h0.8l-0.2-1.8h-2l-0.2,1.8h0.8v5.4h-3.8L399.2,36.8L399.2,36.8z M402.8,27.2h1.4l-0.6-6.4
	L402.8,27.2z M433.6,29.6v-5c0-0.8,0-1.2-0.2-1.6c-0.2-0.2-0.4-0.4-0.8-0.4s-0.6,0.2-0.8,0.4c-0.2,0.2-0.2,0.8-0.2,1.6v5
	c0,0.8,0,1.2,0.2,1.6c0.2,0.2,0.4,0.4,0.8,0.4s0.6-0.2,0.8-0.4C433.4,30.8,433.6,30.4,433.6,29.6 M454.8,29.6v-5
	c0-0.8,0-1.2-0.2-1.6c-0.2-0.2-0.4-0.4-0.8-0.4s-0.6,0.2-0.8,0.4c-0.2,0.2-0.2,0.8-0.2,1.6v5c0,0.8,0,1.2,0.2,1.6
	c0.2,0.2,0.4,0.4,0.8,0.4s0.6-0.2,0.8-0.4C454.8,30.8,454.8,30.4,454.8,29.6 M476.8,27.4h1.4l-0.6-6.4L476.8,27.4z M534.4,24.8V24
	c0-0.4,0-0.8-0.2-1s-0.4-0.2-0.8-0.2h-0.6V26h0.6c0.4,0,0.8,0,0.8-0.2S534.4,25.4,534.4,24.8 M534.4,30.2v-0.8c0-0.4,0-0.8-0.2-1
	s-0.4-0.2-0.8-0.2h-0.6v3h0.6c0.4,0,0.8,0,0.8-0.2C534.2,31,534.4,30.8,534.4,30.2 M541.4,27.4h1.4l-0.6-6.4L541.4,27.4z M560,27.2
	h1.4l-0.6-6.4L560,27.2z M433.4,16.6h-1.2l1-3h2.4L433.4,16.6z"/>
<polygon fill="#231F20" points="556.8,392.1 556.8,394.7 556.4,397.3 555.8,399.9 555,402.5 554.2,404.9 553,407.5 551.6,409.9 
	550.2,412.1 548.4,414.3 546.6,416.5 544.6,418.7 542.4,420.8 540.2,422.8 537.6,424.6 535.2,426.4 532.4,428.2 529.6,429.8 
	526.6,431.4 523.6,433 520.4,434.2 517.2,435.6 513.8,436.8 510.4,437.8 506.8,438.8 503.2,439.8 499.6,440.6 495.8,441.2 
	492,441.8 488.2,442.2 484.2,442.6 480.4,442.8 476.4,443 472.2,442.8 468.2,442.8 464.2,442.4 460.2,442 456.4,441.4 452.8,440.6 
	449,439.6 445.6,438.8 442,437.6 438.8,436.4 435.4,435 432.4,433.6 429.2,432 426.4,430.4 423.6,428.8 421,426.8 418.4,425 
	416,423 413.8,421 411.6,418.7 409.6,416.5 407.8,414.3 406,411.9 404.6,409.5 403.2,407.1 402,404.7 401,402.1 400.2,399.5 
	399.4,396.9 399,394.3 398.6,391.7 398.6,389.1 398.6,105.4 413.6,105.4 414,110 414.2,113.2 414.6,116.2 415.2,119.2 415.8,122.2 
	416.6,125.2 417.4,128.2 418.4,131 419.6,134 420.8,136.8 422,139.4 423.4,142.3 425,144.9 426.8,147.3 428.6,149.7 430.4,152.1 
	432.4,154.5 434.6,156.7 436.8,158.7 439.2,160.7 441.8,162.5 444.4,164.3 447.2,165.9 450,167.5 453,168.7 456.2,170.1 
	459.4,171.1 462.8,172.1 466.4,172.9 470,173.5 473.8,174.1 477.6,174.3 481.4,174.1 485,173.7 488.6,173.3 492,172.5 495.4,171.5 
	498.8,170.5 501.8,169.3 505,167.9 507.8,166.3 510.8,164.7 513.4,162.9 516,160.9 518.6,158.9 521,156.7 523.2,154.5 525.4,152.1 
	527.4,149.7 529.4,147.3 531.2,144.7 533,141.9 534.6,139.2 536,136.4 537.4,133.6 538.6,130.6 539.6,127.8 540.6,124.8 
	541.4,121.8 542,118.8 542.6,115.8 543,113 543.4,110 543.6,105.4 557,105.4 "/>
<path fill="#FFA400" d="M555.2,391.9c0,27.4-36.8,48.8-78.8,49.2c-43.6,0.4-76-25-76-52l0.2-282.1h11.6c1.4,33.6,22,66.4,65.4,69
	c42-1,66.4-36.6,67.6-69h10V391.9z"/>
<polygon fill="#231F20" points="535.4,105.4 536.6,105.8 537,106.6 537.2,107.4 537.2,108 537.2,108.4 537.2,109 537.2,109.2 
	537.2,109.6 537.2,112.6 536.8,115.4 536.6,118.4 536,121.2 535.4,124.2 534.6,127 533.6,129.6 532.6,132.4 531.4,134.8 530,137.4 
	528.6,139.8 527,142.3 525.4,144.7 523.6,146.9 521.8,149.1 519.8,151.1 517.8,152.9 515.6,154.9 513.4,156.5 511,158.3 
	508.6,159.7 506.2,161.1 503.6,162.5 501,163.7 498.4,164.7 495.6,165.7 492.8,166.5 490,167.1 487.2,167.5 484.2,167.9 
	481.2,168.1 478.2,168.3 475.2,168.1 472.2,167.9 469.4,167.5 466.4,167.1 463.6,166.5 460.8,165.7 458,164.7 455.4,163.7 
	452.8,162.5 450.4,161.1 447.8,159.7 445.4,158.3 443.2,156.5 441,154.9 438.8,152.9 436.8,151.1 434.8,149.1 433,146.9 
	431.2,144.7 429.6,142.3 428.2,139.8 426.8,137.4 425.4,134.8 424.2,132.2 423.2,129.6 422.2,127 421.4,124.2 420.8,121.2 
	420.4,118.4 420,115.4 419.8,112.6 419.6,109.6 419.6,105.4 "/>
<path fill="#FFFFFF" d="M535.2,107c0.6,0,0.4,1.8,0.4,2.4c0,31.4-26,57-57.4,57s-56.8-25.6-56.8-57V107H535.2z"/>
<polygon fill="#231F20" points="408,206.1 437.6,160.9 441.4,163.9 412.4,209.9 "/>
<polygon fill="#FFFFFF" points="409,205.9 437.8,162.1 440.2,164.1 412.2,208.7 "/>
<polygon fill="#231F20" points="400,161.3 422.4,143.1 425.6,147.9 400,168.9 "/>
<polygon fill="#FFFFFF" points="400.8,161.7 422.2,144.3 424.4,147.7 400.8,167.1 "/>
<polygon fill="#231F20" points="555.6,162.3 533.4,144.3 529.8,148.9 555.6,169.7 "/>
<polygon fill="#FFFFFF" points="554.8,162.7 533.6,145.5 531,148.7 554.8,168.1 "/>
<polygon fill="#231F20" points="399.8,125.8 414.4,121.6 415.6,126.4 399.8,131.2 "/>
<polygon fill="#FFFFFF" points="400.6,126.4 413.8,122.8 414.6,126 400.8,130 "/>
<polygon fill="#231F20" points="431.8,244.3 454.8,171.1 459.2,172.7 437.4,246.5 "/>
<polygon fill="#FFFFFF" points="432.8,243.7 455.4,172.3 458.2,173.3 436.8,245.3 "/>
<polygon fill="#231F20" points="547,204.9 518.2,160.9 514.4,163.9 542.6,208.5 "/>
<polygon fill="#FFFFFF" points="545.8,204.9 518,162.1 515.6,164.1 542.8,207.3 "/>
<polygon fill="#231F20" points="524,244.3 501,171.1 495.8,173.1 518.8,246.3 "/>
<polygon fill="#FFFFFF" points="523,243.7 500.4,172.3 496.8,173.5 519.4,245.1 "/>
<polygon fill="#231F20" points="555.6,126.8 542.8,122.6 541.4,127 555.6,132 "/>
<polygon fill="#FFFFFF" points="554.8,127.6 543.2,123.8 542.4,126.6 554.6,130.8 "/>
<path fill="#231F20" d="M474.8,114.2c8,0,15.2,4.2,19.4,10.4c-4.2-5.8-11-9.6-18.8-9.6c-12.6,0-23,10-23,22.4
	c-0.2,12.6,10.2,22.6,23,22.6c7.8,0,14.6-3.8,18.8-9.6c-4.2,6.4-11.4,10.4-19.4,10.4c-12.8,0-23.4-10.4-23.4-23.4
	C451.4,124.8,462,114.2,474.8,114.2"/>
<path fill="#231F20" d="M463.8,116.8c-1.8,0.6-3.6,0-5.8,0c-1.6,0-3.4,1.2-4.8,2c-2.2,0.8-4.2,0.2-6.4,0c-2-0.2-3.8-0.2-5.6,0.6
	c-2,1-4.8,1.6-7.2,2c2,0.8,4.8,0.2,7,1.2c3,0.6,5-1,7.6,0c1.6,0.8,2,2,0,2.2c-1.4,0-2.8,0.2-4,0.8c-1.6,0.4-3,0.2-5,0
	c-1.8-0.2-4,1-6.2,1.6c0.8,0.8,3,0.6,5.2,0.2c2,0,3.8,1.8,5.6,1.8c1.2,0,1.8,0.2,2.8,0c1.4,0.6,0.8,2-0.6,2c-2.2,0-2.8-0.6-4.2-0.6
	c-2,0-3.2,0.8-5,1.2c-1.8,1-4,0.4-5.4-0.4c0.6,1.6,2.6,2.2,4.4,2.2c1.6-0.4,3.2-0.4,4.8-0.2c1.6,1,3.8,1.8,5.6,2.2
	c-1.2,0.6-2.2,0.6-3.2,0.4c-2.8-0.4-5,0.8-7.2,1.4c1.6,0.4,3.6,0.2,5.4,0.6c1.4,0.4,2.4,1.2,4,1.6c0.8,0.6,0.6,1,0,1
	c-2.2-0.2-4.4,0-6.4,0.6c2,0.4,3.8,0.8,5.4,2c0.8,1.8,1.8,3.4,3.6,4.4c1,1,4.2,6,8.2,8.6c4.4,3,8.6,4.2,12.8,4.4
	c-10.2-2.4-18-11.6-18-22.8C451.4,128.6,456.4,120.8,463.8,116.8C463.8,117,463.8,117,463.8,116.8"/>
<path fill="#060E9F" d="M481.8,158.9c11.8,0,21.4-9.6,21.4-21.4c0-11.8-9.6-21.4-21.4-21.4s-21.4,9.6-21.4,21.4
	S470,158.9,481.8,158.9"/>
<polygon fill="#FFFFFF" points="481.8,129.8 483.8,132.8 487.2,132 486.6,135.6 489.6,137.4 486.6,139.4 487.2,143.1 483.8,142.3 
	481.8,145.3 479.8,142.3 476.4,143.1 477.2,139.4 474.2,137.4 477.2,135.6 476.4,132 479.8,132.8 "/>
<path fill="#FFA400" d="M610.6,392.9c0,62.6-60.2,107.8-132.4,107.8s-129.4-47.2-131.8-107.4V44.8h264.3L610.6,392.9L610.6,392.9z
	 M606.4,390.7V49.2H350.8v341.9c2.4,59,57.8,105.4,127.6,105.4S606.4,452.2,606.4,390.7"/>
<path fill="#231F20" d="M604,389.5c0,60.8-57.2,104.4-125.6,104.4s-122.8-45.8-125.2-104V52.2H604V389.5z M601.2,387.5V55h-246
	v332.7c2.2,57.2,56.6,104,123,104S601.4,447.2,601.2,387.5"/>
<path fill="#FFFFFF" d="M511.4,425.4l0.6,0.2v-7.8l0.6-0.6l0.2-4.4l0.6-1l0.2,2.2l0.6,1l1.6-0.2c0,1.2,0,2,0,2.8
	c0,4.6-0.2,13.2-0.8,13.2s-9,0.4-12,0.6s-14.4,0.4-16.6,0.6s-5,0-6.4,1.6s-1.8,1.4-3.6,1.2c-1.8,0-2.4,0.2-3.8-1.4s-5-1.6-7-1.6
	c-2-0.2-7.6-0.6-11.6-0.8c-4.2-0.2-9.6-1-12.4-1s-3.8,0-4.6-1.2s-0.2-1.8-0.4-6.2c0-2-0.2-9.4-0.4-17.4l0.4-2.4l0.2-13.4
	c0,0,0-0.8,0.4-1.2c0.4-0.4,1-0.6,1-0.6l0.2-4.8c0,0-0.4-6-0.4-6.4s0.8-0.6,1,0.4s0,3.2,0,3.2l1-0.4c0,0,0.2-2.8,0-4s-0.6-2.8,0-3.6
	c0.4-0.6,1-0.8,1.2-0.8l0,0l0.2,28.2l-0.8,0.2l-0.8,0.2v5.8c0,0.6-0.4,0.8-0.8,1c-0.2,0.4-0.8,0.4-0.8,0.4v16.4l0.6,1
	c0,0,0-1,0.2-1.4s0.6-0.6,0.8-0.4c0.2,0.4,0.6,0.6,0.6,0.6l1.2-0.6c0.4,0.4,1.2,1.2,2.8,0.6c2.2-0.8,7.2-2.4,11-2.4
	c4,0,9,1.4,11.2,3s4.6,3,6.6,4.6c2,1.8,3,1.8,4.4,0.8s5.6-4.2,10.2-5.6c4.4-1.6,7.4-2,10.8-1.6C502.4,422.6,510,424.8,511.4,425.4"
	/>
<path fill="none" stroke="#231F20" stroke-width="0.216" stroke-miterlimit="2.613" d="M511.4,425.4l0.6,0.2v-7.8l0.6-0.6l0.2-4.4
	l0.6-1l0.2,2.2l0.6,1l1.6-0.2c0,1.2,0,2,0,2.8c0,4.6-0.2,13.2-0.8,13.2s-9,0.4-12,0.6s-14.4,0.4-16.6,0.6s-5,0-6.4,1.6
	s-1.8,1.4-3.6,1.2c-1.8,0-2.4,0.2-3.8-1.4s-5-1.6-7-1.6c-2-0.2-7.6-0.6-11.6-0.8c-4.2-0.2-9.6-1-12.4-1s-3.8,0-4.6-1.2
	s-0.2-1.8-0.4-6.2c0-2-0.2-9.4-0.4-17.4l0.4-2.4l0.2-13.4c0,0,0-0.8,0.4-1.2c0.4-0.4,1-0.6,1-0.6l0.2-4.8c0,0-0.4-6-0.4-6.4
	s0.8-0.6,1,0.4s0,3.2,0,3.2l1-0.4c0,0,0.2-2.8,0-4s-0.6-2.8,0-3.6c0.4-0.6,1-0.8,1.2-0.8l0,0l0.2,28.2l-0.8,0.2l-0.8,0.2v5.8
	c0,0.6-0.4,0.8-0.8,1c-0.2,0.4-0.8,0.4-0.8,0.4v16.4l0.6,1c0,0,0-1,0.2-1.4s0.6-0.6,0.8-0.4c0.2,0.4,0.6,0.6,0.6,0.6l1.2-0.6
	c0.4,0.4,1.2,1.2,2.8,0.6c2.2-0.8,7.2-2.4,11-2.4c4,0,9,1.4,11.2,3s4.6,3,6.6,4.6c2,1.8,3,1.8,4.4,0.8s5.6-4.2,10.2-5.6
	c4.4-1.6,7.4-2,10.8-1.6C502.4,422.6,510,424.8,511.4,425.4z"/>
<path fill="#FFFFFF" d="M511.4,425.4c-1.6-0.8-10.4-5.4-16.2-4.6c-6.8,0.8-9.4,2.2-13.2,4.2c-3.8,2-5,3.4-5,3.4s-6.4-5.2-11.4-6.8
	c-5-1.6-10-2-14-1S446,422,446,422s-2.4,1.2-2.4-0.8c-0.2-1.8-0.6-33.6-0.6-33.6V369c1-0.4,2.2-0.8,3.6-1.4c2.2-0.8,5.6-1,13.2-0.2
	c7.6,1,12.2,2.6,17.4,4.2c3.8-0.6,7.8-1.4,13.4-2.8c6.8-1.8,11.4-1.8,16.6,0.6c1.8,0.8,3.4,2.2,4.8,3.6l-0.2,26v18.6L511.4,425.4z"
	/>
<path fill="none" stroke="#231F20" stroke-width="0.216" stroke-miterlimit="2.613" d="M511.4,425.4c-1.6-0.8-10.4-5.4-16.2-4.6
	c-6.8,0.8-9.4,2.2-13.2,4.2c-3.8,2-5,3.4-5,3.4s-6.4-5.2-11.4-6.8c-5-1.6-10-2-14-1S446,422,446,422s-2.4,1.2-2.4-0.8
	c-0.2-1.8-0.6-33.6-0.6-33.6V369c1-0.4,2.2-0.8,3.6-1.4c2.2-0.8,5.6-1,13.2-0.2c7.6,1,12.2,2.6,17.4,4.2c3.8-0.6,7.8-1.4,13.4-2.8
	c6.8-1.8,11.4-1.8,16.6,0.6c1.8,0.8,3.4,2.2,4.8,3.6l-0.2,26v18.6L511.4,425.4z"/>
<path fill="#231F20" d="M511.4,425.4c-1.6-0.8-10.4-5.4-16.2-4.6c-6.8,0.8-9.4,2.2-13.2,4.2c-3.8,2-5,3.4-5,3.4s-6.4-5.2-11.4-6.8
	c-5-1.6-10-2-14-1S446,422,446,422s-2.4,1.2-2.4-0.8c-0.2-1.8-0.6-33.6-0.6-33.6V369c1-0.4,2.2-0.8,3.6-1.4c2.2-0.8,5.6-1,13.2-0.2
	c7.6,1,12.2,2.6,17.4,4.2c3.8-0.6,7.8-1.4,13.4-2.8c6.8-1.8,11.4-1.8,16.6,0.6c1.8,0.8,3.4,2.2,4.8,3.6l-0.2,26v18.6L511.4,425.4z
	 M511.4,425.4c-1.4-0.6-9-2.6-12.4-3s-6.4,0-10.8,1.6s-8.6,4.6-10.2,5.6c-1.4,1-2.4,0.8-4.4-0.8c-2-1.8-4.4-3.2-6.6-4.6
	c-2.2-1.6-7.2-3-11.2-3s-9,1.6-11,2.4c-1.6,0.6-2.6-0.2-2.8-0.6l-1.2,0.6c0,0-0.2-0.2-0.6-0.6c-0.2-0.4-0.6-0.2-0.8,0.4
	c-0.2,0.4-0.2,1.4-0.2,1.4l-0.6-1v-16.4c0,0,0.6,0,0.8-0.4c0.2-0.4,0.8-0.4,0.8-1v-5.8l0.8-0.2l0.8-0.2l-0.2-28.2l0,0
	c-0.2,0-0.8,0.2-1.2,0.8c-0.6,0.8-0.2,2.2,0,3.6c0.2,1.2,0,4,0,4l-1,0.4c0,0,0-2.4,0-3.2c-0.2-1-1-0.8-1-0.4s0.4,6.4,0.4,6.4
	l-0.2,4.8c0,0-0.4,0-1,0.6c-0.4,0.4-0.4,1.2-0.4,1.2l-0.2,13.4l-0.4,2.4c0.2,8,0.4,15.4,0.4,17.4c0.2,4.4-0.4,5,0.4,6.2
	s1.6,1.2,4.4,1.2s8.2,1,12.4,1c4.2,0.2,9.6,0.6,11.6,0.8c2,0.2,5.6,0.2,7,1.6c1.4,1.6,2,1.4,3.8,1.4s2.2,0.2,3.6-1.2
	c1.4-1.6,4.2-1.4,6.4-1.6c2.2-0.2,13.4-0.4,16.6-0.6c3-0.2,11.4-0.6,12-0.6s0.8-8.6,0.8-13.2c0-0.6,0-1.6,0-2.8l-1.6,0.2l-0.6-1
	l-0.2-2.2l-0.6,1l-0.2,4.4l-0.6,0.6v7.8L511.4,425.4z M459.6,366.1c-8-1-11.6-0.8-13.8,0c-2.2,0.8-3.8,1.8-4.8,2.6s-5.2,4.8-5.2,5.8
	c-0.2,1-0.4,6-0.4,8.4c0,2.2,0.6,36.2,0.8,40.8c0.2,4.6-0.4,5.2,0.4,6.4c0.8,1.2,1.8,1.2,4.6,1.2c2.8,0,8.4,1,12.6,1.2
	s9.8,0.8,12,0.8c2.2,0.2,5.2,0.2,6.6,1.8c1.4,1.4,2.4,1.4,4.4,1.4c1.4,0,2.8,0.2,4.2-1.2c1.4-1.6,3.8-1.4,6-1.6s13.8-0.4,17-0.6
	s11.8-0.6,12.4-0.6s0.8-9,0.8-13.8s-0.2-23.8-0.2-29.6v-13c0,0-3.8-7-9.2-8.6c-5.4-1.4-9.4-1.8-17-0.2c-7.6,1.6-13.6,2.8-13.6,2.8
	S467.6,367.1,459.6,366.1 M500.6,429.6l2-0.2c0,0,2.8,0.2,4.8,0.2c1.8,0,3.6,0.2,3.6,0.2l1,0.8l-1.2,0.2c0,0-2.6-0.2-4.4-0.2
	s-4.8-0.2-4.8-0.2L500.6,429.6z M497.8,427l1.2,0.6c0,0,2.4,0,4.6,0.2c2.4,0.2,3.6,0.4,4.6,0.6s1.6,0.2,1.6,0.2l0.2-0.6
	c0,0-3.2-1-4.8-1c-1.6-0.2-2.6-0.2-4.2-0.2C499.8,426.6,497.8,427,497.8,427 M493.6,424.6l1.2,0.2c0,0,1.2-0.2,4,0s3.8,0.4,7.2,1.2
	c3.4,0.8,4.8,0.6,4.8,0.6l-0.2-0.8c-0.8-0.2-2-0.4-4.4-0.8c-2.2-0.4-2.4-0.6-5.8-1C497,423.6,493.6,424.6,493.6,424.6 M468.6,426
	c0,0-3.8-2.4-6.2-3s-7.4-0.6-8-0.4l1.2,0.8c0,0,2.4,0,3.6,0.2s2.8,0.6,3.4,0.8c0.8,0.4,1.6,1,0.4,0.8s-3.4-0.6-4-0.6s-2,0.2-2.4,0.2
	l0.4,0.8c0.2,0.2,2.2,0.2,2.4,0.2c0.2,0,0.4,0.8,0,0.6c-0.6,0-1.4,0-1.6,0.2l0.6,1c0.6,0,2.2,0.2,2.8,0.2c0.8,0,1.8,0.8,0.8,1
	c-1,0-1.6,0.2-2,0.4l0.6,1c0.8,0,2,0,3,0c0.8,0,2,0.2,2,0.2l1.8-3.6c0,0,0.8,0,1.2,0C468.8,426.8,468.6,426,468.6,426"/>
<path fill="#231F20" d="M412.2,139.2l-1.4-0.2c-1.6-0.6-3.4,1.8-3.8,3.4c0.4,2,0.2,2.4,0.6,4c0.4,1.2,0.4,3,0.6,3.4l0.2,1.2l0.6,2.8
	l1,1.4c0,0,1.6,1.6,1.6,2v1.4l1.2,1.8l0.2,1l2,2.6l4.2,1.8l5.2,13l2.8,7.2l6,15.2l4,4l4,7.2c0,0,0.4,0.8,0,1.8l4.6,5l1.2,2.2
	c0.6,1.2,1.2,4.8,2.6,8.8s4.8,10.2,4.8,10.2s0.2,9,0.2,11s2.6,8.8,2.6,10c0.2,1.2,1.4,4.4,1.4,8.4S458,285,458,285
	s-2.4,17.2-1.4,25.4c1,8.2,4.6,28.6,4.6,29.8c0,1.2-0.2,2.6-0.2,4s0.6,4.4,0.6,4.4S460,354,460,360c-0.2,6,1.6,11.8,2.4,13.8
	c0.6,2,6.4,20.8,6.4,22s-0.6,3.6-0.6,4.8c0.2,1.2,0.6,2.8,0.2,5.2c-0.4,2.4-2.2,7.4-2.2,10.4s1.2,3.6,1.6,4.4s1.6,1.6,1.6,1.6
	l2.6,1.6c0,0,2,2.2,5,2.2c3.2,0,7.4-5.4,7.4-5.4l2.4-6.2c0.2-0.8-0.6-6.8-1.4-9.2c-0.6-2.4-0.6-4.8-0.2-6c0.6-1.4,0.8-2.4,0-4.4
	s-1.2-2.6-1.2-2.6s3.6-16.6,5.6-25.4c1.8-8.8,0.2-14.8,0.2-14.8l-1.2-5.6c0,0,0.2-2.6,0.6-3.6s0.4-6,0.4-6s4-11.8,5.8-21.2
	c2.8-9.2,1.4-24.2,1-26.2c0.4-4.2-1-11.6-1.4-17.2c-0.2-4.4,0.4-7.6,1.4-10.2c0.6-2.8,1.8-4.8,3.2-8.8c0.8-2-0.2-11.8-0.2-11.8
	l1.4-5.8l7.4-15.2l1.6-2.2l4.4-5.8l8-9.8l2.4-5.4l3.6-9.4c1.6-4,3.4-7.8,5-11.8c1.2-2.6,2.2-5.4,2.6-6c0.6-1.2,6.2-4,6.2-4l1.4-2
	l1.2-1.6l1.4-2.2l0.6-0.8l1-1.2l1.4-2.4l1-2.4c0.4-0.8,1.6-3.6,1.6-5.2c0-1.4-0.8-3-1-3.8c-0.4-0.8-0.4-1.2-0.4-1.8s-1.4-1-2-1.4
	c-0.8-0.2-1.8,0-1.8,0l-1.2,0.8l-0.4,0.6l0,0l-4,4.2c-0.8,0.8-0.4-1-1.8-1.2s-2.2,1.2-2.2,1.2l-1,1l-0.6,1l-2,1.8l-0.4,2
	c0,0-0.4,1.6-1.2,2.4c-0.6,0.8-2,3.2-2,3.2l0.4,7.2l-3.6,5.2l-3.4,4.6l-1.6,1.8l-6.6,8.2l-5.8,8.6l-1.4,1.6c0,0.4-0.4,1-1.4,1.6
	l-1,0.6l-1.6,1.4l-2.4,2.6l-4.2,5.8l-3.4,2.2l-5.2,5.2l-2.4-7l2-3l3.2-13.8l0.2-5.8c0,0-2.2-4.2-3-5s-6.8-1.8-8-2s-5.6,0.4-7.6,0.8
	c-2,0.4-2.8,1.8-2.8,1.8l-3.2,8.2l3,13.8c0,0,0.8,4.2,1,5s-0.2,2.4-0.2,2.4l-2.2,6l-2.2-3l-4.2-3.4l-4.2-3.2l-2.6-5.6l-2.6-3.4
	l-1-1.2l-3.2-2.2L447,193l-2.2-1.6l-1.4-5.4l-7.8-11.6l-0.2-0.4l-1.8-2.2l-0.4-0.6l-1.2-1.8l-1.4-1.4l-1.6-2.2l-2.2-3.4l0.6-2
	l0.2-0.2l-1.2-6c0,0-1.4-3.2-1.8-4.4c-0.6-2-0.4-0.8-1.4-2.6L422,146l-0.4-0.8l-0.8-1.2c0,0-0.2-0.6-1.2-0.8s-1.6,1.4-1.8,1l-1.2-1
	l-2-2.4l-0.8-0.4C413.6,140.3,412.8,139.4,412.2,139.2"/>
<path fill="#FFFFFF" d="M412.4,139.6c-1-0.4-2.6,0-3.4,0.4c-1.2,0.6-1.4,2-1.2,3.8l0.6,4.8l1.2,3.6l1.8,2.8l1.8,1.8l1.6,4.8l1,0.8
	l3.2,1l0.8,1.4l5.4,11.4l9.6,22l9,13.2l3.6,3.8l7.2,16.8c0,0,1.6,4.8,4.8,5.6s9.8,0.8,9.8,0.8s-10.2,0-9.8,2.8
	c0.2,2.8,7.8,2.8,7.8,2.8s-8,1.2-7.2,3.8s5.8,2.4,5.8,2.4s-3.4,1.6-3.4,3.2c0,1.6,2,3.2,2.4,3.8c0.4,0.6-2.6,1.6-2.4,3.8
	c0.4,2.2,3.2,7.2,3.2,7.2v1.2c0,0-2.6-3.6-3.2-2.2s0.4,5,0.4,5l-0.2,2c0,0-1.2,1.6-1.4,3.6c-0.2,2.2-2.4,18-2.2,25.8
	c0.2,7.8,0,4.8,0,4.8l5.2,27c0,0-0.4,2.4,0.6,2.2c0.8-0.2,2.4-1.6,2.4-1.6l1.2-0.4c0,0-1.6,2.4-1.6,3.6c0,1.4,0.2,3.6,0.2,3.6
	l1.6,1.6c0,0-1.6,1.2-1.6,2.4c0.2,1.2,0.8,2.8,0.8,2.8l-1.2-0.6l-1,1c0,0-0.6-1-0.6-2.2s-0.6-2-0.6-2s-2,8.8-2.4,13.8
	s3.6,17.4,5,20.6c1.4,3.4,3.8,14.8,3.8,14.8s-1,1.6-1,2.6c0.2,1,0.6,3.2,0.6,4.8c0,1.6-2.6,8.2-2.6,10c0,1.6,2,6.6,2,6.6
	s2,1.8,2.8,1.8s1.4,1.6,2.2,1.8c0.8,0.2,1.2-1.4,1.2-1.4V304.7c0,0-0.2-1.8-0.6-3.2c-0.6-1.4-2.4-2-3-3.2l-1.4-3.4l-3.8-4.8
	c0,0-2-2.6,0.8-0.8c2.8,1.6,4.8,3.6,5,4.6c0.4,1,1.8,2.2,2.2,2.2h3c0,0,1.8-2.8,3.6-4.4c1.8-1.6,3.4-3.4,4.6-3.2
	c1.2,0.2-1,1.2-1.8,2.2c-0.6,0.8-4.4,5-5.6,7.4c-1,2.4-2.2,2.6-2.2,3.6s-0.2,2.8-0.2,2.8l0.4,117.6c0,0-0.2,1.6,0.8,1.6
	c1.2,0,0.6-1.2,1.8-1.4c1.2-0.2,1.6-1.4,2.4-1.6s1.8-1,2.2-2.6c0.4-1.4,0.8-2.2,1.2-3.8c0.4-1.6,0.6-3,0.6-3s-2.2-8.8-2.2-10
	s0.2-2,0.6-3.4s-1.2-3.6-1.2-5.6s5.8-26.2,6-29c0.4-2.8,0.2-6.4-0.6-8c-0.8-1.6-1-2-1-2l-1.6,1c0,0,0.2-1,0.6-2.6s0.2-2.6,0.2-2.6
	l-1-0.2c0,0,1-5.8,1-7.4s-1.6-8.4-1.6-8.4s1.6,2.4,2.6,1.6c1.2-0.8,5.8-18.8,5.8-18.8s1-16.2,1-18.2c0-2.2-1-5.2-1.2-7.4
	c-0.4-2.2-0.8-4.4-0.4-5.4s0.2-2.6,0-3.6c-0.4-1-1-3.2-1-3.2v-7c0,0,1-1,1-1.8s0.2-1.6,0.2-1.6l-1-0.6c0,0,0.6-1.6,1.2-4
	s-0.6-6.2-0.6-6.2l1.8,2c0.2,0.2,1-2.8,0.8-4.4c-0.2-1.8-2.6-2.6-2.6-2.6s3-0.8,3-2.8c0-1.8-4-2.2-4-2.2s4.4,0,4.4-2.6s-7-2.8-7-2.8
	s6.2,0,6.2-2.6s-8.2-2.4-8-2.4l9-0.8l8.6-14.8c0,0,1.2-1.4,1.4-2.2c0.2-0.8,0-2.2,0-2.2l12-14.2l1.6-2.2l9.2-19l4-9l1.6-3.8
	c0,0,1-1.2,2-1.6s3.2-1.8,3.8-2s2-1.8,2.4-2.6s1.2-2.6,1.6-3.2c0.4-0.6,1.6-2.2,1.6-2.2l1.4-2l1.2-2.8l0.8-1.8l0.2-3.6l-0.8-2.2
	l-0.2-1.8l-0.6-0.2c0,0-0.2-0.2-0.8-0.4s-1-0.2-1-0.2l-0.8-0.2l-0.6,0.2l-4.2,4.6l-1.6,2.6l-1.4,1.8l-0.4,2l-0.6,1.4v2l-0.8-1.8
	l1-1.8l0.2-2.2l1.6-2c0,0,0.4-1.2,0-2s-1.2-0.4-1.2-0.4l-1,1.4l-2.2,2l-1.6,4l-2.6,4.8l-0.2,4l2,2.8v0.8l-1.8-0.2l-2.4,4l-5.6,7.8
	l-7.2,8.2l-6.4,10.6l-5.2,3.8l-4.4,7.4c0,0-4.2,1.4-5,2.2s-4.8,6.2-6.4,8.6c-1.6,2.4-3.2,3.4-4.4,3.4c-1,0-3.2,0.4-3.2,0.4
	s-0.4,2-2.8,2.6c-2.6,0.6-4.4-1.8-4.4-1.8l2.6,0.2l1.2-0.4l0.6-0.2l2.2-3c0,0,5-0.2,5.8-0.8c0.8-0.4,1.8-2.4,1.8-2.4l-2.4-7
	l-1.8,0.4c0,0-2.2,1.2-3.4,1.2c-1.2-0.2-3-0.2-3-0.2s2.2,0,3.4-0.4c1.4-0.2,2.2-1.2,3-2l2.6-3c0,0,1.6-3.8,1.8-4.6s0.4-3.2,0.4-3.2
	l-1.2-0.6l2.4-3.6l-0.2-6.2l-3.8-3.2c0,0,1.2-1.2,0.4-2c-1-0.8-5-2-5-2l-3-0.4l-5.6,2l0.8,0.8l-0.4,1.2h0.8l-3.4,3.6l-0.4,2.2
	l0.2,2.8v3.2l1.4,1.6l-0.8,0.2l0.6,4.4l0.4,3l3.4,3.8l3,1.4c0,0-2-0.2-3-0.6c-1.2-0.4-2.2-1-2.2-1l-0.6,1.2c0,0-1.2,3.4-1.4,4.6
	c-0.2,1.2-0.2,1.4-0.2,1.4l1.6,1.2l-0.4,0.6l-4,0.4c0,0-1.2-2.4-1.8-3.8c-0.8-1.4-8.2-7.6-8.2-7.6s-2.6-3-3-4s-2.6-4.2-2.6-4.2
	l-7.4-5.4l-1.6-6l-6.8-9.8l-4.4-6.2l-4.6-7.8l-0.6-0.8l0.8-1.8l-1.4-6.2l-1.4-3.8l-1.4-2.2c-0.6-1.2-2-1.4-2.4-2.6
	c-0.6-1.4-0.8-1.6-1.6-1.4c-1,0.2-0.4,2.6-0.4,2.6l1.4,2.2l0.2,0.6l-0.2,0.6v1.2l1.2,1.8l0.2,0.6c0,0-0.6,0.8-0.8,1.6
	c-0.2,0.8-0.4,3.6-0.4,3.6s-0.2-1.8-0.2-2.8s0.6-2.6,0.6-2.6l-0.8-2l-0.2-1v-1.2l-1.2-2l-0.8-2.4l-0.8-0.8l-3.2-4.2l0.2,0.2h-1
	V139.6z"/>
<path fill="#231F20" d="M480,342.5c0,0-1,2.6-0.2,4c1,1.4,2.4,1,2.8,0.8s0.8-0.4,0.6-0.2c-0.2,0.4-0.6,1.4-2,1.2
	c-1.4-0.2-2.4-1-2.4-2.6C478.6,344.1,480,342.5,480,342.5 M487.8,258.7c0,0,0-4.4-1.6-6.2s-4.6-3.2-6-3s-1.6,2-1,2.2
	c0.8,0.2,1.4-0.2,3.8,1.2s4.2,5,4.2,5L487.8,258.7z M467.8,260.3c0,0-0.2-5,1.4-7s4.8-3.8,6.4-3.6s2,2,1.2,2.4s-1.6-0.2-4.2,1.6
	c-2.6,1.6-4.4,5.8-4.4,5.8L467.8,260.3z M477.4,191.5l-0.2,1.4l-0.4,0.6c0,0-0.8,0-1,0s-1-0.4-1-0.4v-0.4c0,0,1,0,1.2-0.2
	s0.4-0.6,0.4-1.2c0-0.6-1.2-0.8-1.2-1v-0.2h1.4c0,0,0.6,0.2,0.6,0.4C477.6,190.5,477.4,191.3,477.4,191.5 M480.8,191.3v5.2
	c0,0,0.2,1,0,1.4s-1,0.6-1.2,0.8l-0.2,0.4c0,0,1.2-0.2,1.6,0s1-0.4,1.2-0.8c0-0.4,0-3.2,0-3.2s0-0.8,0.2-1.2s0.8-0.8,0.8-0.8
	l0.8,0.2l1.2-0.2c0,0,0.2-0.2,0.2-0.6c0.2-0.4-0.6-0.2-1.2-0.2c-0.4,0-1.4,0-1.6-0.8c-0.2-0.6,0.2-1.4,0.2-1.4s1.8-0.2,1.2-0.6
	c-0.6-0.2-2.8,0-3.2,0.6C480.8,190.5,480.8,191.3,480.8,191.3 M477,202.3c0,0,0.6-0.6,0.8-0.8c0.4-0.2,1.2,0,1.2,0s1,0.2,1.4,0.2
	s1.2-0.4,1.2,0s-0.4,0.6-0.8,0.6s-1.4,0-1.4,0s-0.8-0.2-1-0.2S477,202.3,477,202.3 M461.8,227.5c0,0-2-4.6-4.4-6.6
	c-2.4-1.8-4.4-2.2-4.4-0.8c0,1.2,1.6,1.4,3,1.8s2.6,1.2,3.6,2.4C460.2,225.3,461.8,227.5,461.8,227.5 M492.6,226.1
	c0,0,2.2-4.8,5.2-7.4c3-2.6,4.6-2.6,4.8-1.2c0.2,1.4-1.2,1.8-2.8,2.2c-1.6,0.4-2.8,2-4.4,3.6C494.4,224.1,492.6,226.1,492.6,226.1
	 M479.2,202.9l0.2,0.2c0,0,0,0.2-0.2,0.2c0,0-0.2,0-0.2-0.2S479.2,202.9,479.2,202.9"/>
<path fill="#929497" d="M675.5,318.5l-6.6,34.8c0,0,2,7.8,1,12s-2.6,7.2-3.8,8.2s-5.2-6.2-15.8-4.2c-7.4,1.4-10,6.6-12.8,9.2
	c-0.2,1.4-3.8,12.8-4.8,25.4c-1,13.8,0,51.8,0,51.8s-6.2,14.4-11.8,23.6s-16.2,25.2-16.2,25.2s-15,9.4-19.6,11.2s-19.6,10-19.6,10
	l-39.2,12.4C523.6,539,511.4,559,482,560s-46.4-19.6-46.4-19.6l-47-14.6l-34.4-20c-1.6-1-12.6-18.4-14.8-22.6
	c-2-4.4-11.4-23.4-11.4-23.4s-0.8-21-0.8-25.4s0.4-26-0.2-35.4c-0.4-9.6-3.4-17-3.4-17l-0.6-1.2c-3-2.4-5.6-8-13-9.4
	c-10.6-2-14.8,5.2-15.8,4.2c-1.2-1-2.8-4-3.8-8.2s1-12,1-12l-6.6-34.8l8-34c3.2-6,23.8-53.2,26.8-69s-4.2-20.4-9.6-21.2
	s-14.2,8.2-17,12c-2.6,4-8.2-12-4.4-26.8c3.8-14.8,9.8-18.4,9.8-18.4l-11-28.4l15.2-20.2l0.2,26.6c0,2,10.4,3.4,27.4,20.8
	s13.8,37,14,43S344,320.8,344,320.8s-0.2,0.2-0.4,0.8l-0.2,53c0,0.4-2.2,24,6.2,48.4c8.4,24.4,23.8,46.2,51.8,61.2
	s36.8,15.2,36.8,15.2l-17.4,21l4.8,13l7,2c1,0.4-1.4-1.8-1.4-5.8s1.2-6,2.2-8.2s8.8-15.4,10-17c1.4-1.6,2.6-2.6,5.4-2.4s9,1,11,5
	s2.6,9,1.2,11.8c-1.4,2.8-9.6,5.6-11,1.4c-2.4-7.2-8.2,5-6,10.4c2.6,5.8,11.4-3.4,11.6-3s-7.6,8.6-1.4,12.8s10.6-7.6,11-7.2
	c0.4,0.4-3.6,11,4,13c7.4,2.2,11-9.8,11-9.8s5,11.6,11,9.4c6-2.2,4-13.2,4-13.2s4.6,11.2,10,7.2s0.6-11.6,0.6-11.6s6.4,5.6,9,3.4
	c2.4-2.2,3.2-3.6,1.8-7.2c-1.4-3.6-4.4-8-5-6.4c-0.8,1.8-3.4,4.2-8.2,3.4c-4.8-0.8-4.6-9.6-2.8-13.6c1.8-4,6.6-5,6.6-5l8.2-1.4
	c0,0,11.6,16.4,13,21.2s-0.6,11.4-0.6,11.4l7.2-2.8l4.8-11.4L523,499.2c0,0,2.8,1.2,35-14.8s48.6-49.2,52.8-63.8
	c4-14.6,5.6-27.2,5.6-27.2l-0.2-76.4l0,0c0-13-0.4-108.6-0.2-114.4c0.2-6-3-25.4,14-43s27.4-18.8,27.4-20.8l0.2-26.6l15.2,20.2
	L661.6,161c0,0,6,3.6,9.8,18.4s-1.6,30.6-4.4,26.8c-2.6-4-11.4-13-17-12c-5.4,0.8-12.6,5.4-9.6,21.2s23.6,63,26.8,69L675.5,318.5z"
	/>
<path fill="#FFFFFF" d="M634.3,379.9c-0.4,0-0.8,0-1.4-0.2c-5.2-1.4-6.6-5.2-7-8l-7.4,0.4v20.8c0,1-2.4,32-16.4,52.8
	s-20.8,25.2-22.6,28s-2.8,5.4-2.8,5.4s-5.4-0.6-8.8,1.4c-3.4,2-8,8.8-8,8.8s-3.6-0.8-5.8,0.4c-2.2,1.2-3.6,3.6-3.6,3.6l-2.8-0.6
	l-7.6,4l4-0.2l3.6-1.4c1.6-0.6,2.6,3,1,3.4s-10.8,1.2-10.8,1.2l7.4,10l-1.4,0.6l-13.4-8l-1.2,0.6l14,18l4.2-2.2
	c4-1.6,1.2-4.2,0.8-5.2l-0.6-0.4c-1.2-1-5,2-5.8,0.2c-1-1.8,1.2-2.4,1.2-2.4l2.2-0.8c3-0.8,3.6-0.4,4.8,1l2.6,5.2
	c0,0,0.6,0.8,0.4,2.2c-0.2,1.4-1.4,1.8-1.4,1.8l-6,2.8c-1.8,1-2.8,1-4.2-0.2l-3.4,8.2l13.2-4.2c0,0,5.2-4.8,7.8-8.4
	c2.6-3.6,5.6-8.6,5.6-8.6l0.4,0.4l-4.4,12.8l0.2,0.6c4.8-2.2,10-4.6,15-7.4l3.8-16h0.6l1.4,12.6c0.2,0.8,1.4,0.6,2.4,0
	c7.6-3.6,13.4-6.6,20.8-10.4l9.4-17l-20,16.2c0,0-1.6,3.2-3.2,5.4c-1.4,2.2-4,3.2-5.8,2.8c-1.8-0.6,0.2-2.2,0.2-2.2s2.2-2.6,2.2-6.2
	c-0.2-3.6-3-6-3-6l2.8,1.2l2.2,2c0,0,0.6-3,0.4-4.6c-0.2-1.6-0.6-4-0.6-4s3,1.4,3.8,3.8c0.6,2.4,1.2,5.4,1.2,5.4l20.2-16.4l-1.6-5.6
	l-9.2,9c0,0-0.4,0.4-0.6,2.2c-0.2,1.8-2,3.8-2.8,3.8c-0.6,0.2,1.4-4,0-7s-6-1-6-1s1.2-2.4,3.6-3s4.8,1.4,4.8,1.4s1.4-1.4,0.2-4
	c-1.2-2.8-5.4-1.8-5.4-1.8s0.2-2.2,2.8-2.6s3.6,0.6,3.6,0.6l19.6-23l-2.6-3.2l-36.6,38.4l0.6,1c0.6,3.2-0.8,5.4-0.8,6
	s-1.2-6-5.2-8.2c-3.8-2-8.2-2-10-2s3.8-3,8.2-1.8s6,2.8,6,2.8l38-39.4l5.2,6.6l-7,8.4l2.6,6.4l-7.8,8.4l2.4,6.2c0,0,4-5.6,7.6-13.2
	s6.2-13.2,6.2-13.2s-0.6-33.2,0.4-51.2C631.7,388.1,633.7,381.5,634.3,379.9"/>
<path fill="#FFFFFF" d="M326.3,381.9c0.2,0,0.6,0,0.8-0.2c4.8-1.2,6.4-4.6,6.8-7.2h6.4c0,0-0.6,30.2,7.4,51s20,36.8,26,41.8
	c6.2,5,8,7.8,8.6,9.2c0.4,1.4,1.2,4.2,1.2,4.2s5-0.6,10.2,2.6c5,3,6,7.4,6,7.4l6.4,0.4l3.4,3l2.8-1c2-0.4,4.2,0.2,4.4,1.8v1.4
	c0,0,3-1,4.8,0.4s1.6,4.6,0.8,5.8l-6,8.2l1.6,0.4l12.6-8.4h1.6l-14,17.8c-0.8,1-1.8,1.2-2.8,0.8L411,519c0,0-1-1.6,0-3
	s1.4-2,3.2-1.6l3.2,0.8c0,0,1.6,0.2,2.2-1s-0.2-2.2-0.6-2.2l-3.2-0.6l-3.2-0.4c-2.4-0.4-4.2,5.2-5.2,7.8c0,0.8,0,1.4,0.6,2.2
	l7.6,4.4c1,0.2,1.8,0,2.2-0.4l1.4-1.4l3.6,9.6c0,0-10.4-0.6-15.6-6.2c-5.2-5.6-10.8-14.8-10.8-14.8s1,5,1.8,7.4s3.4,7.2,3,7
	s-4.4-1.2-8.8-2.8s-7.8-3.8-7.8-3.8l-2-9.8l-1.4-1.4l0.8-2.4l-1-6.2c0,0-2.2,6-2.2,9s0.2,6.8,0.2,6.8l-23.2-12c0,0-4.6-6.8-6.2-9.8
	s-3.6-7.4-3.6-7.4l20.2,16.6c0,0,0.8,2.2,2.4,4.2c1.6,2.2,5.4,5,7.6,3.4c2-1.6-4-0.8-4-6s3.8-7.8,2.4-7l-4,2.4c0,0-0.4-0.8-0.4-4.2
	c0.2-3.4,1-5,1-5s-2.4,0-3.8,4.6c-1.4,4.8-0.8,5.6-1.4,5.2l-19.2-16.6l1.4-5l8.4,7c0,0,0.2,3.2,1.4,5c1.2,1.8,3,3.2,3.2,2.8
	c0.2-0.4-2.4-3.6-0.8-6.6s6-2,5.4-2.4s-1.4-2.2-4.4-2s-4,2.2-4.4,1.8l-16-15.6l1.6-5l12.6,12.8c0,0.2-0.8,2.4,0.6,5.6h0.6
	c0.8-1.2,0.6-3,2.6-4.2c1-0.4,3.4-1,4.8,0l0.6-0.6c0,0-1.8-2.4-4.6-2.6c-2.8,0-3.6,1-3.8,0.6l-18.6-21.6L337,453l3.4-3l36.2,38.6
	c-0.4,1.4-2.2,4.2,0.2,8.4l1,1.2c0,0-2-7.6,3.2-10.6s10.8-1.6,10.8-1.6s-3.6-4.2-9-2.4c-5.4,1.8-5.2,3.4-5.6,3l-36.8-39.8l-6.6,7.2
	l7.4,9l-2.6,7.2l7.8,8.2l-2,7L330,459.2c0,0-0.8-31.8-0.4-39.8c0.6-8-0.4-22.4-1.4-28.6C327.3,386.1,326.7,383.1,326.3,381.9"/>
<path fill="#FFFFFF" d="M644.3,168.5l-4.6-5.6l-6.4,5.8l-3.2-1.2c-0.6-0.2-6.2,7.8-9.2,16.8s-3.6,28.2-1.8,41.8s3.6,24.6,3.2,25.2
	l-2.8,2.8l0.8,5.6l-1.6,2.4l-0.4,11.2l7.2,17.8c0,0-0.8,4.2-0.8,7.2s2,5.8,2,5.8l-1.8,6.2l-5.8-10.6l0.2,17.8c0,0,4.8,7,7.2,15.2
	c2.4,8,5.4,19.6,5,19.2c-0.4-0.6,5.6-4,13.2-5.6s15.2,1.4,14,0l-10.2-12.6l-8.2,6.6c0,0-3,3.2-4.2,0.4c-1.2-2.8-9-23.2-9-23.2
	s-1-1.8,4.2-8c5.4-6.2,8.2-5.6,10.2-5.6s-4.6,2.6-7,6.6s-3,6.8-2.4,8.8l6,18.2c0.2,0.8,0.6,1.6,1.4,1l4-4l-3.6-6.8
	c-0.4-0.8,0-1.2,0.2-1.4l3.4-2.8l5.8-8.6c0.4-0.4,1.4-0.4,1.8,0l7.8,6.8c0.4,0.6,0.8,0.6,0.4,2l-1.8,4.8c-0.2,0.8-0.2,1.2,0,1.8
	c2.4,4.2,4.6,7.8,6.8,11.8l-0.2-11.6c0,0,0.2-4.2,3-3.4c3,0.8,2.2,5.6,1.8,7.8l-2.8,15.4l1,1.6l5-33l-7.6-34
	c0,0-23.8-49.2-27.2-72.6s9-28.2,8.2-29.6l-3.4-5.4l-3-0.8l-0.4-1.6L644.3,168.5z"/>
<path fill="#FFFFFF" d="M316.9,164.7c-0.6,0.6-17.4-10.2-18.8-11.6c-2.6-3-3.2-6-3.2-6s7.2,3.2,13.6,7s10.8,7.8,10.8,7.8
	L316.9,164.7z"/>
<path fill="#929497" d="M556.4,500c-2.6,0-4.6-2.2-4.6-4.6c0-2.6,2.2-4.6,4.6-4.6c2.6,0,4.6,2,4.6,4.6S559,500,556.4,500"/>
<path fill="#929497" d="M552.2,501.4c0.8,1,1,1.4,1,2s-0.4,2.4-0.8,3.2s-0.4,1.4-1.2,1.2c-0.8,0-3.8-5-3.8-5s-0.6-1-0.4-1.2
	c0.2-0.4,0.6-1,1.6-1.2c1.2-0.2,1.4-0.6,2.2-0.2C551.6,500.2,552.2,501.4,552.2,501.4"/>
<path fill="#929497" d="M558.6,503.2c2-0.8,2.2-1,2.8-1c0.6-0.2,0.6-0.2,1.2,0s2,2.8,2,2.8s0.4,0.8-0.2,1.4s-7.6,2.8-7.6,2.8
	s-1.4,0.6-2,0.4s-0.6-1.2-0.6-1.6s0.6-2.8,0.6-2.8s0.6-0.6,1.4-1.2C557.4,503.6,558.6,503.2,558.6,503.2"/>
<path fill="#929497" d="M563.2,495.8c0-0.8-0.4-3.8-0.4-4.4s0-0.8,0.4-1c0.2-0.2,4.8-2.6,4.8-2.6s1.2-0.6,1.4,0
	c0.4,0.4,0.6,0.8,0.6,1.6c0,0.8,0.2,4.4,0,7.4c-0.4,2.8-1.2,5.4-1.2,5.6c0,0.4-0.2,0.6-0.6,0.6s-3.4-1.6-3.6-1.8
	c-0.4-0.2-1-1.2-1.2-1.8C563,498.6,563.2,495.8,563.2,495.8"/>
<path fill="#929497" d="M404.2,501.6c2.6,0,4.6-2.2,4.6-4.6s-2.2-4.6-4.6-4.6c-2.6,0-4.6,2.2-4.6,4.6S401.6,501.6,404.2,501.6"/>
<path fill="#929497" d="M408.2,503c-0.8,1-1,1.4-1,2s0.4,2.4,0.8,3.2s0.4,1.2,1.2,1.2c0.8,0,3.8-5,3.8-5s0.6-1,0.4-1.2
	s-0.6-1-1.6-1.2c-1.2-0.2-1.4-0.6-2.2-0.2C408.8,501.8,408.2,503,408.2,503"/>
<path fill="#929497" d="M401.8,504.8c-2-0.8-2.2-1-2.8-1c-0.6-0.2-0.6-0.2-1.2,0s-2,2.8-2,2.8s-0.4,0.8,0.2,1.4s7.6,2.8,7.6,2.8
	s1.4,0.6,2,0.4s0.6-1.2,0.6-1.6s-0.6-2.8-0.6-2.8s-0.6-0.6-1.4-1.2C403,505.2,401.8,504.8,401.8,504.8"/>
<path fill="#929497" d="M397.2,497.4c0-0.8,0.4-3.8,0.4-4.4s0-0.8-0.4-1c-0.2-0.2-4.8-2.6-4.8-2.6s-1.2-0.6-1.4,0
	c-0.4,0.4-0.6,0.8-0.6,1.6c0,0.8-0.2,4.4,0,7.4c0.4,2.8,1.2,5.4,1.2,5.6c0,0.4,0.2,0.6,0.6,0.6s3.4-1.6,3.6-1.8
	c0.4-0.2,1-1.2,1.2-1.8C397.4,500.2,397.2,497.4,397.2,497.4"/>
<path fill="#929497" d="M415.6,500.6l-4-1.2l0.2-2.8c0,0,1.4,1.6,2.2,1.8c0.8,0.2,1.2-0.6,1.2-0.6l1-0.8c0,0-0.2,0.6-0.2,1.4
	C416,499.2,415.4,500.8,415.6,500.6"/>
<path fill="#FFFFFF" d="M480.8,556c15.4,1,39-15.2,41.8-21c2.8-5.6,3.4-8.8,1.2-13.6c-2.2-5-8.6-15.2-8.6-15.2s0-0.6-0.8-1
	c-0.8-0.6-1.8-0.2-1.8-0.2s-6.2,0.6-8,2c-2,1.4-4,7.8-1.2,9.6c3,1.8,5.6,0,6-2s-1.8-3.8-1.8-3.8s4-1.8,8.6,7.6
	c4.6,9.4,2.8,10.6,2.4,13.2c-0.4,2.6-15.8,19.8-37.4,19.6s-37.2-12-39-18c-2-6-0.2-14.4,5.2-19c5.2-4.6,5.8-3.4,5.8-3.4
	s-4,3.8-0.2,6.2c3.8,2.4,6.8-0.6,6-5.4c-0.8-4.8-3.6-5-5.2-5.6c-1.8-0.6-5.8-1.2-7.4-0.2c-1.4,1-6.8,10.4-7.6,11.6
	c-0.6,1.2-4.4,9-3.2,13.4c1.4,4.4,8.2,15.8,21.2,19.6C469.8,555.8,480.8,556,480.8,556"/>
<path fill="#929497" d="M479.2,505.6c4.8,0,17.6-0.8,17.6-0.8s0.8-0.4,1.2,0.2c0.6,0.6,0.4,1,0.4,1s-1.4,4.8-1.6,5.8
	c0,1-1.2,5.6-1.2,5.6s0,1.2-0.6,1.8c-0.4,0.6-1.8,1-1.8,1s-7.2,1-13,1s-14.4-0.4-13.8-0.4s-0.8-0.2-1.4-0.4s-0.4-1.6-0.4-1.6
	s-0.8-5.6-1.2-7.4c-0.4-1.8-1.8-4.8-1.8-4.8s-0.2-0.6,0.2-1c0.4-0.6,0.8-0.6,1.2-0.6c0.4,0,6.4,0.8,8.2,0.8
	C472.8,505.6,479.2,505.6,479.2,505.6"/>
<path fill="#FFFFFF" d="M479.8,509.6c3.6,0,11.6-0.4,11.6-0.4s1.2-0.2,1.6,0.2c0.6,0.4,0.4,2.2,0.2,3c0,0.6-0.4,3-1,3.4
	c-0.4,0.2-1,0.4-1,0.4s-7.2,0.8-12,1c-2,0-8-0.2-10-0.4c-1,0-1.6-5.2-1.6-6.2c0,0,0-0.8,0.2-1s1.4-0.2,1.6-0.2s3,0,4.4,0
	C475,509.6,479.8,509.6,479.8,509.6"/>
<polygon fill="#FFFFFF" points="617.4,462 619,466.2 604.8,480.6 605,475.6 "/>
<path fill="#929497" d="M338.7,115.2c0,0-8.8,3.4-9.8,10.8c-0.8,7.4,5.2,14.6,8,21.2s2.2,17.8,2,18.4c-0.2,0.6-0.2,1.6-0.8,1.8
	c-0.6,0.2-1.2-0.8-1.2-0.8s-8.6-10.4-11.2-12c-2.6-1.8-10-7.6-10-7.6s0.8-7.4,0.8-10.8s-1.8-16.2,4-20.6s9-3.8,10.4-3.8
	C336.5,111.4,338.7,115.2,338.7,115.2"/>
<path fill="#FFFFFF" d="M335.9,159.7c-0.8,2-7-6-9-8.4c-2.2-2.2-9.2-13.2-8.4-23.2s5.8-11.6,7.6-12.4c1.8-0.8,6.6-1.6,7-0.6
	s-2,1.6-4.4,4.6c-2.6,3-3.8,9-1.6,13.8c2.2,4.8,5.2,10.4,6.8,14.6C335.9,152.5,335.9,159.7,335.9,159.7"/>
<path fill="#FFFFFF" d="M290.3,136.4c0,0,6.4,3.4,18.6,9.8c12.2,6.4,20.4,17.4,20.4,17.4l-2.4,2.6c0,0-6.6-7.6-15.6-13.2
	c-9-5.6-12.6-7.4-18.6-10L290.3,136.4z"/>
<path fill="#FFFFFF" d="M312.9,170.3l2.2-3l-7-4.6l-8.2-5l2.6,3l4,2.8c0,0-0.2,0.8-1,0.8c-1.4,0-3.4,0.2-4.8,0.8
	c-2.4,1.2-4.8,3-4.2,4.2c0.6,1.2,3.6-1.2,7.6-1.2S312.9,170.3,312.9,170.3"/>
<path fill="#FFFFFF" d="M316.7,176.7c0,0-7.2-7.8-15.2-5.2s-10,6.6-11,16.6c-1,9.8,1.4,15.8,2.4,16s4.6-11.2,8.2-16.2
	s8.6-3.8,11.2-4.2L316.7,176.7z"/>
<path fill="#FFFFFF" d="M315.9,170.3l4.6-5.6l6.4,5.8l3.2-1.2c0.6-0.2,6.2,7.8,9.2,16.8s3.6,28.2,1.8,41.8
	c-1.8,13.6-3.6,24.6-3.2,25.2l2.8,2.8l-0.8,5.6l1.6,2.4l0.4,11.2l-7.2,17.8c0,0,0.8,4.2,0.8,7.2s-2,5.8-2,5.8l1.8,6.2l5.8-10.6
	l-0.2,17.8c0,0-4.8,7-7.2,15.2c-2.4,8-5.4,19.6-5,19.2c0.4-0.6-5.6-4-13.2-5.6s-15.2,1.4-14,0l10.2-12.6l8.2,6.6c0,0,3,3.2,4.2,0.4
	c1.2-2.8,9-23.2,9-23.2s1-1.8-4.2-8c-5.4-6.2-8.2-5.6-10.2-5.6s4.6,2.6,7,6.6s3,6.8,2.4,8.8l-6,18.2c-0.2,0.8-0.6,1.6-1.4,1l-4-4
	l3.6-6.8c0.4-0.8,0-1.2-0.2-1.4l-3.4-2.8l-5.8-8.8c-0.4-0.4-1.4-0.4-1.8,0l-7.8,6.8c-0.4,0.6-0.8,0.6-0.4,2l1.8,4.8
	c0.2,0.8,0.2,1.2,0,1.8c-2.4,4.2-4.6,7.8-6.8,11.8l0.2-11.6c0,0-0.2-4.2-3-3.4c-3,0.8-2.2,5.6-1.8,7.8l2.8,15.4l-1,1.6l-5-33l7.6-34
	c0,0,23.8-49.2,27.2-72.6c3.4-23.4-9-28.2-8.2-29.6l3.4-5.4l3-0.8l0.4-1.6L315.9,170.3z"/>
<polygon fill="#FFFFFF" points="298.3,345.5 312.5,330.3 307.3,322.7 303.7,326.1 305.7,331.1 "/>
<path fill="#FFFFFF" d="M311.5,350.5c10.6,1,16.4,6.2,18,7.2s3.2,3.6,3.2,3.6l-3,3c0,0-6.6-8-17.4-9s-17.6,7-18.6,6.8
	c-0.8-0.2-1.4-4.4,2.8-7.2C301.9,349.9,311.5,350.5,311.5,350.5"/>
<path fill="#FFFFFF" d="M311.5,359.1c7-0.2,13.4,6,15.6,7.8s6.2,8.8,1.2,11s-5.8-2.6-7.2-4.2c-1.4-1.6-4.8-7.6-14.4-8.4
	s-10.8,5-11.8,5s-0.8-5.6,4.4-8.4C304.7,358.3,311.5,359.1,311.5,359.1"/>
<path fill="#929497" d="M304.5,306.9c2,1.4,4.8,6.2,4.8,6.2s3.4,0.2,3.8,0c0.4-0.4-0.4-6-0.8-7.2s-1.6-4.2-2.4-4.2s-3.2,2.6-3.8,2.6
	c-0.6,0-1.2-4.2-2-4.6c-0.6-0.2-5-0.6-6.2,0s-2.8,0.6-2.4,2.8c0.4,2,0.8,3.6,1.6,3.2c0.8-0.2,4-0.2,5.4,0.2
	C303.7,306.5,304.5,306.9,304.5,306.9"/>
<path fill="#929497" d="M296.1,317.7c1,0.8,3,2.4,3.2,3s0,0.8,0,1.4c-0.2,0.6-0.8,3.6-1.4,3.8c-0.6,0.2-3-0.4-4.2-1.2
	c-1.2-0.8-3.2-3-3-3.8s1.6-4,1.8-4.6c0.2-0.4,0.6-1.4,1.4-0.8C294.5,316.1,296.1,317.7,296.1,317.7"/>
<path fill="#FFFFFF" d="M295.3,320.3c0.6,0.6,1.2,0.8,1.6,1.2c0.4,0.4,0.4,1.6,0.2,2s-1,0.2-1.8,0c-0.6-0.4-2.4-1.6-2.4-2s0-2,0.6-2
	C294.1,319.5,295.3,320.3,295.3,320.3"/>
<path fill="#929497" d="M301.3,308.1c2.6,0,4.8,2.4,4.8,5.2c0,3-2.2,5.2-4.8,5.2s-4.8-2.4-4.8-5.2
	C296.3,310.5,298.5,308.1,301.3,308.1"/>
<path fill="#FFFFFF" d="M300.5,310.1c1.4,0,2.6,1.2,2.6,2.8c0,1.6-1.2,2.8-2.6,2.8s-2.6-1.2-2.6-2.8S299.1,310.1,300.5,310.1"/>
<path fill="#929497" d="M621.3,113.2c0,0,8.8,3.4,9.8,10.8c1,7.4-5.2,14.6-8,21.2c-2.8,6.6-2.2,17.8-2,18.4c0.2,0.6,0.2,1.6,0.8,1.8
	s1.2-0.8,1.2-0.8s8.6-10.4,11.2-12c2.6-1.8,10-7.6,10-7.6s-0.8-7.4-0.8-10.8c0-3.4,1.8-16.2-4.2-20.6c-5.8-4.4-9-3.8-10.4-3.8
	C623.7,109.6,621.3,113.2,621.3,113.2"/>
<path fill="#FFFFFF" d="M624.3,157.7c0.6,2,7-6,9-8.4c2.2-2.2,9-13.4,8.2-23.4s-5.8-11.6-7.6-12.4s-6.6-1.6-7-0.6s2,1.6,4.4,4.6
	c2.6,3,3.8,9,1.6,13.8s-5.2,10.4-6.8,14.6C624.3,150.5,624.3,157.7,624.3,157.7"/>
<polygon fill="#FFFFFF" points="661.9,343.5 647.7,328.5 652.7,320.9 656.5,324.1 654.5,329.3 "/>
<path fill="#FFFFFF" d="M648.7,348.7c-10.6,1-16.4,6.2-18,7.2s-3.2,3.6-3.2,3.6l3,3c0,0,6.6-8,17.4-9c10.8-1,17.6,7,18.6,6.8
	c0.8-0.2,1.4-4.4-2.8-7.2C658.1,347.9,648.7,348.7,648.7,348.7"/>
<path fill="#929497" d="M655.7,304.9c-2,1.4-4.8,6.2-4.8,6.2s-3.4,0.2-3.8,0c-0.4-0.4,0.4-6,0.8-7.2s1.6-4.2,2.4-4.2
	c0.8,0,3.2,2.6,3.8,2.6s1.2-4.2,2-4.6c0.6-0.2,5-0.6,6.2,0s2.8,0.6,2.4,2.8c-0.4,2-0.8,3.6-1.6,3.2c-0.8-0.2-4-0.2-5.4,0.2
	C656.3,304.5,655.7,304.9,655.7,304.9"/>
<path fill="#929497" d="M664.1,315.9c-1,0.8-3,2.4-3.2,3c-0.2,0.4,0,0.8,0,1.4c0.2,0.6,0.8,3.6,1.4,3.8c0.6,0.2,3-0.4,4.2-1.2
	c1.2-0.8,3.2-3,3-3.8s-1.6-4-1.8-4.6c-0.2-0.4-0.6-1.4-1.4-0.8C665.5,314.1,664.1,315.9,664.1,315.9"/>
<path fill="#FFFFFF" d="M664.9,318.3c-0.6,0.6-1.2,0.8-1.6,1.2c-0.4,0.4-0.4,1.6-0.2,2s1,0.2,1.8,0c0.6-0.4,2.4-1.6,2.4-2s0-2-0.6-2
	C665.9,317.5,664.9,318.3,664.9,318.3"/>
<path fill="#929497" d="M658.9,306.1c-2.6,0-4.8,2.4-4.8,5.2c0,3,2.2,5.2,4.8,5.2s4.8-2.4,4.8-5.2S661.5,306.1,658.9,306.1"/>
<path fill="#FFFFFF" d="M659.5,308.1c-1.4,0-2.6,1.2-2.6,2.8s1.2,2.8,2.6,2.8s2.6-1.2,2.6-2.8C662.1,309.3,660.9,308.1,659.5,308.1"
	/>
<path fill="none" stroke="#231F20" stroke-width="0.216" stroke-miterlimit="2.613" d="M619,105.8L619,105.8L619,105.8z"/>
<path fill="#FFFFFF" d="M669.7,134.6c0,0-6.4,3.4-18.6,9.8c-12.2,6.4-20.4,17.4-20.4,17.4l2.4,2.6c0,0,6.6-7.6,15.6-13.2
	c9-5.6,12.6-7.4,18.6-10L669.7,134.6z"/>
<path fill="#FFFFFF" d="M643.1,162.9c0.6,0.6,17.4-10.2,18.8-11.6c2.6-3,3.2-6,3.2-6s-7.2,3.2-13.8,7c-6.4,3.8-10.8,7.8-10.8,7.8
	L643.1,162.9z"/>
<path fill="#FFFFFF" d="M647.3,168.5l-2.2-3l7-4.6l8.2-5l-2.4,3.2l-4,2.8c0,0,0.2,0.8,1,0.8c1.4,0,3.4,0.2,4.8,0.8
	c2.4,1.2,4.8,3,4.2,4.2s-3.6-1.2-7.6-1.2S647.3,168.5,647.3,168.5"/>
<path fill="#FFFFFF" d="M643.3,174.9c0,0,7.2-7.8,15.2-5.2s9.8,6.6,11,16.6c1,9.8-1.4,15.8-2.4,16s-4.6-11.2-8.2-16.2
	c-3.8-5-8.6-3.8-11.2-4.2L643.3,174.9z"/>
<path fill="#FFFFFF" d="M556.4,498c-1.2,0-2.4-1-2.4-2.4c0-1.2,1-2.4,2.4-2.4c1.2,0,2.4,1,2.4,2.4C558.8,497,557.8,498,556.4,498"/>
<path fill="#FFFFFF" d="M564.6,495.4c0-1-0.4-3-0.2-3.4s1-1,1.6-1.2s1.6-1,1.8-0.6c0.2,0.2,0.4,1,0.4,2s-0.2,6-0.8,6.8
	c-0.4,1-0.6,1.2-1.2,0.8c-0.6-0.2-1.4-0.4-1.4-1C564.8,498.4,564.6,495.4,564.6,495.4"/>
<path fill="#FFFFFF" d="M404,499.6c1.2,0,2.4-1,2.4-2.4c0-1.2-1-2.4-2.4-2.4c-1.2,0-2.4,1-2.4,2.4S402.6,499.6,404,499.6"/>
<path fill="#FFFFFF" d="M395.8,497c0-1,0.4-3,0.2-3.4c-0.2-0.2-1-1-1.6-1.2s-1.6-1-1.8-0.6s-0.4,1-0.4,2s0.2,6,0.8,6.8
	c0.4,1,0.6,1.2,1.2,0.8c0.6-0.2,1.4-0.4,1.4-1C395.6,500,395.8,497,395.8,497"/>
<path fill="#929497" d="M323.5,263.9c2.8-6.2,6-18.8,6.8-22.4c0.2-0.6,0.4-3.4,2.6-1.2l3.8,3.6l-2,10.2c0,0.4-0.4,1.4,0.2,2.4l2,2
	c0.2,0.4,1,1,1.2,1.8c0.2,1-1.2,3.6-0.4,4.6l2.2,2.8c0.4,0.6,0.8,1.2,0.4,2.6l-10.8,25.4c0,0,2.2,3.6,2.4,6.2c0.2,2.6-0.8,7-1.6,6.2
	l-4.8-4.6c0,0-0.6-9-3.6-8.4c-2.6,0.6-3-1.2-4.2-1c-1.6,0.2-4.6,1-5.6-1.2s1.4-6.4,2.6-8.4s4.8-9.8,5.8-12.6
	C321.7,269.1,323.5,263.9,323.5,263.9"/>
<path fill="#FFFFFF" d="M321.3,275.3l5.6-16l5-17.8l3,2.6c0,0-1.4,8.4-3.6,15.8c-2.2,7.4-4.6,15-4.6,15s-0.6-0.6-2.4-0.6
	C322.7,274.5,321.3,275.3,321.3,275.3"/>
<path fill="#FFFFFF" d="M333.7,257.5l3.2,3.2c0,0-3.2,9.4-3.8,11.6c-0.6,2.2-3.6,9.8-4,11s-1.4,3.4-2,3.4s-1.2-4-4-4.8
	c-2.8-0.6-5.8,2-5.2,1l2.6-5.4c0,0,2.2-0.8,4.6,0.8c2.2,1.6,2.6,3.2,3,4.4c0.4,1.2,1.2-2,1-3.6s-0.8-3.6-0.8-3.6L333.7,257.5z"/>
<path fill="#FFFFFF" d="M336.7,266.3l2.4,3.2l-10.2,25.6c0,0-1.4-1-3.4-1.2s-3,0-3.8-0.4s-2-2-3.4-1.8s-3.8,1.2-4.2-0.6
	c-0.4-1.8,1.8-4.8,2.2-5.6c0.4-0.6,3.6-2.6,6.4-0.8c3,2,4.2,6.4,4.2,6.4s4.2-9,6-14C333.7,274.7,336.7,266.3,336.7,266.3"/>
<path fill="#929497" d="M636.7,261.9c-2.8-6.2-6-18.8-6.8-22.4c-0.2-0.6-0.4-3.4-2.6-1.2l-3.8,3.6l2,10.2c0,0.4,0.4,1.4-0.2,2.4
	l-2,2c-0.2,0.4-1,1-1.2,1.8c-0.2,1,1.2,3.6,0.4,4.6l-2.2,2.8c-0.4,0.6-0.8,1.2-0.4,2.6l10.8,25.4c0,0-2.2,3.6-2.4,6.2s0.8,7,1.6,6.2
	l4.8-4.6c0,0,0.6-9,3.6-8.4c2.6,0.6,3-1.2,4.2-1c1.6,0.2,4.6,1,5.6-1.2s-1.4-6.4-2.6-8.4s-4.8-9.8-5.8-12.4
	C638.5,267.1,636.7,261.9,636.7,261.9"/>
<path fill="#FFFFFF" d="M638.7,273.5l-5.6-16l-5.2-17.8l-3,2.6c0,0,1.4,8.4,3.6,15.8c2.2,7.4,4.6,15,4.6,15s0.6-0.6,2.4-0.6
	C637.3,272.7,638.7,273.5,638.7,273.5"/>
<path fill="#FFFFFF" d="M626.5,255.5l-3.2,3.2c0,0,3.2,9.4,3.8,11.6s3.6,9.8,4,11s1.4,3.4,2,3.4s1.2-4,4-4.8c2.8-0.6,5.8,2,5.2,1
	l-2.6-5.4c0,0-2.2-0.8-4.6,0.8c-2.2,1.6-2.6,3.2-3,4.4c-0.4,1.2-1.2-2-1-3.6s0.8-3.6,0.8-3.6L626.5,255.5z"/>
<path fill="#FFFFFF" d="M623.5,264.5l-2.4,3.2l10.2,25.6c0,0,1.4-1,3.4-1.2s3,0,3.8-0.4s2-2,3.4-1.8s3.8,1.2,4.2-0.6
	c0.4-1.8-1.8-4.8-2.2-5.6c-0.4-0.6-3.6-2.6-6.4-0.8c-3,2-4.2,6.4-4.2,6.4s-4.2-9-6-14C626.5,272.7,623.5,264.5,623.5,264.5"/>
<path fill="#FFFFFF" d="M648.7,357.1c-7-0.2-13.4,6-15.6,7.8s-6.2,8.8-1.2,11s5.8-2.6,7.2-4.2s4.8-7.6,14.4-8.4
	c9.6-0.8,10.8,5,11.8,5s0.8-5.6-4.4-8.4C655.5,356.3,648.7,357.1,648.7,357.1"/>
<path fill="#FFFFFF" d="M626.1,369.1c0.6-2,2.2-4,2.2-4l-4.6-5.6l5-6.2c0,0-2-12-3.8-17.2c-1-3.2-4.2-9-6.4-13.2v46.2l7.2-0.2
	L626.1,369.1z"/>
<path fill="#FFFFFF" d="M334.1,371.9c-0.4-2.4-2.4-4.8-2.4-4.8l4.6-5.6l-5-6.2c0,0,2-12,3.8-17.2c1-2.8,3.4-7.8,5.6-11.6l-0.2,45.2
	L334.1,371.9z"/>
<polygon fill="#FFFFFF" points="566,130.6 566,113.8 569.4,113.8 569.4,126.6 576.4,126.6 576.4,115.6 579.8,115.6 579.8,126.6 
	588.4,126.6 588.4,113.6 591.8,113.6 591.8,130.6 "/>
<path fill="#FFFFFF" d="M566.4,157.9v-10c0-3.2,0.6-5.6,1.8-7.2c1.2-1.6,2.8-2.4,5-2.4c1.6,0,3,0.4,4,1.4c1,0.8,1.6,2,1.8,3.6h0.2
	c0.2-1.6,0.6-2.8,1.4-3.4c0.8-0.6,2-1,3.8-1h1.4c2,0,3.6-0.2,4.4-0.4c0.8-0.2,1.6-0.6,2-1v4.6c-0.4,0.2-1,0.4-1.6,0.6
	c-0.6,0.2-1.4,0.2-2.4,0.2c0,0-0.2,0-0.8,0c-0.4,0-1,0-1.4,0c-2,0-3.2,0.2-4,0.8c-0.6,0.6-1,1.6-1,3.2v7h11v4.2h-25.6L566.4,157.9
	L566.4,157.9z"/>
<path fill="#007934" d="M569.8,153.9h8v-6.2c0-1.8-0.4-3.2-1-4s-1.8-1.4-3-1.4s-2.2,0.4-2.8,1.4s-1,2.2-1,4v6.2H569.8z"/>
<path fill="#FFFFFF" d="M566,184.7v-10c0-3,0.6-5.2,1.6-6.8s2.6-2.2,4.8-2.2c1.4,0,2.4,0.4,3.4,1c1,0.8,1.6,1.8,2,3l0,0
	c0.2-1.8,1-3.4,2.2-4.4s2.6-1.6,4.4-1.6c2.6,0,4.4,0.8,5.6,2.6c1.2,1.8,1.8,4.4,1.8,8v10.2H566V184.7z"/>
<path fill="#007934" d="M569.4,180.7h7.2v-6c0-1.8-0.2-3-0.8-3.8s-1.4-1.2-2.8-1.2c-1.2,0-2.2,0.4-2.8,1.4s-0.8,2.2-0.8,4.2
	L569.4,180.7L569.4,180.7z"/>
<path fill="#007934" d="M579.8,180.7h8.6v-6.8c0-2-0.4-3.4-1-4.2c-0.8-1-1.8-1.4-3.2-1.4s-2.6,0.4-3.2,1.4c-0.8,1-1,2.4-1,4.2v6.8
	H579.8z"/>
<polygon fill="#FFFFFF" points="565.8,218.3 565.8,213.1 587.4,204.7 587.4,204.5 565.8,196.1 565.8,190.7 591.6,190.7 591.6,194.5 
	570.4,194.3 570.4,194.5 591.6,202.7 591.6,206.5 570.4,214.7 570.4,214.9 591.6,214.5 591.6,218.3 "/>
<path fill="#FFFFFF" d="M565.4,235.7c0-1.8,0.2-3.4,0.8-4.8c0.6-1.4,1.4-2.8,2.4-4c1.4-1.4,2.8-2.4,4.6-3.2s3.6-1,5.8-1
	c2,0,3.8,0.4,5.6,1s3.2,1.6,4.4,2.8s2.2,2.6,2.8,4c0.6,1.6,1,3.2,1,5.2c0,1.8-0.4,3.6-1,5.2c-0.6,1.6-1.6,3-2.8,4.2
	s-2.8,2.2-4.4,2.8c-1.6,0.6-3.4,1-5.4,1s-3.8-0.4-5.6-1c-1.6-0.6-3.2-1.6-4.4-2.8s-2-2.6-2.8-4.2
	C565.8,239.1,565.4,237.3,565.4,235.7"/>
<path fill="#007934" d="M568.8,235.7c0,2.4,1,4.4,2.8,6c2,1.6,4.4,2.4,7.4,2.4s5.4-0.8,7.2-2.4c1.8-1.6,2.8-3.6,2.8-6s-1-4.4-2.8-6
	s-4.4-2.4-7.4-2.4s-5.4,0.8-7.4,2.4C569.8,231.1,568.8,233.1,568.8,235.7"/>
<polygon fill="#FFFFFF" points="566.4,274.1 566.4,269.9 576.8,269.9 576.8,257.7 566.4,257.7 566.4,253.5 592.2,253.5 592.2,257.7 
	580.2,257.7 580.2,269.9 592.2,269.9 592.2,274.1 "/>
<polygon fill="#FFFFFF" points="566.2,318.5 566.2,314.1 588.6,314.1 588.6,301.3 592,301.3 592,318.5 "/>
<polygon fill="#FFFFFF" points="566.4,343.1 566.4,326.3 569.8,326.3 569.8,339.1 576.8,339.1 576.8,328.1 580.2,328.1 580.2,339.1 
	588.8,339.1 588.8,326.1 592.2,326.1 592.2,343.1 "/>
<path fill="#FFFFFF" d="M566.6,372.1v-9c0-4.8,1.2-8.4,3.4-10.8s5.4-3.6,9.8-3.6c4,0,7.2,1.2,9.4,3.6s3.4,6,3.4,10.4v9.2h-26
	L566.6,372.1L566.6,372.1z"/>
<path fill="#007934" d="M570,367.9h19v-4.6c0-3.2-0.8-5.8-2.4-7.6c-1.6-1.8-4-2.6-7-2.6c-3.2,0-5.6,0.8-7.2,2.6
	c-1.6,1.6-2.4,4.2-2.4,7.6L570,367.9L570,367.9z"/>
<polygon fill="#FFFFFF" points="562.6,406.5 564.2,401.9 591.8,399.9 590.4,404.3 584.6,404.5 580.8,416.3 585.4,420.2 584,424.4 
	"/>
<polygon fill="#007934" points="567.2,405.5 577.8,414.1 581,404.7 567.2,405.3 "/>
<polygon fill="#FFFFFF" points="547,431.2 550.2,427 574.2,429.2 574.2,429.2 558.2,416.5 560.8,413.3 581.2,429.2 577.8,433.4 
	553.6,431 553.4,431.2 569.8,443.8 567.2,447 "/>
<polygon fill="#FFFFFF" points="530.2,441.8 544,432 546,434.8 535.6,442.2 539.6,448 548.6,441.6 550.6,444.4 541.6,450.8 
	546.4,457.6 557,450.2 559,453 545,462.8 "/>
<polygon fill="#FFFFFF" points="515.2,448.4 519.2,446.6 528,467.2 539.8,462.2 541.2,465.4 525.4,472 "/>
<path fill="#FFFFFF" d="M494.2,453.2l9.6-2c3-0.6,5.6-0.4,7.4,0.6c2,1,3.2,2.8,3.8,5.4s0.2,4.8-1.2,6.6c-1.4,1.8-3.6,3-6.6,3.6
	l-5.6,1.2l2,9.2l-4,0.8L494.2,453.2z"/>
<path fill="#007934" d="M498.8,455.6l2,9.4l5-1c2-0.4,3.2-1.2,4-2.2s1-2.2,0.6-3.8s-1-2.6-2.2-3.2s-2.6-0.6-4.6-0.2L498.8,455.6z"/>
<polygon fill="#FFFFFF" points="448.6,450.8 453.8,451.6 463.4,473.8 463.6,473.8 466.8,453.6 470.8,454.4 466.8,479.8 461.6,479 
	451.8,456.6 451.6,456.6 448.6,477 444.4,476.2 "/>
<path fill="#FFFFFF" d="M437.4,445.8c1.6,0.6,3,1.6,4.2,2.6s2.2,2.4,2.8,3.8c0.8,1.8,1.2,3.6,1.2,5.4s-0.4,3.8-1.2,5.8
	c-0.8,1.8-1.8,3.4-3,4.8s-2.6,2.4-4.2,3s-3.2,1-4.8,1s-3.4-0.4-5-1s-3.2-1.6-4.4-2.8c-1.2-1.2-2.2-2.6-2.8-4.2s-1-3.4-1-5.2
	c0-1.8,0.4-3.6,1.2-5.4s1.8-3.4,3-4.8c1.2-1.2,2.6-2.2,4.4-3c1.6-0.6,3.2-1,4.8-1C434,444.8,435.8,445.2,437.4,445.8"/>
<path fill="#007934" d="M436.2,449c-2.2-1-4.6-0.8-6.6,0.4c-2.2,1.2-3.8,3.2-5,6s-1.4,5.4-0.6,7.6c0.8,2.4,2.2,4,4.6,4.8
	c2.2,1,4.6,0.8,6.6-0.4c2.2-1.2,3.8-3.2,5-6s1.4-5.4,0.6-7.8C440,451.6,438.4,450,436.2,449"/>
<rect x="412.8" y="437.2" transform="matrix(-0.8572 -0.5149 0.5149 -0.8572 538.9686 1049.5741)" fill="#FFFFFF" width="4.4" height="25.8"/>
<path fill="#FFFFFF" d="M411.2,442.8l-3.4-3.2c0.8-1.4,1.2-2.8,0.8-4.4c-0.2-1.4-1-2.8-2.2-4c-1.8-1.8-4-2.6-6.4-2.4
	s-4.8,1.4-6.8,3.6s-3.2,4.4-3.4,6.8s0.8,4.6,2.6,6.4c1.4,1.4,2.8,2,4.4,2.2s3-0.4,4.4-1.4l3.4,3.2c-2.4,1.8-4.8,2.4-7.4,2.2
	c-2.6-0.2-5.2-1.6-7.4-3.8c-2.8-2.8-4.2-5.8-4.2-9.2c0-3.4,1.4-6.6,4.4-9.6c1.4-1.4,2.8-2.4,4.4-3.2c1.6-0.8,3.2-1.2,5-1.2
	c1.6,0,3.4,0.2,5,0.8c1.6,0.6,3.2,1.6,4.6,3c2.2,2.2,3.4,4.4,3.8,6.8C413.2,438,412.6,440.4,411.2,442.8"/>
<polygon fill="#FFFFFF" points="394,409.7 396.2,414.1 378.4,435.6 376.2,431.6 380,427 374.2,416.1 368.4,416.7 366.2,412.7 "/>
<polygon fill="#007934" points="391.6,413.9 377.8,415.5 382.4,424.4 "/>
<polygon fill="#FFFFFF" points="389.8,384.5 391.2,404.3 387,404.5 367.8,389.9 368.8,405.9 365.4,406.1 364,385.5 368.2,385.1 
	387.4,399.7 386.4,384.7 "/>
<rect x="374.2" y="363.7" transform="matrix(-1.715664e-002 -0.9999 0.9999 -1.715664e-002 6.2741 759.4302)" fill="#FFFFFF" width="4.4" height="25.8"/>
<polygon fill="#FFFFFF" points="389.4,353.7 389.4,357.9 367,357.9 367,370.9 363.6,370.9 363.6,353.7 "/>
<polygon fill="#FFFFFF" points="389.6,335.9 389.6,340.9 363.8,351.3 363.8,346.7 369.2,344.5 369.2,332.3 363.8,330.1 363.8,325.5 
	"/>
<polygon fill="#007934" points="385.6,338.3 372.6,333.5 372.6,343.3 385.6,338.5 "/>
<polygon fill="#FFFFFF" points="389.2,305.1 389.2,321.9 385.6,321.9 385.6,309.1 378.6,309.1 378.6,320.3 375.2,320.3 375.2,309.1 
	366.8,309.1 366.8,322.1 363.4,322.1 363.4,305.1 "/>
<path fill="#FFFFFF" d="M389,279.9v10c0,3.2-0.6,5.6-1.8,7.2s-2.8,2.4-5.2,2.4c-1.6,0-3-0.4-4-1.4c-1-0.8-1.6-2-1.8-3.6H376
	c-0.2,1.6-0.6,2.8-1.4,3.4s-2,1-3.8,1h-1.4c-2,0-3.6,0-4.4,0.4c-0.8,0.2-1.6,0.6-2,1v-4.8c0.4-0.2,1-0.4,1.6-0.6s1.4-0.2,2.4-0.2
	c0,0,0.2,0,0.8,0c0.4,0,1,0,1.4,0c2,0,3.2-0.2,4-0.8c0.6-0.6,1-1.6,1-3.2v-7h-11v-4.2L389,279.9z"/>
<path fill="#007934" d="M385.6,284.1h-8v6.2c0,1.8,0.4,3,1,4c0.6,0.8,1.8,1.4,3,1.4s2.2-0.4,2.8-1.4c0.6-1,1-2.2,1-4L385.6,284.1z"
	/>
<polygon fill="#FFFFFF" points="389,240.7 389,245.5 363.2,255.9 363.2,251.3 368.8,249.3 368.8,236.9 363.2,234.7 363.2,230.3 "/>
<polygon fill="#007934" points="385,243.1 372.2,238.1 372.2,248.1 385,243.3 "/>
<polygon fill="#FFFFFF" points="389.2,212.1 389.2,216.3 366.8,216.5 366.8,229.3 363.4,229.3 363.4,212.1 "/>
<path fill="#FFFFFF" d="M389,164.5v10c0,3.2-0.6,5.6-1.8,7.2c-1.2,1.6-2.8,2.4-5.2,2.4c-1.6,0-3-0.4-4-1.4c-1-0.8-1.6-2-1.8-3.6H376
	c-0.2,1.6-0.6,2.8-1.4,3.4c-0.8,0.6-2,1-3.8,1h-1.4c-2,0-3.6,0.2-4.4,0.4s-1.6,0.6-2,1v-4.8c0.4-0.2,1-0.4,1.6-0.6
	c0.6-0.2,1.4-0.2,2.4-0.2c0,0,0.2,0,0.8,0c0.4,0,1,0,1.4,0c2,0,3.2-0.2,4-0.8c0.6-0.6,1-1.6,1-3.2v-7h-11v-4.2L389,164.5z"/>
<path fill="#007934" d="M385.6,168.7h-8v6.2c0,1.8,0.4,3.2,1,4s1.8,1.4,3,1.4s2.2-0.4,2.8-1.4c0.6-1,1-2.2,1-4L385.6,168.7z"/>
<path fill="#FFFFFF" d="M390.2,148.3c0,1.8-0.4,3.4-1,4.8c-0.6,1.4-1.4,2.8-2.4,4c-1.4,1.4-2.8,2.4-4.6,3c-1.8,0.6-3.8,1-5.8,1
	s-3.8-0.4-5.6-1c-1.8-0.6-3.2-1.6-4.4-3c-1.2-1.2-2-2.6-2.6-4.2c-0.6-1.6-0.8-3.2-0.8-5.2c0-1.8,0.4-3.6,1-5.2
	c0.6-1.6,1.6-3,2.8-4.2c1.4-1.2,2.8-2.2,4.4-2.6c1.6-0.6,3.4-0.8,5.6-0.8c2,0,3.8,0.4,5.6,1c1.6,0.6,3,1.6,4.4,3
	c1.2,1.2,2,2.6,2.6,4.2C390,144.7,390.2,146.5,390.2,148.3"/>
<path fill="#007934" d="M386.8,148.1c0-2.4-0.8-4.4-2.8-6c-1.8-1.6-4.4-2.4-7.4-2.4s-5.4,0.6-7.4,2.2c-1.8,1.6-2.8,3.6-3,6
	c0,2.4,0.8,4.4,2.8,6c1.8,1.6,4.4,2.4,7.4,2.4s5.4-0.6,7.4-2.2C385.8,152.7,386.8,150.7,386.8,148.1"/>
<path fill="#FFFFFF" d="M389,114.2v9.8c0,3-0.8,5.4-2.2,7.2c-1.4,1.6-3.4,2.6-6,2.6s-4.8-0.8-6.2-2.6c-1.4-1.6-2.2-4.2-2.2-7.2v-5.6
	H363v-4.2L389,114.2z"/>
<polygon fill="#FFFFFF" points="441.2,446.2 444,444.8 445.6,446.4 442.2,447 "/>
<path fill="#007934" d="M385.6,118.4H376v5.2c0,2,0.4,3.4,1.2,4.4c0.8,1,2,1.4,3.6,1.4s2.8-0.4,3.6-1.4c0.8-1,1.2-2.4,1.2-4.4
	L385.6,118.4L385.6,118.4z"/>
</svg>
