<?xml version="1.0" encoding="utf-8"?>
<!-- Generator: Adobe Illustrator 17.1.0, SVG Export Plug-In . SVG Version: 6.00 Build 0)  -->
<!DOCTYPE svg PUBLIC "-//W3C//DTD SVG 1.1//EN" "http://www.w3.org/Graphics/SVG/1.1/DTD/svg11.dtd">
<svg version="1.1" id="Layer_1" xmlns="http://www.w3.org/2000/svg" xmlns:xlink="http://www.w3.org/1999/xlink" x="0px" y="0px"
	 viewBox="113.1 0 733.8 560" enable-background="new 113.1 0 733.8 560" xml:space="preserve">
<polygon fill="#404041" points="507.9,0 507.9,114.8 432.4,114.8 432.4,0 413.1,0 413.1,114.8 394.4,114.8 394.4,0 375.4,0 
	375.4,131.2 507.8,131.2 507.8,147.4 375.4,147.4 375.4,278.5 394.4,278.5 394.4,163.8 413.1,163.8 413.1,278.5 432.4,278.5 
	432.4,163.8 507.9,163.8 507.9,278.5 526.7,278.5 526.7,0 "/>
<rect x="545.3" fill="#404041" width="19" height="278.5"/>
<polygon fill="#404041" points="194.9,498.7 211.4,498.7 211.4,476 232.6,476 232.6,498.7 249.2,498.7 249.2,438.9 232.6,438.9 
	232.6,461.3 211.4,461.3 211.4,438.9 194.9,438.9 "/>
<path fill="#404041" d="M305.2,499.9c16.9,0,28-8.5,28-27.8V439h-16.7v33.6c0,8.4-4.3,12.3-10.9,12.3c-6.7,0-11.1-4.1-11.1-12.8V439
	h-16.9v33.5C277.5,491.2,288.3,499.9,305.2,499.9"/>
<polygon fill="#404041" points="361.6,498.7 377.8,498.7 377.8,464.5 393,487.8 393.3,487.8 408.7,464.4 408.7,498.7 425.1,498.7 
	425.1,438.9 407.7,438.9 393.3,462.1 379.2,438.9 361.6,438.9 "/>
<path fill="#404041" d="M449.3,498.7h17.4l4.3-10.8h23.1l4.4,10.8h17.8l-25.4-60.3h-16.1L449.3,498.7z M476,475.1l6.7-17.1l6.7,17.1
	H476z"/>
<polygon fill="#404041" points="540.5,498.7 556.9,498.7 556.9,465.9 582.6,498.7 597.1,498.7 597.1,438.9 580.7,438.9 580.7,470.5 
	556.1,438.9 540.5,438.9 "/>
<path fill="#404041" d="M621.3,498.7h17.4l4.3-10.8h23.1l4.3,10.8h17.8l-25.4-60.3h-16.1L621.3,498.7z M648,475.1l6.7-17.1l6.7,17.1
	H648z"/>
<path fill="#404041" d="M735.1,499.7c14.5,0,24.1-7.3,24.1-19.5V480c0-11.3-8.5-15.5-22.4-18.6c-8.4-1.9-10.2-3.1-10.2-5.8v-0.2
	c0-2.2,1.9-3.9,6-3.9c5.3,0,11.3,2,16.7,5.8l8.4-11.8c-6.5-5.1-14.3-7.9-24.6-7.9c-14.3,0-23.1,8-23.1,19.1v0.2
	c0,12.3,9.7,15.9,22.5,18.8c8.2,1.9,10.1,3.2,10.1,5.6v0.2c0,2.6-2.4,4.1-6.8,4.1c-6.8,0-13.5-2.4-19.3-7.2l-9.2,10.9
	C714.4,496.5,724.5,499.7,735.1,499.7"/>
<path fill="#404041" d="M231.6,419.1c13.3,0,20.8-5.8,26.5-13.5l-12.5-8.9c-3.6,4.4-7.3,7.3-13.5,7.3c-8.4,0-14.2-7-14.2-16.1v-0.2
	c0-8.7,5.8-15.9,14.2-15.9c5.6,0,9.7,2.7,13.2,7l12.5-9.7c-5.3-7.3-13.2-12.5-25.4-12.5c-18.1,0-31.6,13.7-31.6,31.1v0.2
	C200.7,406,214.5,419.1,231.6,419.1"/>
<rect x="283.9" y="358.1" fill="#404041" width="16.7" height="59.8"/>
<polygon fill="#404041" points="330,417.9 378.5,417.9 378.5,403.7 346.4,403.7 346.4,394.3 375.1,394.3 375.1,381.2 346.4,381.2 
	346.4,372.1 378.1,372.1 378.1,358.1 330,358.1 "/>
<polygon fill="#404041" points="405.5,417.9 421.8,417.9 421.8,385.1 447.5,417.9 462,417.9 462,358.1 445.6,358.1 445.6,389.7 
	421,358.1 405.5,358.1 "/>
<path fill="#404041" d="M519.7,419.1c13.3,0,20.8-5.8,26.5-13.5l-12.5-8.9c-3.6,4.4-7.3,7.3-13.5,7.3c-8.4,0-14.2-7-14.2-16.1v-0.2
	c0-8.7,5.8-15.9,14.2-15.9c5.8,0,9.7,2.7,13.2,7l12.5-9.7c-5.3-7.3-13.2-12.5-25.4-12.5c-18.1,0-31.6,13.7-31.6,31.1v0.2
	C489,406,502.6,419.1,519.7,419.1"/>
<rect x="572.1" y="358.1" fill="#404041" width="16.7" height="59.8"/>
<path fill="#404041" d="M613.5,417.9h17.4l4.3-10.8h23.1l4.3,10.8h17.8L655,357.6h-16.1L613.5,417.9z M640.1,394.3l6.7-17.1
	l6.7,17.1H640.1z"/>
<path fill="#404041" d="M727.2,418.9c14.5,0,24.1-7.3,24.1-19.5v-0.2c0-11.1-8.5-15.5-22.4-18.6c-8.4-1.9-10.2-3.1-10.2-5.8v-0.2
	c0-2.2,1.9-3.9,6-3.9c5.3,0,11.3,2,16.7,5.8l8.4-11.6c-6.5-5.3-14.3-8-24.6-8c-14.3,0-23.1,8-23.1,19.1v0.2
	c0,12.3,9.7,15.9,22.5,18.8c8.2,1.9,10.1,3.2,10.1,5.8v0.2c0,2.6-2.4,4.1-6.8,4.1c-6.8,0-13.5-2.6-19.3-7.2l-9.2,11.1
	C706.5,415.5,716.6,418.9,727.2,418.9"/>
<polygon fill="#009148" points="125,543.1 125,538.5 113.1,538.5 113.1,559.3 118.5,559.3 118.5,551.1 124.3,551.1 124.3,546.5 
	118.5,546.5 118.5,543.1 "/>
<path fill="#009148" d="M151.5,559.3l-7.9-20.8h-6l-8,20.8h5.8l1.4-3.6h7.5l1.4,3.6H151.5z M143,551.6h-4.4l2.2-6.7L143,551.6z"/>
<path fill="#009148" d="M172.5,559v-6.5c-1.4,1.5-2.9,2.2-4.6,2.2c-3.2,0-5.6-2.4-5.6-5.6c0-3.4,2.4-5.8,5.6-5.8
	c1.9,0,3.4,0.7,4.6,2.2V539c-2-0.9-3.2-1-5-1c-6.1,0-11.1,5-11.1,10.9c0,6.1,5,10.9,11.1,10.9C169.3,560,170.1,559.8,172.5,559"/>
<path fill="#009148" d="M198.6,550.6v-12h-5.5v11.3c0,2.2-0.2,2.7-0.5,3.6c-0.5,1-1.7,1.7-3.2,1.7c-1.4,0-2.4-0.5-3.1-1.5
	c-0.5-0.9-0.5-1.4-0.5-3.8v-11.3h-5.5v12c0,3.1,0.3,4.8,1.5,6.3c1.4,1.9,4.3,3.1,7.3,3.1c3.1,0,5.5-1,7.3-2.9
	C198.1,555.2,198.6,553.7,198.6,550.6"/>
<polygon fill="#009148" points="219.3,559.3 219.3,554.7 212.8,554.7 212.8,538.5 207.3,538.5 207.3,559.3 "/>
<polygon fill="#009148" points="237.7,543.1 237.7,538.5 223.4,538.5 223.4,543.1 227.7,543.1 227.7,559.3 233.1,559.3 233.1,543.1 
	"/>
<path fill="#009148" d="M263.2,559.3l-7.9-20.8h-6l-8,20.8h5.8l1.4-3.6h7.5l1.4,3.6H263.2z M254.7,551.6h-4.4l2.2-6.7L254.7,551.6z"
	/>
<path fill="#009148" d="M288.3,548.9c0-5.6-4.8-10.4-10.2-10.4h-8v20.8h8C283.5,559.3,288.3,554.5,288.3,548.9 M282.7,548.9
	c0,3.6-2.4,5.8-6,5.8h-1.2v-11.6h1.2C280.3,543.1,282.7,545.5,282.7,548.9"/>
<path fill="#009148" d="M326.6,548.9c0-5.6-4.8-10.4-10.2-10.4h-8v20.8h8C321.9,559.3,326.6,554.5,326.6,548.9 M320.9,548.9
	c0,3.6-2.4,5.8-6,5.8h-1.2v-11.6h1.2C318.5,543.1,320.9,545.5,320.9,548.9"/>
<polygon fill="#009148" points="346.4,559.3 346.4,554.7 339.9,554.7 339.9,551.1 346,551.1 346,546.5 339.9,546.5 339.9,543.1 
	346.4,543.1 346.4,538.5 334.4,538.5 334.4,559.3 "/>
<path fill="#009148" d="M381.4,559v-6.5c-1.4,1.5-2.9,2.2-4.6,2.2c-3.2,0-5.6-2.4-5.6-5.6c0-3.4,2.4-5.8,5.6-5.8
	c1.9,0,3.4,0.7,4.6,2.2V539c-2-0.9-3.2-1-5-1c-6.1,0-11.1,5-11.1,10.9c0,6.1,5,10.9,11.1,10.9C378,560,378.8,559.8,381.4,559"/>
<rect x="389.2" y="538.5" fill="#009148" width="5.5" height="20.8"/>
<polygon fill="#009148" points="415.2,559.3 415.2,554.7 408.7,554.7 408.7,551.1 414.8,551.1 414.8,546.5 408.7,546.5 408.7,543.1 
	415.2,543.1 415.2,538.5 403.2,538.5 403.2,559.3 "/>
<polygon fill="#009148" points="443.7,559.3 443.7,538.5 438.4,538.5 438.4,551.3 428.3,538.5 423,538.5 423,559.3 428.3,559.3 
	428.3,546.7 438.4,559.3 "/>
<path fill="#009148" d="M467.8,559v-6.5c-1.4,1.5-2.9,2.2-4.6,2.2c-3.2,0-5.6-2.4-5.6-5.6c0-3.4,2.4-5.8,5.6-5.8
	c1.9,0,3.4,0.7,4.6,2.2V539c-2-0.9-3.2-1-5-1c-6.1,0-11.1,5-11.1,10.9c0,6.1,5,10.9,11.1,10.9C464.4,560,465.2,559.8,467.8,559"/>
<rect x="475.6" y="538.5" fill="#009148" width="5.5" height="20.8"/>
<path fill="#009148" d="M509.6,559.3l-7.9-20.8h-6l-8,20.8h5.8l1.4-3.6h7.5l1.4,3.6H509.6z M501.1,551.6h-4.4l2.2-6.7L501.1,551.6z"
	/>
<path fill="#009148" d="M530.8,552.5c0-3.1-1.5-4.8-5.1-5.8c-1.9-0.5-2-0.7-2.4-0.7c-0.9-0.5-1.4-1-1.4-1.7c0-1,1-1.7,2.4-1.7
	c1.2,0,2.4,0.5,3.6,1.4l2.2-4.3c-2-1-4.4-1.7-6.7-1.7c-4.3,0-7.2,2.9-7.2,7c0,1.9,0.5,3.2,1.5,4.1c0.9,0.7,1.7,1,4.1,1.7
	c2.6,0.7,3.2,1.4,3.2,2.4c0,1.2-1,2-2.6,2s-3.1-0.7-4.8-2l-2.4,4.4c2.2,1.5,4.8,2.4,7.2,2.4C527.9,559.8,530.8,557.1,530.8,552.5"/>
<polygon fill="#009148" points="569.6,559.3 569.6,538.5 564.1,538.5 564.1,546.5 556.3,546.5 556.3,538.5 550.8,538.5 550.8,559.3 
	556.3,559.3 556.3,550.8 564.1,550.8 564.1,559.3 "/>
<path fill="#009148" d="M596.4,550.6v-12h-5.5v11.3c0,2.2-0.2,2.7-0.5,3.6c-0.5,1-1.7,1.7-3.2,1.7c-1.4,0-2.4-0.5-3.1-1.5
	c-0.5-0.9-0.5-1.4-0.5-3.8v-11.3h-5.5v12c0,3.1,0.3,4.8,1.5,6.3c1.4,1.9,4.3,3.1,7.3,3.1c3.2,0,5.5-1,7.3-2.9
	C595.9,555.2,596.4,553.7,596.4,550.6"/>
<polygon fill="#009148" points="630.4,559.3 627.3,538.5 621.8,538.5 617.4,549.6 613.1,538.5 607.8,538.5 604.2,559.3 609.5,559.3 
	611.4,547.4 616.2,559.3 618.4,559.3 623.4,547.4 624.9,559.3 "/>
<path fill="#009148" d="M658,559.3l-7.9-20.8h-6l-8,20.8h5.8l1.4-3.6h7.5l1.4,3.6H658z M649.3,551.6h-4.4l2.2-6.7L649.3,551.6z"/>
<polygon fill="#009148" points="685.5,559.3 685.5,538.5 680.1,538.5 680.1,551.3 670.2,538.5 664.7,538.5 664.7,559.3 670.2,559.3 
	670.2,546.7 680.1,559.3 "/>
<path fill="#009148" d="M714.2,559.3l-7.9-20.8h-6l-8,20.8h5.8l1.4-3.6h7.5l1.4,3.6H714.2z M705.5,551.6h-4.4l2.2-6.7L705.5,551.6z"
	/>
<path fill="#009148" d="M735.4,552.5c0-3.1-1.5-4.8-5.1-5.8c-1.9-0.5-2-0.7-2.4-0.7c-0.9-0.5-1.4-1-1.4-1.7c0-1,1-1.7,2.4-1.7
	c1.2,0,2.4,0.5,3.6,1.4l2.2-4.3c-2-1-4.4-1.7-6.7-1.7c-4.3,0-7.2,2.9-7.2,7c0,1.9,0.5,3.2,1.5,4.1c0.9,0.7,1.7,1,4.1,1.7
	c2.6,0.7,3.2,1.4,3.2,2.4c0,1.2-1,2-2.6,2s-3.1-0.7-4.8-2l-2.4,4.4c2.2,1.5,4.8,2.4,7.2,2.4C732.3,559.8,735.4,557.1,735.4,552.5"/>
<path fill="#009148" d="M773.5,550.6v-12H768v11.3c0,2.2-0.2,2.7-0.5,3.6c-0.5,1-1.7,1.7-3.2,1.7c-1.4,0-2.4-0.5-3.1-1.5
	c-0.5-0.9-0.5-1.4-0.5-3.8v-11.3h-5.5v12c0,3.1,0.3,4.8,1.5,6.3c1.4,1.9,4.3,3.1,7.3,3.1c3.2,0,5.5-1,7.3-2.9
	C773,555.2,773.5,553.7,773.5,550.6"/>
<path fill="#009148" d="M801.5,559.3l-7.9-20.8h-6l-8,20.8h5.8l1.4-3.6h7.5l1.4,3.6H801.5z M792.8,551.6h-4.4l2.2-6.7L792.8,551.6z"
	/>
<path fill="#009148" d="M824,553.3c0-2.9-1.4-4.6-4.3-5.1c1.7-1,2.2-2.2,2.2-4.3c0-3.6-2-5.5-5.8-5.5h-8v20.8h8.7
	C821.5,559.3,824,557.1,824,553.3 M817.2,544.6c0,1.4-0.9,2-2.6,2h-1v-4.1h1C816.4,542.6,817.2,543.4,817.2,544.6 M818.6,553
	c0,1.5-1.2,2.2-3.8,2.2h-1.2v-4.4h1c1.7,0,2.2,0,2.9,0.3C818.2,551.5,818.6,552.1,818.6,553"/>
<path fill="#009148" d="M846.9,559v-6.5c-1.4,1.5-2.9,2.2-4.6,2.2c-3.2,0-5.6-2.4-5.6-5.6c0-3.4,2.4-5.8,5.6-5.8
	c1.9,0,3.4,0.7,4.6,2.2V539c-2-0.9-3.2-1-5-1c-6.1,0-11.1,5-11.1,10.9c0,6.1,5,10.9,11.1,10.9C843.5,560,844.4,559.8,846.9,559"/>
<rect x="308.3" y="115.1" fill="#D1BE16" width="48.2" height="48.2"/>
</svg>
