<?xml version="1.0" encoding="utf-8"?>
<!-- Generator: Adobe Illustrator 17.1.0, SVG Export Plug-In . SVG Version: 6.00 Build 0)  -->
<!DOCTYPE svg PUBLIC "-//W3C//DTD SVG 1.1//EN" "http://www.w3.org/Graphics/SVG/1.1/DTD/svg11.dtd">
<svg version="1.1" id="Layer_1" xmlns="http://www.w3.org/2000/svg" xmlns:xlink="http://www.w3.org/1999/xlink" x="0px" y="0px"
	 viewBox="0 0 601.4 163.1" enable-background="new 0 0 601.4 163.1" xml:space="preserve">
<path fill="#404041" d="M113.8,0v67.2H69.6V0H58.3v67.2h-11V0H36.3v76.8h77.5v9.5H36.3v76.8h11.1V95.9h11v67.2h11.3V95.9h44.2v67.2
	h11V0H113.8z M135.8,163.1h11.1V0h-11.1V163.1z"/>
<polygon fill-rule="evenodd" clip-rule="evenodd" fill="#404041" points="171.7,127.3 181.4,127.3 181.4,114 193.8,114 193.8,127.3 
	203.5,127.3 203.5,92.3 193.8,92.3 193.8,105.4 181.4,105.4 181.4,92.3 171.7,92.3 "/>
<path fill-rule="evenodd" clip-rule="evenodd" fill="#404041" d="M236.3,127.9c9.9,0,16.4-4.9,16.4-16.3V92.3h-9.9V112
	c0,4.9-2.5,7.2-6.4,7.2c-3.9,0-6.4-2.4-6.4-7.5V92.3h-9.9v19.7C220.1,122.9,226.4,127.9,236.3,127.9"/>
<polygon fill-rule="evenodd" clip-rule="evenodd" fill="#404041" points="269.3,127.3 278.8,127.3 278.8,107.3 287.7,120.9 
	287.9,120.9 296.8,107.2 296.8,127.3 306.5,127.3 306.5,92.3 296.2,92.3 287.9,105.8 279.5,92.3 269.3,92.3 "/>
<path fill-rule="evenodd" clip-rule="evenodd" fill="#404041" d="M320.7,127.3h10.2l2.5-6.3h13.5l2.5,6.3h10.4L345,92h-9.4
	L320.7,127.3z M336.3,113.5l3.9-10l3.9,10H336.3z"/>
<polygon fill-rule="evenodd" clip-rule="evenodd" fill="#404041" points="374.1,127.3 383.7,127.3 383.7,108.1 398.7,127.3 
	407.2,127.3 407.2,92.3 397.6,92.3 397.6,110.8 383.2,92.3 374.1,92.3 "/>
<path fill-rule="evenodd" clip-rule="evenodd" fill="#404041" d="M421.4,127.3h10.2l2.5-6.3h13.5l2.5,6.3h10.4L445.6,92h-9.4
	L421.4,127.3z M436.9,113.5l3.9-10l3.9,10H436.9z"/>
<path fill-rule="evenodd" clip-rule="evenodd" fill="#404041" d="M488,127.9c8.5,0,14.1-4.3,14.1-11.4v-0.1c0-6.5-5-9.2-13.1-10.9
	c-4.9-1.1-6-1.8-6-3.4V102c0-1.3,1.1-2.3,3.5-2.3c3.1,0,6.6,1.2,9.8,3.4l4.9-6.9c-3.8-3-8.4-4.7-14.4-4.7c-8.4,0-13.5,4.7-13.5,11.2
	v0.1c0,7.2,5.7,9.3,13.2,11c4.8,1.1,5.9,1.9,5.9,3.4v0.1c0,1.5-1.4,2.4-4,2.4c-4,0-7.9-1.5-11.3-4.2l-5.4,6.5
	C475.9,125.9,481.8,127.9,488,127.9"/>
<path fill-rule="evenodd" clip-rule="evenodd" fill="#404041" d="M193.1,80.6c7.8,0,12.2-3.3,15.5-7.9l-7.3-5.2
	c-2.1,2.6-4.3,4.3-7.9,4.3c-4.9,0-8.3-4.1-8.3-9.4v-0.1c0-5.1,3.4-9.3,8.3-9.3c3.4,0,5.7,1.6,7.7,4.1l7.3-5.7
	c-3.1-4.3-7.7-7.3-14.9-7.3c-10.6,0-18.5,8-18.5,18.2v0.1C175.1,73,183.1,80.6,193.1,80.6"/>
<rect x="223.8" y="44.9" fill-rule="evenodd" clip-rule="evenodd" fill="#404041" width="9.8" height="35"/>
<polygon fill-rule="evenodd" clip-rule="evenodd" fill="#404041" points="250.8,79.9 279.2,79.9 279.2,71.7 260.4,71.7 260.4,66.1 
	277.2,66.1 277.2,58.5 260.4,58.5 260.4,53.2 279,53.2 279,44.9 250.8,44.9 "/>
<polygon fill-rule="evenodd" clip-rule="evenodd" fill="#404041" points="295,79.9 304.6,79.9 304.6,60.7 319.5,79.9 328,79.9 
	328,44.9 318.4,44.9 318.4,63.4 304,44.9 295,44.9 "/>
<path fill-rule="evenodd" clip-rule="evenodd" fill="#404041" d="M361.9,80.6c7.8,0,12.2-3.3,15.5-7.9l-7.3-5.2
	c-2.1,2.6-4.3,4.3-7.9,4.3c-4.9,0-8.4-4.1-8.4-9.4v-0.1c0-5.1,3.5-9.3,8.4-9.3c3.4,0,5.6,1.6,7.6,4.1l7.3-5.7
	c-3.1-4.3-7.7-7.3-14.9-7.3c-10.6,0-18.5,8-18.5,18.2v0.1C343.9,73,351.9,80.6,361.9,80.6"/>
<rect x="392.6" y="44.9" fill-rule="evenodd" clip-rule="evenodd" fill="#404041" width="9.8" height="35"/>
<path fill-rule="evenodd" clip-rule="evenodd" fill="#404041" d="M416.8,79.9H427l2.5-6.3H443l2.5,6.3h10.4L441,44.7h-9.4
	L416.8,79.9z M432.3,66.1l3.9-10l3.9,10H432.3z"/>
<path fill-rule="evenodd" clip-rule="evenodd" fill="#404041" d="M483.4,80.5c8.5,0,14.1-4.3,14.1-11.4V69c0-6.5-5-9.1-13.1-10.9
	c-4.9-1.1-6-1.8-6-3.4v-0.1c0-1.3,1.1-2.3,3.5-2.3c3.1,0,6.6,1.2,9.8,3.4l4.9-6.8c-3.8-3.1-8.4-4.7-14.4-4.7
	c-8.4,0-13.5,4.7-13.5,11.2v0.1c0,7.2,5.7,9.3,13.2,11c4.8,1.1,5.9,1.9,5.9,3.3v0.1c0,1.5-1.4,2.4-4,2.4c-4,0-7.9-1.5-11.3-4.2
	l-5.4,6.5C471.3,78.6,477.2,80.5,483.4,80.5"/>
<polygon fill-rule="evenodd" clip-rule="evenodd" fill="#009148" points="178.7,153.3 178.7,150.6 171.7,150.6 171.7,162.8 
	174.8,162.8 174.8,158 178.3,158 178.3,155.3 174.8,155.3 174.8,153.3 "/>
<path fill-rule="evenodd" clip-rule="evenodd" fill="#009148" d="M194.2,162.8l-4.6-12.2h-3.5l-4.7,12.2h3.4l0.8-2.1h4.4l0.8,2.1
	H194.2z M189.2,158.2h-2.6l1.3-3.9L189.2,158.2z"/>
<path fill-rule="evenodd" clip-rule="evenodd" fill="#009148" d="M206.5,162.5v-3.8c-0.8,0.9-1.7,1.3-2.7,1.3
	c-1.9,0-3.3-1.4-3.3-3.3c0-2,1.4-3.4,3.3-3.4c1.1,0,2,0.4,2.7,1.3v-3.8c-1.2-0.5-1.9-0.6-2.9-0.6c-3.6,0-6.5,2.9-6.5,6.4
	c0,3.6,2.9,6.4,6.5,6.4C204.5,163.1,205,163,206.5,162.5"/>
<path fill-rule="evenodd" clip-rule="evenodd" fill="#009148" d="M221.7,157.6v-7h-3.2v6.6c0,1.3-0.1,1.6-0.3,2.1
	c-0.3,0.6-1,1-1.9,1c-0.8,0-1.4-0.3-1.8-0.9c-0.3-0.5-0.3-0.8-0.3-2.2v-6.6h-3.2v7c0,1.8,0.2,2.8,0.9,3.7c0.8,1.1,2.5,1.8,4.3,1.8
	c1.9,0,3.2-0.6,4.3-1.7C221.4,160.4,221.7,159.4,221.7,157.6"/>
<polygon fill-rule="evenodd" clip-rule="evenodd" fill="#009148" points="233.8,162.8 233.8,160.1 230,160.1 230,150.6 226.9,150.6 
	226.9,162.8 "/>
<polygon fill-rule="evenodd" clip-rule="evenodd" fill="#009148" points="244.6,153.3 244.6,150.6 236.2,150.6 236.2,153.3 
	238.8,153.3 238.8,162.8 242,162.8 242,153.3 "/>
<path fill-rule="evenodd" clip-rule="evenodd" fill="#009148" d="M259.6,162.8l-4.6-12.2h-3.5l-4.7,12.2h3.4l0.8-2.1h4.4l0.8,2.1
	H259.6z M254.6,158.2h-2.6l1.3-3.9L254.6,158.2z"/>
<path fill-rule="evenodd" clip-rule="evenodd" fill="#009148" d="M274.3,156.7c0-3.3-2.8-6.1-6-6.1h-4.7v12.2h4.7
	C271.5,162.8,274.3,160,274.3,156.7 M271,156.7c0,2.1-1.4,3.4-3.5,3.4h-0.7v-6.8h0.7C269.6,153.2,271,154.6,271,156.7"/>
<path fill-rule="evenodd" clip-rule="evenodd" fill="#009148" d="M296.7,156.7c0-3.3-2.8-6.1-6-6.1H286v12.2h4.7
	C293.9,162.8,296.7,160,296.7,156.7 M293.4,156.7c0,2.1-1.4,3.4-3.5,3.4h-0.7v-6.8h0.7C292,153.2,293.4,154.6,293.4,156.7"/>
<polygon fill-rule="evenodd" clip-rule="evenodd" fill="#009148" points="308.2,162.8 308.2,160.1 304.5,160.1 304.5,158 308,158 
	308,155.3 304.5,155.3 304.5,153.3 308.2,153.3 308.2,150.6 301.3,150.6 301.3,162.8 "/>
<path fill-rule="evenodd" clip-rule="evenodd" fill="#009148" d="M328.8,162.5v-3.8c-0.8,0.9-1.7,1.3-2.7,1.3
	c-1.9,0-3.3-1.4-3.3-3.3c0-2,1.4-3.4,3.3-3.4c1.1,0,2,0.4,2.7,1.3v-3.8c-1.2-0.5-1.9-0.6-2.9-0.6c-3.6,0-6.5,2.9-6.5,6.4
	c0,3.6,2.9,6.4,6.5,6.4C326.8,163.1,327.3,163,328.8,162.5"/>
<rect x="333.3" y="150.6" fill-rule="evenodd" clip-rule="evenodd" fill="#009148" width="3.2" height="12.2"/>
<polygon fill-rule="evenodd" clip-rule="evenodd" fill="#009148" points="348.6,162.8 348.6,160.1 344.8,160.1 344.8,158 348.4,158 
	348.4,155.3 344.8,155.3 344.8,153.3 348.6,153.3 348.6,150.6 341.6,150.6 341.6,162.8 "/>
<polygon fill-rule="evenodd" clip-rule="evenodd" fill="#009148" points="365.3,162.8 365.3,150.6 362.1,150.6 362.1,158 
	356.3,150.6 353.1,150.6 353.1,162.8 356.3,162.8 356.3,155.3 362.1,162.8 "/>
<path fill-rule="evenodd" clip-rule="evenodd" fill="#009148" d="M379.4,162.5v-3.8c-0.8,0.9-1.7,1.3-2.7,1.3
	c-1.9,0-3.3-1.4-3.3-3.3c0-2,1.4-3.4,3.3-3.4c1.1,0,2,0.4,2.7,1.3v-3.8c-1.2-0.5-1.9-0.6-2.9-0.6c-3.6,0-6.5,2.9-6.5,6.4
	c0,3.6,2.9,6.4,6.5,6.4C377.4,163.1,377.9,163,379.4,162.5"/>
<rect x="384" y="150.6" fill-rule="evenodd" clip-rule="evenodd" fill="#009148" width="3.2" height="12.2"/>
<path fill-rule="evenodd" clip-rule="evenodd" fill="#009148" d="M403.9,162.8l-4.6-12.2h-3.5l-4.7,12.2h3.4l0.8-2.1h4.4l0.8,2.1
	H403.9z M398.8,158.2h-2.6l1.3-3.9L398.8,158.2z"/>
<path fill-rule="evenodd" clip-rule="evenodd" fill="#009148" d="M416.3,158.7c0-1.8-0.9-2.8-3-3.4c-1.1-0.3-1.2-0.4-1.4-0.4
	c-0.5-0.3-0.8-0.6-0.8-1c0-0.6,0.6-1,1.4-1c0.7,0,1.4,0.3,2.1,0.8l1.3-2.5c-1.2-0.6-2.6-1-3.9-1c-2.5,0-4.2,1.7-4.2,4.1
	c0,1.1,0.3,1.8,0.9,2.4c0.5,0.4,1,0.6,2.4,1c1.5,0.4,1.9,0.8,1.9,1.4c0,0.7-0.6,1.2-1.5,1.2c-0.9,0-1.8-0.4-2.8-1.2l-1.4,2.6
	c1.3,0.9,2.8,1.4,4.2,1.4C414.5,163.1,416.3,161.5,416.3,158.7"/>
<polygon fill-rule="evenodd" clip-rule="evenodd" fill="#009148" points="438.9,162.8 438.9,150.6 435.8,150.6 435.8,155.3 
	431.2,155.3 431.2,150.6 428,150.6 428,162.8 431.2,162.8 431.2,157.8 435.8,157.8 435.8,162.8 "/>
<path fill-rule="evenodd" clip-rule="evenodd" fill="#009148" d="M454.7,157.6v-7h-3.2v6.6c0,1.3-0.1,1.6-0.3,2.1
	c-0.3,0.6-1,1-1.9,1c-0.8,0-1.4-0.3-1.8-0.9c-0.3-0.5-0.3-0.8-0.3-2.2v-6.6h-3.2v7c0,1.8,0.2,2.8,0.9,3.7c0.8,1.1,2.5,1.8,4.3,1.8
	c1.9,0,3.2-0.6,4.3-1.7C454.4,160.4,454.7,159.4,454.7,157.6"/>
<polygon fill-rule="evenodd" clip-rule="evenodd" fill="#009148" points="474.6,162.8 472.7,150.6 469.6,150.6 466.9,157.1 
	464.5,150.6 461.3,150.6 459.3,162.8 462.4,162.8 463.5,155.7 466.3,162.8 467.6,162.8 470.5,155.7 471.4,162.8 "/>
<path fill-rule="evenodd" clip-rule="evenodd" fill="#009148" d="M490.7,162.8l-4.6-12.2h-3.5l-4.7,12.2h3.4l0.8-2.1h4.4l0.8,2.1
	H490.7z M485.7,158.2h-2.6l1.3-3.9L485.7,158.2z"/>
<polygon fill-rule="evenodd" clip-rule="evenodd" fill="#009148" points="506.9,162.8 506.9,150.6 503.7,150.6 503.7,158 
	497.9,150.6 494.7,150.6 494.7,162.8 497.9,162.8 497.9,155.3 503.7,162.8 "/>
<path fill-rule="evenodd" clip-rule="evenodd" fill="#009148" d="M523.6,162.8l-4.6-12.2h-3.5l-4.7,12.2h3.4l0.8-2.1h4.4l0.8,2.1
	H523.6z M518.6,158.2H516l1.3-3.9L518.6,158.2z"/>
<path fill-rule="evenodd" clip-rule="evenodd" fill="#009148" d="M536.1,158.7c0-1.8-0.9-2.8-3-3.4c-1.1-0.3-1.2-0.4-1.4-0.4
	c-0.5-0.3-0.8-0.6-0.8-1c0-0.6,0.6-1,1.4-1c0.7,0,1.4,0.3,2.1,0.8l1.3-2.5c-1.2-0.6-2.6-1-3.9-1c-2.5,0-4.2,1.7-4.2,4.1
	c0,1.1,0.3,1.8,0.9,2.4c0.5,0.4,1,0.6,2.4,1c1.5,0.4,1.9,0.8,1.9,1.4c0,0.7-0.6,1.2-1.5,1.2c-0.9,0-1.8-0.4-2.8-1.2l-1.4,2.6
	c1.3,0.9,2.8,1.4,4.2,1.4C534.3,163.1,536.1,161.5,536.1,158.7"/>
<path fill-rule="evenodd" clip-rule="evenodd" fill="#009148" d="M558.4,157.6v-7h-3.2v6.6c0,1.3-0.1,1.6-0.3,2.1
	c-0.3,0.6-1,1-1.9,1c-0.8,0-1.4-0.3-1.8-0.9c-0.3-0.5-0.3-0.8-0.3-2.2v-6.6h-3.2v7c0,1.8,0.2,2.8,0.9,3.7c0.8,1.1,2.5,1.8,4.3,1.8
	c1.8,0,3.2-0.6,4.3-1.7C558.1,160.4,558.4,159.4,558.4,157.6"/>
<path fill-rule="evenodd" clip-rule="evenodd" fill="#009148" d="M574.7,162.8l-4.6-12.2h-3.5l-4.7,12.2h3.4l0.8-2.1h4.4l0.8,2.1
	H574.7z M569.7,158.2h-2.6l1.3-3.9L569.7,158.2z"/>
<path fill-rule="evenodd" clip-rule="evenodd" fill="#009148" d="M588,159.3c0-1.7-0.8-2.7-2.5-3c1-0.6,1.3-1.3,1.3-2.5
	c0-2.1-1.2-3.2-3.4-3.2h-4.7v12.2h5.1C586.4,162.8,588,161.5,588,159.3 M583.9,154.2c0,0.8-0.5,1.2-1.5,1.2h-0.6V153h0.6
	C583.4,153,583.9,153.4,583.9,154.2 M584.8,159c0,0.9-0.7,1.3-2.2,1.3h-0.7v-2.6h0.6c1,0,1.3,0,1.7,0.2
	C584.6,158.2,584.8,158.6,584.8,159"/>
<path fill-rule="evenodd" clip-rule="evenodd" fill="#009148" d="M601.4,162.5v-3.8c-0.8,0.9-1.7,1.3-2.7,1.3
	c-1.9,0-3.3-1.4-3.3-3.3c0-2,1.4-3.4,3.3-3.4c1.1,0,2,0.4,2.7,1.3v-3.8c-1.2-0.5-1.9-0.6-2.9-0.6c-3.6,0-6.5,2.9-6.5,6.4
	c0,3.6,2.9,6.4,6.5,6.4C599.4,163.1,599.9,163,601.4,162.5"/>
<rect y="66.6" fill="#D1BE16" width="28.2" height="28.2"/>
</svg>
