<?xml version="1.0" encoding="utf-8"?>
<!-- Generator: Adobe Illustrator 17.1.0, SVG Export Plug-In . SVG Version: 6.00 Build 0)  -->
<!DOCTYPE svg PUBLIC "-//W3C//DTD SVG 1.1//EN" "http://www.w3.org/Graphics/SVG/1.1/DTD/svg11.dtd">
<svg version="1.1" id="Layer_1" xmlns="http://www.w3.org/2000/svg" xmlns:xlink="http://www.w3.org/1999/xlink" x="0px" y="0px"
	 viewBox="0 0 960 560" enable-background="new 0 0 960 560" xml:space="preserve">
<path fill="#404041" d="M590.5,332.9c23.3-34,37-75.1,37.3-119.2C627.9,95.6,532.3,0,414.2,0S200.5,95.6,200.5,213.7
	c0,117.2,95.6,212.8,213.7,212.8c40.6,0,78.6-11.5,111-31.4L697,559.7l62.4-65.1L590.5,332.9z M414.2,337.3
	c-68.5,0-123.5-55-123.5-123.5s55-123.5,123.5-123.5c67.6,0,123.5,55,123.5,123.5S481.8,337.3,414.2,337.3z"/>
</svg>
