<?xml version="1.0" encoding="utf-8"?>
<!-- Generator: Adobe Illustrator 17.1.0, SVG Export Plug-In . SVG Version: 6.00 Build 0)  -->
<!DOCTYPE svg PUBLIC "-//W3C//DTD SVG 1.1//EN" "http://www.w3.org/Graphics/SVG/1.1/DTD/svg11.dtd">
<svg version="1.1" id="Layer_1" xmlns="http://www.w3.org/2000/svg" xmlns:xlink="http://www.w3.org/1999/xlink" x="0px" y="0px"
	 viewBox="0 0 155 155" enable-background="new 0 0 155 155" xml:space="preserve">
<path fill="#E2E2E2" d="M155,77.5c0,42.8-34.7,77.5-77.5,77.5S0,120.3,0,77.5S34.7,0,77.5,0S155,34.7,155,77.5"/>
<path fill="#404041" d="M79.2,117.3H20v-80h59.2V117.3z M23.4,113.7h52.4V40.9H23.4V113.7z"/>
<path fill="#404041" d="M135,117.3H75.8v-80H135V117.3z M79.2,113.7h52.4V40.9H79.2V113.7z"/>
<rect x="30.6" y="57.8" fill="#404041" width="36" height="4"/>
<rect x="30.6" y="74.8" fill="#404041" width="36" height="4"/>
<rect x="30.6" y="90.8" fill="#404041" width="36" height="4"/>
<rect x="87.6" y="57.8" fill="#404041" width="36" height="4"/>
<rect x="87.6" y="74.8" fill="#404041" width="36" height="4"/>
<rect x="87.6" y="90.8" fill="#404041" width="36" height="4"/>
</svg>
