<?xml version="1.0" encoding="utf-8"?>
<!-- Generator: Adobe Illustrator 17.1.0, SVG Export Plug-In . SVG Version: 6.00 Build 0)  -->
<!DOCTYPE svg PUBLIC "-//W3C//DTD SVG 1.1//EN" "http://www.w3.org/Graphics/SVG/1.1/DTD/svg11.dtd">
<svg version="1.1" id="Layer_1" xmlns="http://www.w3.org/2000/svg" xmlns:xlink="http://www.w3.org/1999/xlink" x="0px" y="0px"
	 viewBox="0 0 155 155" enable-background="new 0 0 155 155" xml:space="preserve">
<path fill="#E2E2E2" d="M155,77.5c0,42.8-34.7,77.5-77.5,77.5S0,120.3,0,77.5S34.7,0,77.5,0S155,34.7,155,77.5"/>
<path fill="#404041" d="M79.3,113.9c-7.2,0-13.6-1.5-19.2-4.4c-5.6-2.9-9.9-7.1-13.1-12.5c-3.1-5.4-4.7-11.7-4.7-18.8
	c0-5.1,0.9-9.9,2.8-14.4c1.9-4.5,4.4-8.4,7.7-11.6c3.3-3.2,7.2-5.7,11.8-7.6c4.6-1.8,9.5-2.8,14.7-2.8c6.2,0,11.8,1.3,16.9,3.9
	c5,2.6,9,6.3,11.9,11.1c2.9,4.8,4.4,10.2,4.4,16.3c0,3.5-0.6,6.8-1.7,9.9c-1.1,3.1-2.6,5.7-4.4,7.8c-1.8,2.1-3.9,3.8-6.3,5
	c-2.4,1.2-4.8,1.8-7.4,1.8c-2.5,0-4.5-0.8-6-2.4c-1.5-1.6-2.3-4.1-2.3-7.4c-1.1,2.7-2.7,4.9-4.8,6.6c-2.1,1.7-4.3,2.6-6.8,2.6
	c-4.1,0-7.4-1.3-9.7-3.9c-2.3-2.6-3.5-6.1-3.5-10.4c0-4.3,0.9-8.3,2.6-12c1.8-3.7,4.3-6.7,7.5-8.9c3.3-2.2,6.9-3.4,10.9-3.4
	c4.1,0,8.9,1,14.2,2.9c-0.4,2-1,5.1-1.9,9.3c-0.9,4.1-1.6,7.6-2.1,10.3c-0.5,2.8-0.7,4.9-0.7,6.4s0.3,2.6,0.8,3.1
	c0.6,0.6,1.4,0.9,2.7,0.9c2.1,0,4-0.9,5.9-2.7c1.8-1.8,3.3-4.1,4.3-6.9c1-2.8,1.6-5.6,1.6-8.5c0-4.9-1.1-9.2-3.4-13
	c-2.3-3.8-5.4-6.7-9.4-8.7c-4-2-8.5-3-13.5-3c-4,0-7.8,0.7-11.1,2c-3.4,1.3-6.2,3.1-8.4,5.2c-2.2,2.1-4.1,4.5-5.7,7.3
	c-1.6,2.7-2.7,5.4-3.4,8.1s-1,5.3-1,7.8c0,4.5,0.8,8.7,2.3,12.3c1.6,3.7,3.7,6.7,6.4,9.1c2.7,2.4,5.8,4.2,9.4,5.4
	c3.5,1.3,7.3,1.9,11.4,1.9c8.8,0,16.3-2.3,22.5-6.9l2.5,4.8C97.3,111,89,113.9,79.3,113.9 M73.1,90.7c5.7,0,9.9-6.5,12.4-19.6
	c0.4-1.9,0.7-4.2,1.1-6.8c-1.6-0.3-3.3-0.5-5.1-0.5c-2.5,0-4.9,0.9-7,2.7c-2.2,1.8-3.8,4.1-5,6.9c-1.2,2.8-1.8,5.6-1.8,8.5
	c0,2.5,0.4,4.6,1.3,6.2C69.9,89.8,71.3,90.7,73.1,90.7"/>
</svg>
