<?xml version="1.0" encoding="utf-8"?>
<svg version="1.1" viewBox="-228 319 155 155" xml:space="preserve">
<path fill="#E2E2E2" class="fondo" d="M-73,396.5c0,42.8-34.7,77.5-77.5,77.5s-77.5-34.7-77.5-77.5s34.7-77.5,77.5-77.5S-73,353.7-73,396.5"/>
<path fill="#44773B" d="M-121.2,350.2c-1.6-0.2-3-0.5-4.3-0.7c-4.8-0.8-8.3-1.4-15.9-1.4c-12.3,0-41,4-41,41.1c0,13.6,9,27.3,29.1,27.3
	c9.6,0,17-2.8,22.2-8.3c-0.1,1.8-0.2,3.8-0.4,6.7l0,0.4c-0.6,7.6-0.8,9.4-3.7,13.8c-5.9,9-26.2,6.8-38.7,2.3l-3.8-1.4l0,4.1
	c0,1,0.1,1.8,0.2,2.5c0.1,0.7,0.2,1.4,0.1,2.1l-0.2,2.3l2.3,0.7c6.7,1.9,14.7,3,22,3c5.8,0,10.9-0.7,14.8-2.1
	c5.7-2,9.9-5.3,12.7-9.9c2.6-4.5,3.3-6.6,4-13.2c0.8-7.1,0.8-11.3,0.8-16.3c0-3.4,0-7.3,0.3-12.7c0.2-3.9,0.4-7.8,0.6-11.6
	c0.4-9.1,0.8-17.6,1.6-25.8l0.3-2.8L-121.2,350.2z M-129.4,358.3c-0.1,2.6-0.1,5.2-0.1,7.8c-0.1,9.9-0.2,19.2-2.8,26.3
	c-3.7,10.4-10.2,15.1-21,15.1c-2.5,0-8.8-0.4-13.4-4.9c-3.6-3.6-5.4-9-5.4-16.2c0-6.8,2.2-29.1,30.7-29.1
	C-137.4,357.3-133.2,357.7-129.4,358.3z"/>
</svg>
