<?xml version="1.0" encoding="utf-8"?>
<!-- Generator: Adobe Illustrator 17.1.0, SVG Export Plug-In . SVG Version: 6.00 Build 0)  -->
<!DOCTYPE svg PUBLIC "-//W3C//DTD SVG 1.1//EN" "http://www.w3.org/Graphics/SVG/1.1/DTD/svg11.dtd">
<svg version="1.1" id="Layer_1" xmlns="http://www.w3.org/2000/svg" xmlns:xlink="http://www.w3.org/1999/xlink" x="0px" y="0px"
	 viewBox="200 0 560 560" enable-background="new 200 0 560 560" xml:space="preserve">
<path fill="#E2E2E2" d="M760,280c0,154.6-125.4,280-280,280S200,434.6,200,280S325.4,0,480,0S760,125.4,760,280"/>
<g>
	<g>
		<polygon class="fondo" fill="#FFA400" points="590.5,209.9 543.6,210.1 564.3,216.4 566.4,353.9 314.7,368.7 313.5,191.8 356.7,195.8 
			357.2,172.4 428.6,165.1 273,142.2 273,417.8 590.5,377.1 		"/>
	</g>
	<g>
		<polygon fill="#007934" points="369.3,350.1 416.2,349.8 395.4,343.6 393.6,206.1 644.9,191.3 646.3,368.5 603.2,364.2 
			602.5,387.8 531.4,394.8 687,417.8 687,142.2 369.3,182.9 		"/>
	</g>
	<path fill="#B21E28" d="M525.6,275.4c-1-1.5-2-2.3-3.1-2.7l-65.8-38.2c-3.1-1.8-6.6-1-8.6,1.8c-1.2,1.5-1.8,3.5-1.8,5.5v76.4
		c0,2.3,0.5,4.3,1.8,5.5c1.5,1.5,3.1,2.5,5,2.5c1.5,0,2.5-0.2,3.1-0.8l66.1-38c1-0.5,2.3-1.8,3.1-3.1c1-1.5,1.5-3.1,1.5-4.7
		C527.1,278.2,526.6,276.7,525.6,275.4z"/>
</g>
</svg>
