<?xml version="1.0" encoding="utf-8"?>
<!-- Generator: Adobe Illustrator 17.1.0, SVG Export Plug-In . SVG Version: 6.00 Build 0)  -->
<!DOCTYPE svg PUBLIC "-//W3C//DTD SVG 1.1//EN" "http://www.w3.org/Graphics/SVG/1.1/DTD/svg11.dtd">
<svg version="1.1" id="Layer_1" xmlns="http://www.w3.org/2000/svg" xmlns:xlink="http://www.w3.org/1999/xlink" x="0px" y="0px"
	 viewBox="0 0 155 155" enable-background="new 0 0 155 155" xml:space="preserve">
<path fill="#E2E2E2" d="M155,77.5c0,42.8-34.7,77.5-77.5,77.5S0,120.3,0,77.5S34.7,0,77.5,0S155,34.7,155,77.5"/>
<path fill="#404041" d="M91,109.3c6.1-1.1,11.9-3.4,17.1-6.7l-2.3-3.5c-1.3,0.9-2.6,1.7-4,2.4l-2.6-1.8l-0.2,3.2
	c-2.8,1.2-5.7,2.2-8.7,2.8c-3.1,0.7-6.4,1-9.6,0.9c-2.5-0.2-4.9-0.6-7.3-1.2c-11-2.7-20.6-10.1-25.5-20.1c-2.5-5-3.9-10.5-4-16
	c-0.2-5.6,1-11.2,3.1-16.4c1-2.3,2.1-4.5,3.5-6.6c1.9-2.6,4-5,6.4-7.1c2.8-2.4,5.9-4.5,9.1-6.2l2.1,1.4l0.4-2.6c1-0.4,2-0.8,3-1.2
	l-0.7-2l-0.7-2C64.3,29,59,32.3,54.5,36.5c-2.5,2.3-4.7,5-6.6,7.8c-1.7,2.2-3.1,4.6-4.3,7c-2.8,5.6-4.2,11.8-4.3,18.1
	c-0.1,6.3,1.4,12.6,4.3,18.2c2.9,5.6,7,10.6,12.1,14.3c5.1,3.7,10.9,6.3,17,7.4c1.8,0.4,3.7,0.6,5.5,0.7v13.7H65.3v4.7h33.9v-4.7
	h-13v-13.6C87.8,109.8,89.4,109.6,91,109.3"/>
<path fill="#404041" d="M116.9,67.9c0,18.6-15.1,33.7-33.7,33.7c-18.6,0-33.7-15.1-33.7-33.7s15.1-33.7,33.7-33.7
	C101.8,34.3,116.9,49.3,116.9,67.9"/>
<path fill="#E2E2E2" d="M54.4,50.5c-0.2,0.6-0.4,1.2,0.1,1.6c0.4,0.4,1.1,0.6,1.6,0.8c2.3,1,3.4,3.6,3.7,6.1c0.2,2.5-0.2,5,0,7.4
	c0.2,3.4,1.6,6.7,3.8,9.3c0.6,0,1-0.8,0.9-1.4c-0.1-0.6-0.6-1.1-0.9-1.6c-1.1-1.6-1.5-3.7-1-5.5c1.6-0.5,3.8-0.9,4.7,0.6
	c0.3,0.5,0.3,1.1,0.5,1.6c0.5,1.2,1.8,2,3.1,2.3c3.7,0.8,7.7-2.1,8.3-5.8c1.4-0.5,2.5,1.4,3.8,1.9c0.9,0.4,1.9,0.2,2.8,0.4
	c2.3,0.7,2.9,3.7,2.4,6.1c-0.4,2.3-1.5,4.8-0.7,7c0.6,1.7,2.1,3,3.5,4.2c3.9,3.2,7.8,6.4,11.8,9.6c0.8-3.5,1.7-6.9,2.5-10.4
	c0.3-1.2,0.6-2.6,0-3.7c-0.3-0.6-0.8-1-1.1-1.5c-1.1-2.3,1.8-4.7,1.9-7.3c0.1-2.9-3.4-4.5-6.3-4.7s-6.2,0-8.3-1.9
	c-0.4-0.4-0.7-0.8-1.2-1.1c-1.1-0.7-2.7-0.1-3.9-0.6c-1.3-0.5-1.9-2-2.7-3.2c-0.8-1.2-2.6-2.1-3.6-1c0.3,3.1-2.9,6-6,5.5
	c-1.3-0.2-2.6-1.4-2.1-2.6c0.4-1.1,2-1.2,3.2-1c0.6-0.8,0.9-1.7,0.8-2.6c0.9,0.8,1.6,1.9,1.9,3.1c0.5-4.2,0.1-8.5-1.3-12.4
	c-0.4-1.1-0.9-2.2-2-2.6c1-1.9,3.9-1.6,5.7-2.8c1.5-1.1,1.9-3.2,1.4-4.9c-0.5-1.8-1.6-3.3-2.7-4.7c0,0-6.1-0.5-15.6,6.1
	C63.3,40.7,56.3,45.9,54.4,50.5"/>
</svg>
