<?xml version="1.0" encoding="utf-8"?>
<!-- Generator: Adobe Illustrator 17.1.0, SVG Export Plug-In . SVG Version: 6.00 Build 0)  -->
<!DOCTYPE svg PUBLIC "-//W3C//DTD SVG 1.1//EN" "http://www.w3.org/Graphics/SVG/1.1/DTD/svg11.dtd">
<svg version="1.1" id="Layer_1" xmlns="http://www.w3.org/2000/svg" xmlns:xlink="http://www.w3.org/1999/xlink" x="0px" y="0px"
	 viewBox="0 0 155 155" enable-background="new 0 0 155 155" xml:space="preserve">
<path fill="#E2E2E2" d="M155,77.5c0,42.8-34.7,77.5-77.5,77.5S0,120.3,0,77.5S34.7,0,77.5,0S155,34.7,155,77.5"/>
<polygon fill="#404041" points="19.6,110.2 19.6,44.5 33.9,44.5 53.8,92 73.8,44.5 88,44.5 88,110.2 76.7,110.2 76.7,77.8 
	77.1,59.2 75.4,64.1 58.6,105.8 48.2,105.8 31.8,63.9 30.1,58.9 30.5,77.9 30.5,110.2 "/>
<polygon fill="#404041" points="95.1,110.2 95.1,44.5 135,44.5 134.5,54.2 107.3,54.2 107.3,71.1 133.1,71.1 133.1,80.8 107.3,80.8 
	107.3,100.6 135.4,100.6 135,110.2 "/>
</svg>
