<?xml version="1.0" encoding="utf-8"?>
<!-- Generator: Adobe Illustrator 17.1.0, SVG Export Plug-In . SVG Version: 6.00 Build 0)  -->
<!DOCTYPE svg PUBLIC "-//W3C//DTD SVG 1.1//EN" "http://www.w3.org/Graphics/SVG/1.1/DTD/svg11.dtd">
<svg version="1.1" id="Layer_1" xmlns="http://www.w3.org/2000/svg" xmlns:xlink="http://www.w3.org/1999/xlink" x="0px" y="0px"
	 viewBox="0 0 155 155" enable-background="new 0 0 155 155" xml:space="preserve">
<path fill="#E2E2E2" d="M155,77.5c0,42.8-34.7,77.5-77.5,77.5S0,120.3,0,77.5S34.7,0,77.5,0S155,34.7,155,77.5"/>
<polygon fill="#404041" points="43.6,110.3 43.6,55.1 60.6,51.8 77.9,92.1 97.9,44.6 112,44.6 112,110.3 100.8,110.3 100.8,77.8 
	101.2,59.2 99.5,64.2 82.7,105.8 72.3,105.8 55.8,63.9 54.2,59 54.6,78 54.6,110.3 "/>
<path fill="#404041" d="M38.5,45.6v5.7h0c0,0,0,0,0,0C38.5,56.1,45,60,53,60s14.5-3.9,14.5-8.6c0,0,0,0,0,0h0v-5.7L53,51L38.5,45.6z
	"/>
<path fill="#404041" d="M53,27.2L24.4,37.9l9.3,3.5V45c-0.4,0.2-0.7,0.6-0.7,1.2c0,0.4,0.2,0.7,0.4,1v2.6h0.2l-1.2,10.7
	c0,0,0,0.1,0,0.1c0.1,0.6,0.9,2.2,1.9,2.2c1,0,1.8-1.8,1.7-2.3l-1.1-10.7h0.2v-2.6c0.3-0.2,0.4-0.6,0.4-1c0-0.5-0.3-1-0.7-1.2v-3.2
	l3.6,1.4L53,48.6l14.5-5.4l14.1-5.3L53,27.2z"/>
</svg>
