<?xml version="1.0" encoding="utf-8"?>
<!-- Generator: Adobe Illustrator 17.1.0, SVG Export Plug-In . SVG Version: 6.00 Build 0)  -->
<!DOCTYPE svg PUBLIC "-//W3C//DTD SVG 1.1//EN" "http://www.w3.org/Graphics/SVG/1.1/DTD/svg11.dtd">
<svg version="1.1" id="Layer_1" xmlns="http://www.w3.org/2000/svg" xmlns:xlink="http://www.w3.org/1999/xlink" x="0px" y="0px"
	 viewBox="0 0 155 155" enable-background="new 0 0 155 155" xml:space="preserve">
<path fill="#E2E2E2" d="M155,77.5c0,42.8-34.7,77.5-77.5,77.5S0,120.3,0,77.5S34.7,0,77.5,0S155,34.7,155,77.5"/>
<path fill="#007934" d="M26.8,96.2c-0.1-0.3,4.1-2,4.6-2.1c1.8-0.1,3.3-0.3,1,1c-1.1,0.6-2.8,2-2.4,1.8c0.4-0.2,0.8,0.2,1.1,0.1
	c2.4-0.9,4.9-3.4,4.9-3.4s-1.5,0.6,0,2.4c1.5,1.8-1.2,1.2,0.3,3c1.5,1.8,2.7-0.6,2.7-0.6v2.4l2.7-1.2c0,0-1.8,3-0.9,3.8
	c0.9,0.9,3.8-4.7,3.8-4.7l1.5-2.1c0,0,1.2-0.9,3.8,0c2.7,0.9,5.9,0.3,5.9,0.3l3-1.2c0,0,2.4,2.1,3.8,0.6s3.8,13.9,3.8,13.9l2.7,2.7
	l-0.3-2.7l1.2,1.8l0.9-1.8l0.9,1.5l1.5-0.6l1.8,0.9c0,0,0.3-4.7-0.9-6.8c-1.2-2.1,1.2-0.6,1.8,2.1c0.6,2.7,0.3-3,0.3-3
	s1.2,0.3,2.7,2.7c1.5,2.4-0.6-6.5-0.6-6.5l2.1-1.2c0,0,3.5,0.9,6.8,0c3.3-0.9,7.7-3.5,7.7-3.5s3.3,1.2,4.7,3.5
	c1.5,2.4,13.6,7.7,16,8c2.4,0.3,11.5,0,13.6-1.2c2.1-1.2,6.5-4.7,6.5-4.7s-11.5,5.3-17.7,4.1c-6.2-1.2,6.2-1.5,6.2-1.5
	s6.5-0.6,8.3-1.8c1.8-1.2,5.6-4.1,5.6-4.1l2.1-2.1c0,0,3-0.6,4.4-3c1.5-2.4-0.6-4.1-0.6-4.1s0.6-0.6,0.6-3c0-2.4-2.1-3.5-2.1-3.5
	s1.2-3.5-1.5-1.8c-2.7,1.8-8.3,4.7-8.3,4.7s-12.7,3-14.8,1.5c-2.1-1.5-6.5-1.2-6.5-3.8c0-2.7,2.1-9.8,6.2-14.5
	c4.1-4.7,10.6-8.9,10.6-8.9s-1.8-1.5-3.5-0.9c-1.8,0.6-1.8-0.9-0.6-3c1.2-2.1,3.3-1.8,1.2-4.4c-2.1-2.7-4.7-0.6-4.7-0.6
	s-2.4,1.8-4.1,1.8c-1.8,0-7.4,5-7.4,5l-5,4.7c0,0,0.6-3.2,0.3-6.2c-0.3-3-2.7-6.5-2.7-6.5s-1.2-5.3-5.6-6.2
	c-4.4-0.9-8.6,0.6-9.7,2.1c-1.2,1.5-6.5,3.3-6.5,3.3l-0.6,1.8l-1.8-0.3l-0.9,1.5H75l-0.9,1.5l-1.5,16c0,0-2.1-16.3-2.1-18.3
	s-2.1-4.4-2.1-4.4l0.3-1.8L67,45.3L66.1,42l-2.1,1.5l-1.5-0.6c0,0-0.3,0.5-0.9,0.5c-0.6,0-0.8,0.9-0.8,0.9L60.2,45
	c0,0-0.3,2.4-0.9,2.4c-0.7,0-0.8-1-0.8-1s-0.4,0.2-0.6-0.5c-0.2-0.7-0.9,0-0.9,0s-0.4,1.3-1.1,1.3c-0.7,0-2.2-0.1-2.2,0.9
	c0,0.9-0.9,2.7-1.4,2.1S52,52,52,52s-2.4-0.3-2.1-2.1c0.3-1.8-0.3-3.3-0.8-4.1c-0.5-0.8-1.5-1.4-1.5-1.4l-1-1.3l-1,2.3
	c0,0-1.5,0-1.2,0.9c0.3,0.9,0.8,1.1,0.3,1.5c-0.4,0.4-1.5-0.7-1.5-0.7S43,47,42.9,46.5c-0.2-0.5-0.9-1-0.9-1s-1.1,1-1.1,2.1
	c0,1.1-0.7,0.3-2.3,0.3c-1.6,0-1.9,1.5-1.9,1.5s-1.3,0.8-1,1.8s-0.9,0.8-0.9,0.8s-0.3,0.9,0.3,1.5c0.7,0.7,0.1,8.7-0.2,11.3
	c-0.3,2.7-3,13.3-5.3,13.9c-2.4,0.6-5.3-3.3-5.3-6.5s0.3-8.9,1.5-10.6c1.2-1.8,2.7-7.7,2.7-7.7l-0.7-1.1l-1.2,2.3
	c0,0-0.6,0.8-0.6-0.6c0-1.4,0.1-2.7,0.3-4.2c0.2-1.5,0-1.4-0.6-2.6c-0.6-1.2-0.9-2.5-0.9-2.5s-1.2,1-1.9,1c-0.7,0-2.1,2.9-2.1,2.9
	s-1.3-0.5-1.6-1.1c-0.2-0.6-0.3-0.2-0.9,0.2c-0.6,0.5-2.1,0.6-2.1,0.6s-7.7,18.9-5.9,31.9C12.1,93.8,23,98,23,98s1,0.9,2.2,0.9
	c0.1,0,1.5-1.1,1.5,0.3c0.5,0,1-0.1,1.1-0.8c1.2-0.3,2.3-0.6,2.1-1.1c-1.6,0.7-5.5,1-5.4-0.6c0-0.4,2.3-0.2,2.3-0.1
	C27.1,96.9,26.5,96.4,26.8,96.2 M21.6,95c0,0,0.4-0.2,0.9,0.3c0.5,0.4,0.5,0.7,0.1,0.7C22.1,95.9,21.4,95.6,21.6,95"/>
<path fill="#FFFFFF" d="M35.6,62.3h11.2v0.6h-0.6c-0.8,0-1.4,0.1-1.7,0.3c-0.3,0.2-0.5,0.4-0.7,0.7c-0.1,0.3-0.2,1.1-0.2,2.3v10.4
	c0,1.9,0.1,3.2,0.4,3.8c0.3,0.6,0.8,1.1,1.4,1.5c0.7,0.4,1.5,0.6,2.5,0.6c1.2,0,2.2-0.3,3-0.8c0.8-0.5,1.4-1.2,1.9-2.1
	c0.4-0.9,0.6-2.5,0.6-4.7v-8.6c0-0.9-0.1-1.6-0.3-2c-0.2-0.4-0.5-0.7-0.8-0.8c-0.5-0.2-1.2-0.4-2-0.4v-0.6h7.5v0.6h-0.5
	c-0.6,0-1.1,0.1-1.5,0.4c-0.4,0.2-0.7,0.6-0.9,1.1c-0.1,0.3-0.2,0.9-0.2,1.8v8.1c0,2.5-0.2,4.3-0.5,5.4c-0.3,1.1-1.1,2.1-2.4,3
	c-1.3,0.9-3.1,1.4-5.3,1.4c-1.9,0-3.3-0.2-4.3-0.7c-1.4-0.7-2.4-1.5-3-2.6c-0.6-1-0.9-2.4-0.9-4.2V66.1c0-1.2-0.1-2-0.2-2.3
	c-0.1-0.3-0.4-0.5-0.7-0.7c-0.3-0.2-1-0.3-1.9-0.2V62.3z M68.8,77.8h-7.6l-0.9,2.1c-0.3,0.7-0.4,1.3-0.4,1.7c0,0.6,0.2,1,0.7,1.3
	c0.3,0.2,1,0.3,2.1,0.4v0.6h-7.2v-0.6c0.8-0.1,1.4-0.4,1.9-0.9c0.5-0.5,1.1-1.6,1.8-3.2L67,62.2h0.3l7.8,17.4
	c0.7,1.6,1.4,2.7,1.8,3.1c0.4,0.3,0.9,0.5,1.5,0.6v0.6H68v-0.6h0.4c0.8,0,1.4-0.1,1.8-0.3c0.2-0.2,0.4-0.4,0.4-0.7
	c0-0.2,0-0.4-0.1-0.6c0-0.1-0.2-0.5-0.5-1.2L68.8,77.8z M68.3,76.6l-3.2-7.3l-3.3,7.3H68.3z M92.1,72.6c2,0.5,3.4,1,4.2,1.7
	c1.2,0.9,1.7,2.2,1.7,3.7c0,1.6-0.6,2.9-1.9,4c-1.6,1.3-3.8,1.9-6.8,1.9H78.7v-0.6c1,0,1.6-0.1,2-0.3c0.3-0.2,0.6-0.4,0.7-0.7
	c0.1-0.3,0.2-1,0.2-2.2V66.3c0-1.1-0.1-1.9-0.2-2.2c-0.1-0.3-0.4-0.5-0.7-0.7c-0.3-0.2-1-0.3-2-0.3v-0.6h10.1c2.4,0,4.1,0.2,5.1,0.6
	c1,0.4,1.8,1.1,2.4,1.9c0.6,0.9,0.9,1.8,0.9,2.7c0,1-0.4,1.9-1.1,2.7C95.3,71.5,94,72.1,92.1,72.6 M86.5,72.1c1.5,0,2.6-0.2,3.3-0.5
	c0.7-0.3,1.2-0.8,1.6-1.4c0.4-0.6,0.6-1.4,0.6-2.3c0-0.9-0.2-1.7-0.6-2.3c-0.4-0.6-0.9-1.1-1.6-1.4c-0.7-0.3-1.8-0.5-3.3-0.5V72.1z
	 M86.5,73.4v6.8l0,0.8c0,0.6,0.1,1,0.4,1.3c0.3,0.3,0.7,0.4,1.3,0.4c0.8,0,1.6-0.2,2.3-0.6c0.7-0.4,1.2-0.9,1.6-1.6
	c0.4-0.7,0.6-1.5,0.6-2.4c0-1-0.2-1.9-0.7-2.7c-0.5-0.8-1.1-1.3-1.9-1.6C89.3,73.5,88.1,73.3,86.5,73.4 M119.4,62.1v7.3h-0.6
	c-0.4-1.9-1.3-3.4-2.4-4.4c-1.2-1-2.5-1.5-4.1-1.5c-1.3,0-2.4,0.4-3.5,1.1c-1.1,0.8-1.8,1.8-2.3,3c-0.6,1.6-0.9,3.3-0.9,5.3
	c0,1.9,0.2,3.6,0.7,5.2c0.5,1.6,1.2,2.7,2.1,3.5c1,0.8,2.2,1.2,3.8,1.2c1.3,0,2.4-0.3,3.5-0.9c1.1-0.6,2.2-1.6,3.3-3v1.8
	c-1.1,1.2-2.3,2.1-3.5,2.7c-1.2,0.6-2.7,0.8-4.3,0.8c-2.2,0-4.1-0.5-5.7-1.4c-1.7-0.9-3-2.2-3.9-3.9c-0.9-1.7-1.4-3.5-1.4-5.4
	c0-2,0.5-3.9,1.5-5.8c1-1.8,2.4-3.2,4.1-4.2c1.7-1,3.5-1.5,5.5-1.5c1.4,0,2.9,0.3,4.5,1c0.9,0.4,1.5,0.6,1.7,0.6
	c0.3,0,0.6-0.1,0.8-0.4c0.2-0.2,0.4-0.6,0.5-1.2H119.4z"/>
</svg>
