<?xml version="1.0" encoding="utf-8"?>
<!-- Generator: Adobe Illustrator 17.1.0, SVG Export Plug-In . SVG Version: 6.00 Build 0)  -->
<!DOCTYPE svg PUBLIC "-//W3C//DTD SVG 1.1//EN" "http://www.w3.org/Graphics/SVG/1.1/DTD/svg11.dtd">
<svg version="1.1" id="Layer_1" xmlns="http://www.w3.org/2000/svg" xmlns:xlink="http://www.w3.org/1999/xlink" x="0px" y="0px"
	 viewBox="200 0 560 560" enable-background="new 200 0 560 560" xml:space="preserve">
<path class="fondo" fill="#E2E2E2" d="M760,280c0,154.6-125.4,280-280,280S200,434.6,200,280S325.4,0,480,0S760,125.4,760,280"/>
<linearGradient id="SVGID_1_" gradientUnits="userSpaceOnUse" x1="410.5775" y1="293.3857" x2="529.9506" y2="293.3857">
	<stop  offset="0" style="stop-color:#37B34A"/>
	<stop  offset="0.2095" style="stop-color:#30AA48"/>
	<stop  offset="0.5526" style="stop-color:#1E9142"/>
	<stop  offset="0.9846" style="stop-color:#016A38"/>
	<stop  offset="1" style="stop-color:#006838"/>
</linearGradient>
<path fill="url(#SVGID_1_)" d="M459,229.9c0,0,6.3,51.1-24.2,58.8l-24.3,18c0,0,5.7,13.7,16.6,9.9c19.5-6.8,46.5-30,43.1-9.9
	c0,0-14.8,53,22,52.1c0,0,18.7-8.2,32.8-47.1C538.5,274.3,526.8,217.3,459,229.9z"/>
<g>
	<g>
		<g>
			<path fill="#3F3B3C" d="M425.1,269.2c2.7,5.6,5.8,11,9.3,16.2l0.1,0.2l0.1,0.2c0.1,0.3,0.1,0.4,0.2,0.6c0,0.2,0.1,0.3,0.1,0.5
				c0.1,0.3,0.1,0.7,0.1,1c0.1,0.7,0.1,1.3,0.1,2c0,1.3-0.1,2.6-0.3,3.9c-0.3,2.6-1.1,5-2,7.4c0.9-2.4,1.6-4.8,2-7.3
				c0.2-1.3,0.3-2.6,0.3-3.9c0-0.7,0-1.3-0.1-2c0-0.3-0.1-0.7-0.1-1c-0.1-0.4-0.1-0.7-0.3-1.1l-0.1-0.2l-0.1-0.2
				c-6.3-9.5-11.8-19.8-14.6-30.8c-0.7-2.8-1.2-5.5-1.5-8.3c-0.2-1.4-0.2-2.8-0.3-4.2c0-1.4,0-2.8,0.1-4.2
				c0.4-5.6,1.9-11.1,4.5-16.1c2.6-5,6.3-9.4,10.6-13.1c4.3-3.7,9.2-6.8,14.3-9.3c10.4-5,21.7-7.9,33.2-9.3
				c11.5-1.3,23.3-1.2,34.6,1.2l2.1,0.5l2.1,0.5l2.1,0.6c0.6,0.2,1.3,0.5,1.9,0.7l2,0.7c0.6,0.3,1.3,0.6,1.9,0.9l1.9,1
				c0.6,0.3,1.2,0.8,1.8,1.1c4.7,3.1,8.9,7.1,12.4,11.5c3.6,4.5,6.5,9.5,8.9,14.7c2.4,5.2,4.5,10.6,6,16.2c1.5,5.6,2.7,11.3,3.3,17
				c0.7,5.7,1,11.5,0.8,17.3l0,2.2c0,0.7-0.1,1.4-0.1,2.2l-0.3,4.3c-0.4,2.9-0.6,5.7-1.2,8.5c-0.3,1.4-0.4,2.8-0.8,4.2l-1,4.2
				c-0.3,1.4-0.8,2.8-1.2,4.1l-0.6,2.1c-0.2,0.7-0.5,1.4-0.7,2l-1.4,4l-1.7,3.9c-0.5,1.3-1.2,2.6-1.8,3.9l-1,1.9
				c-0.3,0.6-0.6,1.3-1,1.9l-2.2,3.7c-0.3,0.6-0.8,1.2-1.2,1.8l-1.2,1.7c-1.5,2.4-3.5,4.5-5.2,6.7l-2.9,3c-0.5,0.5-0.9,1-1.4,1.5
				l-1.6,1.5l-1.6,1.5l-0.8,0.7l-0.4,0.4l-0.1,0.1c0,0-0.1,0.1,0,0l-0.2,0.2l-3.3,2.7c-4.5,3.5-9.2,6.8-14.1,9.4
				c-4.9,2.6-10.2,4.7-15.5,5.3c-2.6,0.2-5.3,0.1-7.8-0.5c-2.5-0.6-4.8-1.9-6.8-3.5c-4-3.3-6.6-8.2-8.3-13.4
				c-0.8-2.6-1.4-5.2-1.7-7.9c-0.1-0.7-0.1-1.3-0.2-2l0-0.9c0-0.3,0-0.7,0-1l0-0.1c0-0.1,0,0.1,0,0l0-0.2l0-0.5l0.1-1
				c0.1-0.7,0.2-1.3,0.4-2c0.5-2.6,1.5-5.1,2.4-7.8c0.5-1.4,1-2.7,1.3-4.5c0.1-0.4,0.1-1,0-1.5c-0.1-0.6-0.2-1.2-0.6-1.9
				c-0.1-0.1-0.2-0.3-0.3-0.4c-0.1-0.2-0.3-0.3-0.4-0.5c-0.4-0.3-0.2-0.2-0.7-0.5c-0.4-0.2-0.8-0.5-1.2-0.7
				c-0.8-0.4-1.6-0.6-2.4-0.8c-0.8-0.1-1.6-0.3-2.4-0.3l-1.2,0c-0.4,0-0.8,0.1-1.2,0.1l-1.2,0.1l-1.1,0.2c-3,0.6-5.9,1.7-8.5,3.2
				c-5.2,2.9-9.6,6.7-13.5,10.9c-1,1-1.9,2.1-2.9,3.2c-0.9,1.1-1.9,2.2-2.7,3.3l-2.5,3.3c-0.9,1.2-1.7,2.5-2.4,3.8
				c-2.7,5.4-3.8,11.2-4.1,16.8c-0.3,5.7,0.1,11.3,0.8,16.8c0.7,5.6,2.3,14,4.6,22.2c2.2,8.2,4.9,16.2,6.7,21.5
				c3.9,10.8,8.3,21.6,13.5,32.6l0.4,0.9l1,0.4c9.8,3.6,20,6.6,30.6,8.6l2,0.4l2,0.3c1.3,0.2,2.7,0.4,4,0.6c1.4,0.2,2.7,0.3,4.1,0.5
				l2,0.2l2,0.2c5.5,0.5,11,0.5,16.5,0.4c11.1-0.5,22.2-2.4,32.8-6c10.7-3.5,20.7-8.7,29.9-15.1c9.2-6.4,17.4-14.1,24.6-22.3
				c7.2-8.3,13.5-17.3,18.8-26.6c10.8-18.6,18.1-38.2,23-57.2c2.8-10.9,4.6-21.4,5.7-30.8c1.1-9.5,1.3-17.9,1.2-25
				c-0.1-7.1-0.8-12.7-1.2-16.5c-0.2-1.9-0.3-3.4-0.4-4.4c-0.1-1-0.2-1.5-0.2-1.5c-0.4-2.8-0.8-5.6-1.1-8c-0.2-1.2-0.3-2.3-0.5-3.3
				c-0.2-1-0.4-1.9-0.5-2.5c-0.6-2.8-0.6-2.7,0.2,2.8c0.3,2.8,0.7,6.1,1.2,9.7c0.1,0.9,0.2,1.8,0.3,2.8c0.1,1,0.1,1.9,0.2,2.9
				c0.2,2,0.3,4,0.5,6.1c0.8,8.4,0.7,17.6,0.1,26c-0.6,8.4-1.7,16.1-2.6,21.6c-0.5,2.8-0.9,5-1.2,6.5c-0.2,0.8-0.3,1.4-0.4,1.8
				c-0.1,0.4-0.2,0.6-0.2,0.6c0,0,0-0.2,0.1-0.5c0.1-0.3,0.2-0.8,0.3-1.4c0.2-1.2,0.5-2.9,0.9-5c0.7-4.1,1.6-9.7,2.2-15.3
				c0,0,0-0.5,0.1-1.5c0.1-0.9,0.1-2.3,0.2-4c0.2-3.3,0.4-7.9,0.4-12.8c0-4.9-0.2-10.1-0.6-14.8c-0.4-4.7-0.7-8.9-1-11.6
				c-0.2-1.4-0.5-3.6-0.9-6.5c-0.2-1.5-0.4-3.1-0.6-4.8c-0.3-1.7-0.6-3.6-1-5.6c-1.3-7.9-3.6-17.5-6.6-26.8c-3-9.3-6.9-18.3-11-25.2
				c-0.5-0.9-1-1.7-1.5-2.5c-0.5-0.8-1-1.5-1.5-2.3c-0.9-1.5-2-2.7-2.8-3.9c-1.8-2.3-3.4-3.9-4.4-4.8c-6.3-5.5-6.4-5.4-2.4-1.8
				c1,0.9,2.3,2,3.6,3.4c0.3,0.4,0.7,0.7,1,1.1c0.3,0.4,0.7,0.8,1,1.3c0.7,0.8,1.4,1.8,2.1,2.8c2.9,4.1,5.8,9.3,8.6,15.2
				c0.7,1.5,1.3,3,2,4.6c0.6,1.6,1.2,3.2,1.9,4.9c0.3,0.8,0.7,1.7,0.9,2.5c0.3,0.9,0.5,1.7,0.8,2.6c0.5,1.7,1.1,3.5,1.7,5.3
				c2,7.2,3.8,14.6,5,22.1c0.6,3.7,1.3,7.4,1.6,11.1c0.2,1.8,0.4,3.6,0.6,5.4c0.2,1.8,0.4,3.5,0.5,5.3c0.3,3.5,0.5,6.8,0.7,9.9
				c0,0.4,0.1,0.8,0.1,1.2c0,0.4,0,0.8,0,1.1c0,0.8,0.1,1.5,0.1,2.3c0,1.5,0.1,2.9,0.1,4.3c-0.6,22.1-0.2,0-0.5,0
				c0.1,5.5-0.2,10.4-0.5,14.8c-0.3,4.5-0.8,8.6-1.4,12.7c-0.6,4.1-1.2,8.2-2.1,12.6c-0.8,4.4-1.9,9.2-3.2,14.5c0,0-0.3,1-0.8,2.8
				c-0.5,1.8-1.2,4.4-2.2,7.7c-2,6.4-5,15.3-9.2,24.8c-4.1,9.5-9.5,19.6-15.4,28.7c-3,4.6-6.1,8.8-9.2,12.7c-3.1,3.9-6.2,7.4-9,10.3
				c0,0-0.5,0.5-1.5,1.6c-0.5,0.6-1.3,1.2-2.1,2.1c-0.4,0.4-0.9,0.9-1.4,1.4c-0.5,0.5-1.1,1-1.8,1.6c-2.5,2.3-5.9,5.2-10.5,8.5
				c-4.6,3.3-10.4,7-17.8,10.6c-1.2,0.6-2.3,1.1-3.3,1.5c-1,0.4-1.8,0.8-2.5,1.1c-1.4,0.6-2.4,0.9-3,1.2c-1.3,0.5-1.3,0.5-1.3,0.6
				c0-0.1,0-0.1,0-0.1c-1.3,0.4-2.8,0.9-4.3,1.5c-1.6,0.5-3.3,1-5.1,1.5c-3.7,0.9-7.7,1.8-11.8,2.4c-8.1,1.2-16.4,1.4-21.9,1.3
				c0-0.1,0-0.1,0-0.1c-8.9-0.2-17.8-1.4-26.5-3.2c-8.7-1.9-17.3-4.5-25.7-7.6l1.2,1.1c-1.8-3.8-3.5-7.6-5.2-11.5c0.1,0,0.1,0,0.1,0
				c-2.2-5.1-4.3-10.3-5.7-14.1c-0.7-1.9-1.3-3.6-1.7-4.7c-0.2-0.6-0.4-1-0.5-1.3c-0.1-0.3-0.1-0.5-0.1-0.5c0.1,0,0.1,0,0.1,0
				c-1.9-5.2-4.5-13.1-6.4-19.8c-0.9-3.3-1.7-6.3-2.2-8.5c-0.2-1.1-0.4-2-0.6-2.6c-0.1-0.3-0.1-0.5-0.1-0.7c0-0.2,0-0.2,0-0.2
				c-0.1,0-0.1,0-0.1,0c-1.2-5.4-2-10.6-2.5-15.8c-0.5-5.1-0.5-10.1,0.1-14.8c0.6-4.7,1.8-9.1,4.1-12.7c0.3-0.4,0.6-0.9,0.9-1.3
				l1.1-1.4c0.7-0.9,1.4-1.9,2.1-2.8c0.7-0.9,1.4-1.7,2.2-2.6c0.7-0.8,1.4-1.7,2.2-2.5c3-3.2,6.2-6.1,9.6-8.5
				c3.4-2.4,7.1-4.1,10.8-4.8c1.8-0.3,3.7-0.3,5.3,0.1c0.4,0.1,0.8,0.2,1.1,0.4c0.2,0.1,0.3,0.2,0.4,0.2l0.1,0.1l0,0
				c-0.3-0.2-0.1,0-0.1-0.1l0,0l0.1,0.1l0.1,0.1c0,0-0.1,0-0.1-0.1c-0.2-0.2-0.1-0.2-0.1-0.1c0,0.2,0,0.5-0.1,0.9
				c-0.2,0.8-0.5,1.7-0.8,2.7l-1.1,3c-0.7,2-1.4,4.2-1.8,6.4c-0.3,1.5-0.5,2.9-0.6,4.5c0,0.7,0,1.7,0,2.4c0,0.8,0.1,1.5,0.2,2.3
				c0.3,3,1,5.9,2,8.8c1,2.9,2.2,5.7,3.9,8.4c1.7,2.7,3.8,5.2,6.4,7.2c2.6,2,5.8,3.5,9,4.2c3.3,0.7,6.7,0.7,9.9,0.1
				c0.8-0.1,1.6-0.3,2.4-0.5c0.8-0.2,1.6-0.4,2.4-0.6c1.5-0.5,3.1-0.9,4.5-1.6l2.2-0.9c0.7-0.3,1.4-0.7,2.1-1l2.1-1.1l2.1-1.2
				c5.5-3.2,10.6-6.9,15.5-11l0.5-0.4l0.2-0.2l0.1-0.1l0.2-0.2l0.9-0.8l1.7-1.6l1.7-1.6l1.7-1.8l1.7-1.8c0.6-0.6,1.2-1.2,1.6-1.8
				c1-1.3,2.1-2.5,3.1-3.8c3.9-5.2,7.3-10.9,10.2-16.8c2.7-6,4.9-12.2,6.6-18.6c1.6-6.4,2.6-13,3.2-19.6c0.6-6.6,0.5-13.3-0.1-19.9
				c-1-13.2-4.2-26.4-9.7-38.5c-2.8-6.1-6.2-11.9-10.4-17.1c-4.2-5.2-9.3-9.9-15.2-13.2l-2.3-1.2c-0.8-0.4-1.5-0.8-2.3-1.1l-2.4-0.9
				l-1.2-0.4l-1.2-0.4l-1.2-0.3l-1.2-0.3c-0.8-0.2-1.6-0.4-2.4-0.6c-1.6-0.4-3.2-0.7-4.8-0.9c-6.5-1-12.9-1.4-19.3-1.3
				c-5.7,0.1-11.4,0.7-14.2,1.1c-1.4,0.2-2.1,0.4-1.8,0.3c0.4,0,1.8-0.2,4.6-0.5c-11.3,1.2-22.5,3.9-33,8.5
				c-5.2,2.3-8.3,4.2-10.4,5.6c-2.1,1.4-3.3,2.3-4.4,3.1c-0.6,0.5-1.1,0.9-1.8,1.5c-0.7,0.6-1.4,1.2-2.3,2.1c-1.8,1.7-4.5,4.2-7.8,9
				c-3.7,5.4-6.1,11.7-7.1,18.1c-0.5,3.2-0.6,6.5-0.4,9.7c0.1,1.6,0.3,3.2,0.4,4.8c0.3,1.6,0.5,3.2,0.9,4.8c1.3,6.3,3.6,12.3,6.4,18
				c2.7,5.7,6,11.2,9.5,16.4l-0.2-0.5l0.1,0.3c0,0.1,0,0.2,0.1,0.4c0,0.2,0.1,0.5,0.1,0.8c0.1,0.5,0.1,1.1,0.1,1.6
				c0,1.1-0.1,2.2-0.2,3.3c-0.3,2.2-1,4.4-1.7,6.5c-1.6,4.3-4,8.3-6.7,12.1l-2.1,2.8l-2.3,2.7l-0.6,0.7l-0.1,0.2c0.1-0.1,0,0,0,0
				l-0.1,0.1l-0.3,0.3c-0.5,0.5-0.7,0.6-1.1,0.9c-0.8,0.5-1.6,0.8-2.4,0.9c-1.7,0.2-3.6-0.7-5.3-1.9c-1.8-1.3-3.4-2.9-4.9-4.6
				c-3-3.5-5.6-7.5-8-11.5c-2.4-4.1-4.6-8.3-6.7-12.6c-4.2-8.6-7.8-17.4-11.2-26.4c-1.7-4.5-3.2-9-4.7-13.5
				c-1.4-4.5-2.8-9.1-3.7-13.7c-0.1-0.6-0.2-1.1-0.3-1.7c0-0.1,0-0.3,0-0.4l0-0.2l0-0.1c0,0,0-0.2,0,0.1c0-0.3,0-0.7,0-0.8
				c0-0.2,0.1-0.4,0.1-0.6l0.2-0.8c0.1-0.5,0.3-1.1,0.5-1.6c0.7-2.2,1.6-4.4,2.6-6.5c1.9-4.3,4.2-8.5,6.6-12.6
				c9.6-16.4,21.6-31.5,35.5-44.4c13.9-12.9,29.9-23.7,47.6-30.5c8.8-3.5,18-5.8,27.4-7.1c9.4-1.3,18.9-1.4,28.3-0.6
				c18.9,1.8,37.2,7.7,54.3,16.1c8.5,4.2,16.8,9,24.8,14.2c8,5.3,15.6,10.9,23.1,16.9c-8.6-7-17.1-13.1-25.5-18.5
				c-8.4-5.4-16.9-10.2-25.7-14.3c-8.8-4.1-17.8-7.6-27.5-10.2c-2.4-0.6-4.8-1.3-7.3-1.8c-1.2-0.3-2.5-0.6-3.8-0.8
				c-1.3-0.2-2.5-0.4-3.8-0.6c-0.6-0.1-1.3-0.2-1.9-0.3c-0.7-0.1-1.3-0.2-2-0.2c-1.3-0.2-2.6-0.3-4-0.5c-1.3-0.1-2.7-0.2-4-0.3
				c-0.7,0-1.4-0.1-2-0.1c-0.7,0-1.4,0-2.1-0.1c0,0,0-0.1-1.4-0.2c-1.4-0.1-4.1-0.2-9.6,0.1c-8.3,0.4-16.6,1.8-24.8,3.9
				c-8.2,2.2-16.2,5.3-23.9,9.1c-7.6,3.9-14.9,8.3-21.6,13.3c-6.7,5-12.9,10.4-18.6,16c-11.4,11.2-20.5,23-27.5,33.9
				c-3.5,5.5-6.5,10.7-8.9,15.5c-1.2,2.4-2.3,4.7-3.2,6.9c-0.9,2.2-1.7,4.3-2.1,6.2c-0.3,1-0.1,2.3,0.2,3.7c0.2,1.4,0.6,2.8,0.9,4.3
				c0.7,3,1.7,6.3,2.9,10.3c1.3,4,2.8,8.6,4.9,14.1c2.1,5.5,4.6,12,8.1,19.6c-4.6-10.1-8.7-20.5-12.2-31.1c-0.1,0-0.2,0.1-0.2,0.1
				c3.1,9.2,6.7,18.7,10.9,28.3c2.1,4.8,4.4,9.6,6.9,14.3c2.5,4.7,5.2,9.4,8.2,13.8c1.5,2.2,3.2,4.3,5,6.2c1.8,1.9,3.8,3.7,6.1,4.7
				c1.1,0.5,2.3,0.8,3.5,0.7c1.2-0.1,2.3-0.6,3.2-1.3c0.2-0.2,0.4-0.3,0.7-0.6l0.7-0.7l1.2-1.5c0.8-1,1.7-2,2.5-3.1
				c3.2-4.2,6-8.6,7.9-13.4c1-2.4,1.7-4.8,2.1-7.2c0.2-1.2,0.3-2.4,0.3-3.7c0-1.2-0.1-2.5-0.4-3.5c0,0.1,0.1,0.1,0.1,0.2
				c-4-5.9-7-11.2-9.5-16.6c0,0,0.1-0.1,0.2-0.1c0,0-0.1-0.3-0.4-0.9c-0.3-0.6-0.6-1.3-1-2.3c-0.8-1.9-1.9-4.5-2.7-7.2
				c-0.2-0.7-0.4-1.3-0.6-2c-0.2-0.7-0.4-1.3-0.5-2c-0.4-1.3-0.6-2.5-0.8-3.5c-0.2-1-0.4-1.9-0.5-2.5c-0.1-0.6-0.2-1-0.2-1
				c-0.3-2.6-0.3-3.2-0.2-2.3c0.1,0.5,0.2,1.4,0.4,2.6c0.1,0.6,0.2,1.3,0.4,2.1c0.2,0.8,0.4,1.7,0.6,2.6c0.9,3.8,2.5,8.8,5,14.4
				c2.5,5.6,6,11.8,10.3,18.3l0-0.1c0.5,2.1,0.5,4.4,0.2,6.6c-0.3,2.3-0.9,4.6-1.7,6.8c-1.7,4.5-4.1,8.8-7,12.9c-0.8,1-1.5,2-2.3,3
				c-0.8,1-1.6,2-2.4,2.9c-0.4,0.5-0.8,0.9-1.3,1.4c-0.5,0.4-0.9,0.8-1.5,1.1c-1.1,0.6-2.3,1-3.5,0.9c-1.2-0.1-2.5-0.5-3.6-1
				c-1.1-0.6-2.2-1.3-3.2-2.1c-2-1.6-3.7-3.6-5.3-5.5c-3.2-4-5.9-8.3-8.3-12.7c-2.4-4.3-4.6-8.7-6.6-12.9c-4-8.5-7.3-16.6-9.9-23.6
				c-0.1,0-0.2,0.1-0.2,0.1c0,0,1.9,5.2,4.1,10.4c2.1,5.2,4.4,10.3,4.4,10.3l-0.1,0c-3.5-7.6-6.5-15.2-9.3-22.8
				c-2.7-7.6-5.3-15.1-7.2-22.8c-0.4-1.9-0.9-3.8-1-5.8c0-1,0.3-2,0.5-2.9c0.3-0.9,0.6-1.9,0.9-2.8c1.3-3.7,3-7.2,4.7-10.6
				c3.5-6.9,7.6-13.4,11.9-19.8c4.4-6.3,9.1-12.4,14.2-18.2c5.1-5.8,10.5-11.4,16.4-16.6c5.8-5.3,12.1-10.2,18.8-14.6
				c6.7-4.5,13.9-8.5,21.6-11.8c-5.1,2.2-12.6,6-19.7,10.6c-7.1,4.5-13.7,9.7-17.9,13.4c0,0,0,0-1.1,0.8c-1,0.9-3.2,2.7-7.2,6.6
				c8-7.8,17.3-15.3,27.6-21.8c10.3-6.5,21.9-11.9,34-15.4c6-1.8,12.2-3,18.4-3.9c6.2-0.8,12.4-1.1,18.5-1c12.2,0.2,24,2.3,34.8,5.3
				c5.4,1.6,5.4,1.6,0-0.1c-5.4-1.5-16.2-4.7-33.1-5.4c-8.4-0.3-16.1,0.3-23.4,1.4c-7.3,1.1-14.1,2.9-20.7,5.1
				c-6.6,2.3-13.1,5-19.6,8.5c-6.5,3.4-13.1,7.5-19.8,12.6l-0.1-0.1c4.5-3.4,9.7-6.9,15.5-10.2c5.8-3.3,12.1-6.4,18.6-8.9
				c13.1-5.1,27-7.8,38.2-8.3c5.6-0.3,0-0.2-5.6,0.3c-1.4,0.1-2.8,0.3-4,0.4c-1.2,0.2-2.3,0.3-3,0.4c-1.4,0.2-1.4,0.2,1.4-0.3
				c5.6-0.8,11.2-1.3,16.8-1.3l2.1,0l2.1,0.1c1.4,0.1,2.8,0,4.2,0.1c2.8,0.2,5.6,0.4,8.4,0.7c-8.4-1-17.6-1.3-27-0.5
				c-9.5,0.9-19.2,2.9-28.5,6.1c-2.3,0.8-4.6,1.7-6.9,2.6c-1.1,0.5-2.3,1-3.4,1.4c-1.1,0.5-2.2,1-3.3,1.5c-4.4,2-8.7,4.4-12.7,6.8
				c-4.1,2.4-7.9,5.1-11.6,7.7c-3.6,2.7-7.1,5.4-10.3,8.2c-4.3,3.6-8.4,7.5-11.3,10.5c-1.5,1.5-2.7,2.8-3.6,3.6
				c-0.4,0.4-0.8,0.8-1,1c-0.2,0.2-0.4,0.4-0.4,0.3c-9.5,10.4-17.4,21.2-23.9,32c-3.3,5.4-6.2,10.8-8.6,16.3c-1.2,2.8-2.3,5.5-3,8.5
				c-0.4,1.8-0.1,3.3,0.1,4.7c0.3,1.4,0.6,2.8,0.9,4.2c1.4,5.5,3,10.7,4.7,15.6c1.7,5,3.4,9.8,5.2,14.3c3.5,9.1,7.2,17.5,11,25.1
				c1,2.1,3,5.9,5.9,10.7c1.5,2.4,3.2,5,5.3,7.8c1.1,1.4,2.2,2.7,3.5,4.1c1.3,1.3,2.8,2.7,4.5,3.8c0.9,0.6,1.9,1.1,2.9,1.5
				c1.1,0.4,2.3,0.6,3.5,0.6c1.2-0.1,2.5-0.4,3.6-0.9c0.3-0.1,0.5-0.3,0.8-0.5c0.3-0.2,0.5-0.3,0.8-0.5l0.7-0.6l0.5-0.5l0.3-0.3
				l0.1-0.1l0.1-0.1l0.1-0.2l0.5-0.6l1-1.2c0.7-0.8,1.4-1.6,2-2.5c0.6-0.9,1.3-1.7,1.9-2.6c0.6-0.9,1.2-1.8,1.8-2.7
				c2.3-3.7,4.4-7.6,5.7-11.8c0.7-2.1,1.2-4.3,1.4-6.5c0.1-1.1,0.2-2.2,0.1-3.3c0-0.6-0.1-1.1-0.1-1.7c-0.1-0.6-0.2-1.1-0.4-1.8
				l-0.1-0.2l-0.1-0.2C430.7,279.9,427.5,274.4,425.1,269.2z"/>
		</g>
	</g>
</g>
<g>
	<path fill="#FFFFFF" d="M325.6,217.6l37.1,3.4c0,0,90.3-154,251.7-52.3C614.3,168.7,433.1,21.5,325.6,217.6z"/>
	<g>
		<g>
			<path fill="#3F3B3C" d="M495.6,118.9c-4.8-0.7-9.7-1.1-14.6-1.3c23.7,1.1,47.3,7.4,69.6,16.7c11.2,4.7,22,10.1,32.5,16.1
				c10.4,6,20.6,12.6,30,20c0.8-1.1,1.5-2.1,2.3-3.2c-15.5-9.7-31.6-18.1-48.4-24.2c-16.8-6.1-34.1-10-51.2-10.9
				c-2.5-0.2-6.2-0.3-10-0.3c-1.9,0-3.8,0-5.5,0.1c-1.7,0.1-3.3,0.2-4.5,0.2c-10,0.8-20.5,2.5-31,5.7c-10.5,3.1-21,7.4-30.9,12.8
				c-19.9,10.7-37.2,25.4-50.7,40c-6.8,7.3-12,14.3-15.5,19.4c-3.5,5.1-5.4,8.4-5.4,8.4c-0.4,0.6-0.8,1.3-1.1,1.9
				c0.6-0.3,1.1-0.6,1.7-0.9c-4-0.2-7-0.3-2.8,0.2c0.8,0.1,1.7,0.2,2.8,0.3c-0.4,0.2-0.8,0.4-1.3,0.6c2.9-4.8,7.6-11.2,11.7-16.4
				c2.1-2.6,4-4.8,5.4-6.4c0.7-0.8,1.3-1.4,1.7-1.9c0.4-0.4,0.6-0.7,0.7-0.6c0,0,0,0.1-0.1,0.2c-0.1,0.1-0.2,0.3-0.4,0.5
				c-0.4,0.4-0.9,1-1.5,1.7c-1.2,1.4-2.8,3.3-4.3,5.2c0,0-0.5,0.8-1.3,2c-0.9,1.2-2,2.9-3.2,4.6c-2.5,3.5-5.2,7.7-6.5,9.8
				c-0.2,0.3-0.4,0.7-1.1,1.8c0.1,0,0.1-0.1,0.2-0.1c-6.9-0.5-32.6-2.5-37.1-2.9c-12.2-1,15.9,2.2,37,4.5l0.9,0.1l0.5-0.8
				c2.3-3.7,4.7-7,6.7-9.7c5.9-7.8,0.2,0.2,0.4,0.3c2.9-3.9,5.2-6.8,7.5-9.6c2.4-2.8,4.8-5.6,8.1-9.2c0.1-0.1,1.3-1.3,3.3-3.5
				c2.1-2.1,5-5,8.4-8.1c6.7-6.2,15.3-13,21.3-17.1c0,0,0.2-0.2,0.8-0.6c0.6-0.4,1.4-1,2.7-1.8c2.5-1.7,6.6-4.3,13-7.8
				c2.1-1.2,3.2-1.7,3.8-2c0.5-0.3,0.5-0.3,0.5-0.3c0,0.1,0,0.1,0.1,0.1c2.1-1.2,5.4-2.7,8.8-4.1c3.4-1.4,6.8-2.7,9-3.6
				c0,0.1,0,0.1,0,0.1c4.6-1.7,9.2-3.1,13.9-4.2c2.3-0.6,4.7-1.1,7.1-1.6l3.6-0.6c1.2-0.2,2.4-0.4,3.6-0.6c0,0.1,0,0.1,0,0.1
				c1.2-0.2,2.4-0.3,3.5-0.5c1.1-0.1,2.2-0.2,3.1-0.3c0.9-0.1,1.7-0.2,2.2-0.2c0.5-0.1,0.8,0,0.8,0c0,0.1,0,0.1,0,0.1
				c1.2-0.1,2.7-0.2,4.3-0.2c1.6-0.1,3.3-0.1,4.8-0.2c1.5-0.1,2.9,0,3.9,0c0.5,0,0.9,0,1.2,0c0.3,0,0.4,0,0.4,0c0-0.1,0-0.1,0-0.1
				c9.7,0.2,18.2,1.2,25.9,2.7c7.7,1.5,14.8,3.4,21.7,5.6c17.6,5.7,36.5,14.7,54.7,26.2l3.1-4.3c-4.8-3.8-9.7-7.2-14.8-10.6
				c-5.1-3.3-10.2-6.5-15.5-9.5c-10.5-6-21.3-11.4-32.1-15.9c-4.6-1.9-9.3-3.6-4.7-1.7c-4.6-1.8-9.3-3.6-14-5.1
				c-2.4-0.8-3.8-1.2-4.9-1.5c-1-0.3-1.6-0.5-2.2-0.6c-1.2-0.3-2.4-0.6-7.2-1.9c-9.6-2.4-19.4-4.3-29.4-5.3c-5-0.5-9.9-0.8-14.9-0.9
				c-5,0-10,0.1-14.9,0.5c-19.9,1.5-39.5,7.2-57.1,16.6c-17.7,9.4-33.2,22.3-46.4,37.1c-6.6,7.4-12.7,15.3-18.4,23.4
				c-5.6,8.2-10.7,16.7-15.5,25.4c1.2-2.1,2.4-4.2,3.6-6.3c0.6-1,1.2-2,1.7-3c0.6-1,1.2-1.9,1.8-2.9c1.2-1.9,2.4-3.8,3.5-5.6
				c1.2-1.8,2.4-3.6,3.6-5.4c4.9-7.1,10-14.2,16.5-21.7c0,0,0.1,0,0.5-0.4c0.4-0.5,1.2-1.4,2.9-3.2c1.3-1.4,2.5-2.8,3.8-4.2
				c1.3-1.3,2.7-2.7,4-4.1l2-2l2.1-2c1.4-1.3,2.8-2.6,4.3-3.9c5.8-5.1,11.9-9.7,17.8-13.6c6-4,11.9-7.1,17.1-9.7
				c1.3-0.6,2.6-1.2,3.8-1.7c1.2-0.5,2.4-1.1,3.5-1.5c2.3-0.9,4.3-1.7,6.1-2.3c2.4-0.8,4.7-1.6,8.3-2.6c0.9-0.3,1.9-0.5,2.9-0.8
				c1.1-0.3,2.2-0.5,3.5-0.9c2.6-0.7,5.6-1.3,9.3-2c-2.4,0.5-4.9,1-7.3,1.5l-3.6,0.9l-1.8,0.5l-1.8,0.5c0,0.1,0,0.2,0,0.2
				c9.5-2.8,20.6-4.7,31.7-5.4c11.1-0.6,22.3-0.1,32.1,1.3c0,0,0,0.1,0,0.2c0,0,0.6,0.1,1.5,0.2c0.9,0.1,2.1,0.3,3.4,0.5
				c1.2,0.2,2.4,0.4,3.3,0.6c0.9,0.1,1.5,0.3,1.5,0.3c1.2,0.3,1.4,0.4,0.8,0.3c-0.6-0.1-2-0.3-4-0.6c-4-0.7-10.6-1.5-18.3-2
				c-7.7-0.5-16.5-0.5-24.9,0.3c-8.4,0.8-16.3,2.3-22.2,3.8c0,0.1,0,0.2,0.1,0.2c0,0,0.6-0.2,1.5-0.4c0.4-0.1,1-0.2,1.5-0.4
				c0.6-0.1,1.2-0.2,1.8-0.4c1.2-0.2,2.4-0.5,3.3-0.7c0.9-0.2,1.5-0.3,1.5-0.3l0,0.1c-7.3,1.3-14.1,3.1-20.7,5.4
				c-1.6,0.6-3.3,1.1-4.9,1.7c-1.6,0.6-3.2,1.3-4.7,1.9c-1.6,0.7-3.1,1.4-4.6,2.1c-1.6,0.7-3.1,1.5-4.6,2.2c-3,1.5-5.9,3.2-8.9,4.9
				c-1.5,0.9-2.9,1.8-4.3,2.7c-0.7,0.5-1.5,0.9-2.2,1.4c-0.7,0.5-1.4,1-2.1,1.5c-5.7,3.9-11.2,8.4-16.7,13.3c0.5-0.4,1-0.9,1.5-1.4
				c0.6-0.5,1.2-1,1.8-1.6c1.3-1.1,2.7-2.3,4.1-3.5c2.9-2.2,5.8-4.6,7.9-5.9c0,0,0,0,0.5-0.3c0.5-0.3,1.5-1,3.5-2.4
				c-8.2,5.4-16.8,12.4-24.7,20.2c-7.9,7.8-15.1,16.2-20.9,24.1c-2.8,4.1-0.1-0.1,9.5-11.3c0.6-0.7,1.2-1.4,1.8-2.1
				c0.6-0.7,1.2-1.3,1.8-1.9c1.2-1.3,2.3-2.5,3.3-3.7c2.3-2.3,4.4-4.5,6.6-6.6c1.1-1,2.3-2.1,3.4-3.1c0.6-0.5,1.1-1.1,1.7-1.6
				c0.6-0.5,1.2-1,1.8-1.5c1.2-1,2.5-2.1,3.8-3.2c1.3-1,2.7-2.1,4.2-3.3l0.1,0.1c-1.9,1.5-4.2,3.1-6.3,5.1c-1.1,0.9-2.3,1.9-3.4,2.9
				c-1.1,1-2.2,2.1-3.4,3.1c-2.3,2-4.4,4.3-6.5,6.3c-0.5,0.5-1,1-1.5,1.5c-0.5,0.5-0.9,1-1.4,1.5c-0.9,1-1.8,2-2.6,2.9
				c-3.3,3.7,6.7-7.1,3.5-3.5l-5,5.4c-1.6,1.9-3.1,3.8-4.7,5.7c4.7-5.7,10.4-12.1,16.6-18c6.2-6,12.9-11.4,18.8-15.6
				c2-1.4,4-2.8,5.6-3.7c0.8-0.5,1.4-0.9,1.9-1.1c0.5-0.3,0.7-0.4,0.7-0.4c1.3-0.8,2.6-1.6,3.9-2.3c1.3-0.7,2.6-1.5,3.8-2.2
				c1.3-0.7,2.6-1.3,3.8-2c0.6-0.3,1.3-0.6,1.9-1c0.6-0.3,1.3-0.6,1.9-0.9c1.2-0.6,2.5-1.1,3.7-1.7c1.2-0.5,2.5-1,3.7-1.5
				c2.4-1,4.8-1.8,7.1-2.6c9.3-3.1,17.7-4.7,24.9-5.6c1.2-0.2,3.6-0.4,6.8-0.8c1.6-0.1,3.4-0.3,5.3-0.4c1.9-0.1,4-0.2,6.1-0.3
				C478.6,117.2,488.4,117.9,495.6,118.9z"/>
		</g>
	</g>
</g>
<linearGradient id="SVGID_2_" gradientUnits="userSpaceOnUse" x1="440.5584" y1="392.1589" x2="672.4266" y2="392.1589">
	<stop  offset="0" style="stop-color:#FFD400"/>
	<stop  offset="0.2297" style="stop-color:#FECB04"/>
	<stop  offset="0.6058" style="stop-color:#FAB30F"/>
	<stop  offset="1" style="stop-color:#F6921E"/>
</linearGradient>
<path fill="url(#SVGID_2_)" d="M672.4,304.7c-0.4,1.7-0.9,3.4-1.4,5.1c-7.8,27.4-23.9,60.5-48.2,89.5
	c-39.3,46.9-100.8,82.5-182.2,63.3C576.5,527.9,659.2,390.8,672.4,304.7z"/>
<linearGradient id="SVGID_3_" gradientUnits="userSpaceOnUse" x1="297.756" y1="135.6198" x2="635.7514" y2="135.6198">
	<stop  offset="0" style="stop-color:#FFD400"/>
	<stop  offset="0.2297" style="stop-color:#FECB04"/>
	<stop  offset="0.6058" style="stop-color:#FAB30F"/>
	<stop  offset="1" style="stop-color:#F6921E"/>
</linearGradient>
<path fill="url(#SVGID_3_)" d="M561.2,90.1c-40.4-16.9-90.9-22-139.4-8.4c-48.5,13.6-93.1,45.8-124,115.5l25.7-6.1
	c-1.7,3.3,70.5-124.8,223.1-82.8c19.3,5.3,31.2,7.8,53.3,19.1c10.2,5.3,26,15,35.9,24.2C636.6,152.4,610.7,110.8,561.2,90.1z"/>
<linearGradient id="SVGID_4_" gradientUnits="userSpaceOnUse" x1="330.1125" y1="148.8421" x2="655.8626" y2="148.8421">
	<stop  offset="0" style="stop-color:#FFD400"/>
	<stop  offset="0.2297" style="stop-color:#FECB04"/>
	<stop  offset="0.6058" style="stop-color:#FAB30F"/>
	<stop  offset="1" style="stop-color:#F6921E"/>
</linearGradient>
<path fill="url(#SVGID_4_)" d="M330.1,188.3c50.6-71.6,118.2-79.2,118.2-79.2c132-22.4,207.6,74.8,207.6,74.8
	c-64.7-60.9-128.8-72.9-175.7-70.8c-92.1,4.1-138.5,80.9-136.7,78.7L330.1,188.3z"/>
<linearGradient id="SVGID_5_" gradientUnits="userSpaceOnUse" x1="548.96" y1="185.4306" x2="674.1434" y2="185.4306">
	<stop  offset="0" style="stop-color:#8BC53F"/>
	<stop  offset="0.1327" style="stop-color:#84C23F"/>
	<stop  offset="0.3256" style="stop-color:#71BC40"/>
	<stop  offset="0.5554" style="stop-color:#51B042"/>
	<stop  offset="0.8113" style="stop-color:#25A043"/>
	<stop  offset="1" style="stop-color:#009345"/>
</linearGradient>
<path fill="url(#SVGID_5_)" d="M549,113.5c0,0,64.9,29.6,84.7,56s27.8,37.4,40.4,88C674,257.4,682.7,141.9,549,113.5z"/>
<linearGradient id="SVGID_6_" gradientUnits="userSpaceOnUse" x1="600.4241" y1="297.1847" x2="668.6433" y2="297.1847">
	<stop  offset="0" style="stop-color:#8BC53F"/>
	<stop  offset="0.1327" style="stop-color:#84C23F"/>
	<stop  offset="0.3256" style="stop-color:#71BC40"/>
	<stop  offset="0.5554" style="stop-color:#51B042"/>
	<stop  offset="0.8113" style="stop-color:#25A043"/>
	<stop  offset="1" style="stop-color:#009345"/>
</linearGradient>
<path fill="url(#SVGID_6_)" d="M638.7,187.7c0,0,29,59.8,9.3,116.1c-19.7,56.3-17.7,46.4-17.7,46.4s-21.2,37.1-29.9,43.4l7.2,13.2
	c0,0,39.5-31.4,61-111.3h-3.6C665.1,295.4,659.7,214.3,638.7,187.7z"/>
<linearGradient id="SVGID_7_" gradientUnits="userSpaceOnUse" x1="371.4959" y1="285.8582" x2="647.5756" y2="285.8582">
	<stop  offset="0" style="stop-color:#8BC53F"/>
	<stop  offset="0.1327" style="stop-color:#84C23F"/>
	<stop  offset="0.3256" style="stop-color:#71BC40"/>
	<stop  offset="0.5554" style="stop-color:#51B042"/>
	<stop  offset="0.8113" style="stop-color:#25A043"/>
	<stop  offset="1" style="stop-color:#009345"/>
</linearGradient>
<path fill="url(#SVGID_7_)" d="M371.5,219.5c0,0,12.6,58,41.3,90.7c0,0,3.6,6.7,17.5-20.6c0,0-35.9-48-23.3-72.7
	c12.6-24.7,44.6-63.1,110-48.9c64.2,13.9,90.2,128.8,39.9,175.9c-49.9,46.8-104.6,39-92.5-16.6c0,0,1.3-12.1,5.8-17.1
	c4.5-4.9-28.4,0.6-31.9,27.7c0,0,40.9,54.4,17.1,93l-0.4,3.6c0,0,70.9,17.5,121.2-24.7s72.3-102.8,71.4-152.6
	c-0.9-49.8-15.3-90.2-45.3-106.8v5.4C602.2,155.8,471.1,75.8,371.5,219.5z"/>
<linearGradient id="SVGID_8_" gradientUnits="userSpaceOnUse" x1="418.2073" y1="312.2087" x2="472.0645" y2="312.2087">
	<stop  offset="0" style="stop-color:#8BC53F"/>
	<stop  offset="1" style="stop-color:#009345"/>
</linearGradient>
<path fill="url(#SVGID_8_)" d="M418.2,314.7c0,0,23.8-20.2,36.4-20.6c12.6-0.4,16.2,6.3,17.5,9.9c0,0-27.8,4-38.1,26.5L418.2,314.7z
	"/>
<linearGradient id="SVGID_9_" gradientUnits="userSpaceOnUse" x1="291.5474" y1="342.4352" x2="421.7849" y2="342.4352">
	<stop  offset="0" style="stop-color:#8BC53F"/>
	<stop  offset="0.1327" style="stop-color:#84C23F"/>
	<stop  offset="0.3256" style="stop-color:#71BC40"/>
	<stop  offset="0.5554" style="stop-color:#51B042"/>
	<stop  offset="0.8113" style="stop-color:#25A043"/>
	<stop  offset="1" style="stop-color:#009345"/>
</linearGradient>
<path fill="url(#SVGID_9_)" d="M296.7,207.1l33.5-7.6c0,0-4.4,73.5,46.3,147.3c0,0-43.5,5.6-52.1,54.5
	c-8.5,48.9,38.2,77.2,80.3,58.8c0,0,11.7,0.9,16.6-0.4s-32.9,33.2-72.3,24.2c-64.4-14.6-83.5-102.7-11.5-135.7c0,0,3.8-14.2-6-35.3
	C321.7,291.8,297.7,236,296.7,207.1z"/>
<linearGradient id="SVGID_10_" gradientUnits="userSpaceOnUse" x1="285.8565" y1="411.6717" x2="369.308" y2="411.6717">
	<stop  offset="0" style="stop-color:#37B34A"/>
	<stop  offset="0.2095" style="stop-color:#30AA48"/>
	<stop  offset="0.5526" style="stop-color:#1E9142"/>
	<stop  offset="0.9846" style="stop-color:#016A38"/>
	<stop  offset="1" style="stop-color:#006838"/>
</linearGradient>
<path fill="url(#SVGID_10_)" d="M349.4,483.9c-64.4-14.6-83.5-102.7-11.5-135.7c0,0,1.1-4,0.6-10.8c-22.4,7.5-41.3,25.9-49.1,50.9
	c-12.5,40.4,8.7,82.7,47.2,94.7c10.9,3.4,22,3.9,32.6,2.1C362.9,485.6,356.1,485.4,349.4,483.9z"/>
<linearGradient id="SVGID_11_" gradientUnits="userSpaceOnUse" x1="436.1597" y1="450.883" x2="527.2681" y2="450.883">
	<stop  offset="0" style="stop-color:#8BC53F"/>
	<stop  offset="0.1327" style="stop-color:#84C23F"/>
	<stop  offset="0.3256" style="stop-color:#71BC40"/>
	<stop  offset="0.5554" style="stop-color:#51B042"/>
	<stop  offset="0.8113" style="stop-color:#25A043"/>
	<stop  offset="1" style="stop-color:#009345"/>
</linearGradient>
<path fill="url(#SVGID_11_)" d="M436.2,450.7c0,0,47.6,16.6,91.1,6.3c0,0-49.9,0.3-78.1-15.5"/>
<g>
	<g>
		<path fill="none" d="M655.7,274.8c-0.1,1.6-0.3,3.2-0.5,4.7c-3,25.5-12.6,57.3-30.1,86.5c-28.2,47.4-77.8,87.8-153,82.5
			C602.5,487,656.4,353.3,655.7,274.8z"/>
		<g>
			<path fill="#3F3B3C" d="M581.2,433.8c3.5-2.4,6.8-4.9,10-7.6c-7.9,6.6-16.7,12.4-26.2,16.8c-9.5,4.4-19.6,7.5-30,9.1
				c-5.2,0.8-10.4,1.3-15.7,1.4c-5.3,0.1-10.5-0.1-15.8-0.6l-2-0.2l-2-0.3l-3.9-0.5c-2.6-0.5-5.2-0.8-7.8-1.4
				c-5.2-1-10.2-2.4-15.2-3.8c-0.2,1.3-0.5,2.6-0.7,3.9c15.4,1.1,30.9,0.4,45.8-2.5c14.9-2.9,29-7.9,41.9-14.6
				c1-0.5,2.2-1.1,3.5-1.8c1.3-0.7,2.7-1.5,4.1-2.3c2.8-1.7,5.5-3.4,7.3-4.6c14.4-9.6,28.6-23.2,40.3-38.7c2.9-3.9,5.7-7.8,8.3-11.9
				c1.3-2,2.6-4.1,3.8-6.1c1.2-2.1,2.3-4.2,3.5-6.2c1.1-2.1,2.3-4.1,3.4-6.1c1-2.1,2-4.1,3-6.2c0.5-1,1-2,1.5-3l0.7-1.5
				c0.2-0.5,0.4-1,0.6-1.5c0.9-2,1.7-4.1,2.5-6c1.7-3.9,3-7.8,4.2-11.2c0.6-1.7,1.2-3.3,1.6-4.9c0.4-1.5,0.8-3,1.2-4.3
				c0.7-2.6,1.2-4.7,1.6-6.1c0.3-1.4,0.5-2.2,0.5-2.2c0.9-4.2,1.8-8.4,0.6-4.3c-0.3,1-0.6,2.3-0.9,3.6c-0.4,1.4-0.7,2.9-1.2,4.4
				c-1,3.1-2,6.4-3,9.4c-1.1,3-2.2,5.7-2.9,7.8c-0.4,1-0.7,1.8-0.9,2.4c-0.2,0.6-0.4,0.9-0.4,0.8c0,0,0.1-0.3,0.2-0.7
				c0.2-0.4,0.4-1.1,0.6-1.8c0.5-1.5,1.3-3.5,2-5.5c-0.1,0,0.1-0.8,0.5-2c0.4-1.2,0.8-2.9,1.3-4.7c0.9-3.6,2.2-7.7,2.6-9.8
				c0.2-1,0.8-3.4,1.5-6.4c0.2-0.7,0.4-1.5,0.5-2.3c0.2-0.8,0.3-1.7,0.5-2.6c0.3-1.7,0.7-3.6,1-5.4c0.2-0.9,0.4-1.8,0.5-2.7
				c0.1-0.9,0.2-1.8,0.4-2.7c0.2-1.8,0.4-3.4,0.6-5c0.2-1.5,0.3-2.9,0.4-4c0.1-1.1,0.2-2,0.2-2.5c0.3-3.2,0.2-3.2-0.1-1.2
				c-0.2,1-0.4,2.5-0.6,4.4c-0.1,0.5-0.1,1-0.2,1.5c-0.1,0.5-0.2,1.1-0.3,1.6c-0.2,1.1-0.4,2.3-0.6,3.5c-0.2,1.2-0.4,2.5-0.7,3.9
				c-0.2,1.3-0.6,2.7-0.9,4.1c-0.3,1.4-0.6,2.8-0.9,4.2c-0.3,1.4-0.6,2.8-1,4.2c-0.8,2.8-1.5,5.5-2.2,8c-0.7,2.5-1.5,4.8-2.2,6.9
				c-2.6,8-0.3-0.1-0.5-0.1c-0.6,2-1.1,3.8-1.7,5.4c-0.6,1.6-1.2,3.1-1.7,4.6c-1.1,3-2.1,6-3.8,9.8c0,0-0.2,0.4-0.5,1
				c-0.3,0.7-0.7,1.6-1.2,2.8c-0.5,1.2-1.1,2.6-1.8,4.1c-0.8,1.5-1.6,3.2-2.5,5c-0.9,1.8-1.8,3.6-2.7,5.5c-1,1.8-2.1,3.7-3.1,5.5
				c-1,1.8-2,3.6-2.9,5.2c-1,1.6-1.9,3.2-2.8,4.5c0,0-0.6,0.9-2,3.1c-1.4,2.2-3.8,5.7-7.5,10.7c-1.3,1.7-1.9,2.5-2.2,2.9
				c-0.3,0.4-0.3,0.4-0.3,0.5c0,0,0,0-0.1-0.1c-1.3,1.7-3.2,4.1-5.3,6.5c-1,1.2-2.1,2.4-3.1,3.4c-1,1.1-1.9,2-2.6,2.8
				c0,0,0,0-0.1-0.1c-5.7,6.1-12.1,11.7-18.7,16.9c0,0,0,0-0.1-0.1c-1.7,1.2-3.4,2.5-4.6,3.4c-0.7,0.4-1.2,0.8-1.6,1.1
				c-0.4,0.3-0.6,0.4-0.6,0.4c0,0,0,0-0.1-0.1c-1.7,1.2-4.4,2.9-6.6,4.3c-1.1,0.7-2.1,1.3-2.9,1.7c-0.7,0.4-1.2,0.7-1.2,0.6
				c0,0.1,0,0.1,0.1,0.1c-7.3,4.1-14,7.1-20.4,9.5c-6.4,2.4-12.4,4.1-18.5,5.6c-15,3.5-32.3,4.8-50,3.6l-0.9,5.1
				c5.2,1.5,10.4,2.9,15.7,3.9c2.7,0.6,5.4,1,8,1.4c2.7,0.3,5.4,0.8,8.1,1c5.4,0.5,10.9,0.7,16.3,0.5c5.4-0.1,10.7-0.6,16-1.5
				c2.2-0.3,4.3-0.8,5.3-1c1.1-0.3,1-0.3-1.1,0.1c4.3-0.8,8.5-1.9,12.6-3.2c2.1-0.7,3.3-1.1,4.2-1.4c0.9-0.3,1.4-0.6,1.9-0.8
				c1-0.4,2-0.8,6-2.5c15.8-7.1,29.9-17.8,41.5-30.5c11.7-12.7,21-27.3,28.6-42.8c7.5-15.4,13.1-31.7,17.1-48.4
				c3.9-16.7,6.1-33.8,6-51c0,8.6-0.6,16.1-1.4,23.6c-0.9,7.4-2.1,14.9-3.9,23.2c0,0-0.1,0-0.2,0.5c-0.1,0.5-0.4,1.6-0.9,3.6
				c-2.9,12.5-7.2,25.8-12,37.1c-4.7,11.4-9.9,20.8-13.3,26.2c-1.1,1.8-2.3,3.6-4.1,6.3c-1.8,2.6-4.2,6.2-8.2,11.3
				c2.6-3.4,5.1-6.9,7.5-10.4c0,0-0.1-0.1-0.1-0.1c-4.7,7.1-10.6,14.8-17.3,21.7c-3.3,3.5-6.8,6.8-10.4,9.8c-3.6,3-7.2,5.8-10.7,8.2
				c0,0-0.1-0.1-0.1-0.1c0,0-1.7,1.2-3.6,2.4c-0.9,0.6-1.8,1.2-2.5,1.6c-0.7,0.4-1.2,0.7-1.2,0.7c-1.9,1-0.8,0.3,2.2-1.6
				c3-1.9,7.7-5.1,12.9-9.3c5.2-4.2,10.7-9.5,15.5-14.9c4.8-5.4,9-10.9,12.1-15.3c0,0-0.1-0.1-0.2-0.1c0,0-0.3,0.4-0.8,1.1
				c-0.5,0.6-1.1,1.5-1.7,2.4c-0.6,0.9-1.3,1.7-1.8,2.3c-0.5,0.6-0.8,1.1-0.8,1.1l-0.1-0.1c7.8-10.1,13.8-20.2,19.1-30.6
				c5.2-10.5,9.6-21.3,13.4-33.5c-0.6,2-1.6,5.1-2.7,8.1c-1.1,3-2.2,6-3,8c0,0-0.1,0-0.3,0.5c-0.2,0.5-0.6,1.5-1.4,3.4
				c1.6-3.9,3.2-8.1,4.8-12.5c1.5-4.4,3-9,4.3-13.6c2.6-9.2,4.6-18.6,5.9-27c0.3-2.1,0.2-2.1-0.1,0c-0.4,2.1-1.1,6.3-2.5,12.5
				c-1.4,6.2-2.7,11.4-4.2,16.4c-1.5,5.1-3.1,10.1-5.3,16.1l-0.1,0c1.5-4,3.2-9,4.7-14.1c1.5-5.1,2.9-10.2,3.8-14.3
				c0.5-2.1-0.1,0-0.6,2c-0.6,2-1.1,4.1-0.6,2c1.1-4.1,2-8.2,2.7-12.4c-1.2,6.2-2.9,13.5-5,20.6c-2.1,7.1-4.5,14.1-6.8,20
				c-0.8,1.9-1.6,3.9-2.3,5.3c-0.7,1.4-1.1,2.4-1.2,2.4c-8.4,19.4-18.2,33.5-26.4,43c-1.4,1.6-5.4,6.4-10.7,11.6
				c-2.6,2.6-5.6,5.2-8.5,7.6c-1.5,1.2-2.9,2.4-4.4,3.4c-0.7,0.5-1.4,1.1-2.1,1.6C582.6,432.8,581.9,433.3,581.2,433.8z"/>
		</g>
	</g>
</g>
<g>
	<g>
		<g>
			<path fill="#3F3B3C" d="M535.4,127.2c-5.5-1.7-11.1-3.2-16.7-4.4c8.8,2,17.6,4.6,26.2,7.6c8.6,3.1,17.1,6.5,25.5,10.4
				c8.4,3.9,16.5,8.2,24.5,12.8c8,4.7,15.8,9.7,23.2,15.1l2.7-2.6c-9.7-12.7-20.4-24.6-32.3-35.2c-11.9-10.6-25-19.6-39-26.8
				c-7-3.6-14.3-6.5-21.6-9.1c-1.9-0.6-3.7-1.1-5.6-1.7l-2.8-0.8l-2.8-0.7c-1.9-0.5-3.8-0.9-5.6-1.4c-1.9-0.4-3.8-0.7-5.7-1.1
				l-2.8-0.5c-0.9-0.2-1.9-0.3-2.8-0.4c-1.9-0.3-3.8-0.5-5.7-0.7c-1.9-0.2-3.8-0.3-5.7-0.5l-2.8-0.2l-2.8-0.1
				c-1.9-0.1-3.8-0.1-5.7-0.2c-1.9,0-3.8,0.1-5.6,0.1l-2.8,0.1l-2.8,0.2c-1.9,0.1-3.7,0.3-5.6,0.4c-1.5,0.2-3.3,0.3-5.3,0.6
				c-1,0.1-2.1,0.2-3.1,0.4c-1.1,0.2-2.2,0.3-3.2,0.5c-4.4,0.6-8.7,1.5-11.6,2c-11.5,2.5-23.5,6.2-35.4,11c-1.5,0.6-3,1.2-4.5,1.9
				c-1.5,0.6-3,1.3-4.5,1.9c-2.9,1.4-5.9,2.7-8.8,4.2c-1.5,0.7-2.9,1.5-4.4,2.2c-1.5,0.8-2.9,1.6-4.4,2.4c-1.5,0.8-2.8,1.6-4.3,2.4
				l-2.1,1.2c-0.8,0.5-1.4,0.9-2.1,1.3c-11.4,6.9-21.7,15.5-30.5,24.9c-2.2,2.3-4.3,4.8-6.4,7.2c-2,2.5-3.9,5-5.7,7.5
				c-3.6,5-6.9,10.2-9.8,15.3c-5.8,10.3-9.6,19.9-11.8,26.9c-1.2,3.5-1.9,6.3-2.5,8.3c-0.5,2-0.8,3-0.8,3c-1.5,5.7-2.4,11.5-1,5.8
				c0.7-2.9,1.7-6.7,3-10.9c1.3-4.2,2.9-8.7,4.6-12.7c1.6-4.1,3.4-7.7,4.6-10.3c0.6-1.3,1.2-2.4,1.6-3.1c0.4-0.7,0.6-1.1,0.6-1.1
				c0,0,0,0.1-0.1,0.2c-0.1,0.2-0.2,0.4-0.3,0.7c-0.3,0.6-0.7,1.4-1.2,2.4c-0.9,2-2.2,4.6-3.3,7.3c0.1,0-0.3,1-0.9,2.7
				c-0.3,0.8-0.6,1.8-1,2.8c-0.4,1.1-0.8,2.2-1.2,3.4c-1.6,4.8-3.2,10.4-4,13.2c-0.5,2-2,7.7-3,14.9l0,0.1l0.1-0.1
				c10.8-5.1,25-11.7,28.3-13.3c10.9-5.1-8.7,3.3-28.9,12.1l1.7,1.3c1.6-9.5,4.5-18.9,6.9-25.5c2-5.4,2.1-5.3,1.7-4
				c-0.5,1.4-1.3,4.1-1.2,4.1c1.9-5.4,3.6-9.4,5.4-13.3c1.8-3.9,3.7-7.8,6.5-12.8c0-0.1,1.1-1.8,2.9-4.8c1.9-2.9,4.5-7,7.7-11.3
				c6.3-8.7,15.3-18,21.9-23.5c0,0,1.1-0.9,3.8-3.2c1.4-1.1,3.3-2.5,5.6-4.3c1.2-0.8,2.6-1.8,4-2.8c0.7-0.5,1.5-1,2.4-1.5
				c0.8-0.5,1.7-1.1,2.6-1.6c0.6-0.4,1.1-0.7,1.6-1c0.4-0.3,0.9-0.5,1.2-0.7c0.7-0.4,1.2-0.7,1.5-0.9c0.6-0.4,0.6-0.4,0.6-0.4
				c0,0.1,0,0.1,0.1,0.1c1.2-0.8,2.8-1.7,4.6-2.6c1.7-0.9,3.6-2,5.6-2.9c1.9-1,3.8-2,5.6-2.8c1.8-0.8,3.4-1.6,4.7-2.2
				c0,0.1,0,0.1,0,0.1c10.4-4.9,21.3-8.7,32.3-11.9c0,0.1,0,0.1,0,0.1c2.8-0.8,5.6-1.5,7.6-2c1-0.2,1.9-0.5,2.5-0.6
				c0.6-0.1,1-0.2,1-0.2c0,0.1,0,0.1,0,0.1c2.8-0.5,7-1.5,10.6-2c1.8-0.3,3.4-0.5,4.5-0.7c0.6-0.1,1-0.1,1.4-0.1c0.3,0,0.5,0,0.5,0
				c0-0.1,0-0.1,0-0.1c22.8-2.8,40.2-1.2,56.9,2.6c19,4.2,38.9,13.2,57.1,25.9c9.1,6.4,17.7,13.9,25.8,21.9l6,6.1
				c1.9,2.1,3.8,4.3,5.7,6.4l2.8,3.2l2.7,3.3c1.8,2.2,3.5,4.4,5.3,6.6c1.2-1.2,2.4-2.4,3.6-3.6c-3.4-2.5-6.7-4.8-10.1-7
				c-3.4-2.2-6.8-4.3-10.2-6.3c-5-3-10.2-5.7-5.2-2.8c-5.1-2.9-10.2-5.7-15.5-8.3c-5.2-2.6-6.6-3.2-7.9-3.7c-1.4-0.6-2.7-1.2-8-3.5
				c-21.5-9.1-44.2-15.8-67.6-18.4c-5.8-0.6-11.7-1-17.6-1.1c-5.9,0-11.8,0.1-17.6,0.7c-1.5,0.1-2.9,0.3-4.4,0.5
				c-1.5,0.2-2.9,0.3-4.4,0.6l-4.4,0.7l-4.3,0.9c-1.4,0.3-2.9,0.6-4.3,1c-1.4,0.4-2.9,0.7-4.3,1.1c-2.8,0.8-5.7,1.6-8.4,2.6
				c-5.6,1.8-11,4.1-16.4,6.5c-2.6,1.3-5.3,2.5-7.9,4l-3.9,2.1l-3.8,2.3c-2.5,1.5-4.9,3.2-7.4,4.8c-2.4,1.7-4.7,3.5-7.1,5.2
				c-2.3,1.9-4.6,3.7-6.8,5.6l-3.3,2.9l-1.6,1.5l-1.6,1.5c-17,16.2-30.9,35.3-42.5,55.6c5.9-10.1,11.5-18.7,17.6-26.9
				c6.1-8.2,12.6-16.1,20.8-24.5c0,0,0.1,0.1,0.6-0.4c0.6-0.5,1.6-1.5,3.7-3.5c6.4-6,13.5-11.9,20.9-17c7.5-5.2,15.3-9.6,23-13.2
				c7.7-3.6,15.1-6.2,21.7-8c3.3-1,6.4-1.6,9.2-2.3c2.8-0.5,5.3-1.1,7.5-1.4c1.4-0.2,2.9-0.4,4.5-0.6c1.6-0.2,3.5-0.4,5.6-0.6
				c4.4-0.3,10.2-0.8,19-0.7c-5.9,0-11.7,0.1-17.5,0.7c0,0.1,0,0.2,0,0.2c5.8-0.5,12-0.7,18.4-0.6c6.4,0.1,12.9,0.7,19.5,1.5
				c13,1.6,25.9,4.7,37,8.1c0,0,0,0.1-0.1,0.2c0,0,0.7,0.2,1.7,0.5c1,0.3,2.4,0.7,3.8,1.2c1.4,0.5,2.8,0.9,3.8,1.3
				c1,0.4,1.7,0.6,1.7,0.6c2.7,1.1,1,0.5-3.6-1c-4.6-1.5-12-3.9-20.9-6c-8.8-2.1-19.1-4-28.9-4.9c-9.9-1-19.3-1-26.6-0.6
				c0,0.1,0,0.2,0,0.2c0,0,2.9-0.1,5.8-0.2c2.9,0,5.8,0,5.8,0l0,0.1c-17.4-0.2-33.4,2.1-48.7,6.8c-15.2,4.8-29.7,12-43.9,22.1
				c1.1-0.9,2.7-1.9,4.3-3c0.8-0.6,1.7-1.1,2.6-1.7c0.9-0.6,1.8-1.1,2.8-1.7c3.7-2.3,7.5-4.4,10.1-5.8c0,0,0,0.1,0.7-0.2
				c0.7-0.3,2-0.9,4.6-2.2c-10.5,5-21.7,11.8-31.8,20c-10.2,8.2-19.4,17.5-26.7,26.5c-1.8,2.3-1.8,2.3,0.1,0.1
				c1.9-2.2,5.7-6.6,11.8-12.7c12.4-12.1,21.6-19.5,36.6-28.2l0.1,0.1c-5,2.9-11.2,6.7-16.9,11.1l-2.2,1.6c-0.7,0.6-1.4,1.1-2.1,1.7
				c-1.4,1.1-2.8,2.2-4.1,3.3c-1.3,1.1-2.5,2.3-3.7,3.3c-0.6,0.5-1.2,1.1-1.8,1.6c-0.5,0.5-1.1,1.1-1.6,1.6c-2.1,2,0,0,2.2-1.9
				c2.2-1.9,4.4-3.8,2.2-1.8c-1.1,1-2.2,1.9-3.2,2.9l-3.1,3c-2.1,2-4.1,4.1-6,6.2c5.9-6.4,13.3-13.4,21.3-19.6
				c8-6.2,16.6-11.6,24.3-15.6c1.3-0.6,2.6-1.2,3.8-1.8c0.6-0.3,1.2-0.6,1.8-0.8c0.6-0.3,1.1-0.5,1.6-0.7c1-0.4,1.8-0.7,2.4-1
				c0.6-0.2,0.9-0.4,0.9-0.3c6.6-2.8,13.1-5,19.4-6.7c6.3-1.6,12.3-2.8,18-3.5c11.4-1.5,21.6-1.5,30.2-1c0.7,0.1,1.8,0.1,3.2,0.2
				c1.4,0.1,3,0.2,4.9,0.4c1.9,0.2,4,0.4,6.2,0.7c1.1,0.1,2.3,0.3,3.5,0.5c1.2,0.2,2.4,0.4,3.7,0.6
				C516,121.9,527.2,124.7,535.4,127.2z"/>
		</g>
	</g>
</g>
<g>
	<g>
		<g>
			<path fill="#3F3B3C" d="M434.5,301.7c1-0.6,2-1.2,3.1-1.7c-3.9,2-7.6,4.3-11.1,6.8c-3.6,2.5-7,5.2-10.3,8.2l-1.3,1.2l1.1,1.4
				c6.3,8,12.5,15.9,18.3,23.4l2.5,3.3l1.3-4.1c0.3-1.1,0.7-2.1,1-3.1c0.4-1,1.3-3.1,1.8-4.1c0.2-0.5,0.5-1,0.7-1.5
				c0.3-0.5,0.5-1,0.8-1.5c0.5-1,1.2-2,1.7-3c1.3-2,2.8-3.9,4.4-5.6c3.3-3.5,7.5-5.9,11.5-7.3c2-0.7,3.8-1.2,5.1-1.5
				c1.2-0.3,2.1-0.5,2.1-0.5c1.1-0.2,2.2-0.4,1.1-0.5c-1.1,0-3.1,0.1-4.7,0.4c-1.6,0.3-3,0.6-3,0.5c0,0,1.1-0.4,2.2-0.6
				c-0.1-0.3,3.2-1.3,4.4-1.3c0.6-0.1,2.6-0.3,4.6-0.3c2,0,4.1,0.3,4.6,0.4c0.9,0.2,0.9,0.1,0.4-0.2c-0.5-0.3-1.6-0.6-3-0.9
				c-1.4-0.3-3.1-0.5-4.7-0.6c-1.6-0.1-3.2,0-4.4,0.1c-2.4,0.3,0-0.3-0.1-0.5c-2.4,0.4-3.7,0.5-6,1.3c0,0-0.1,0-0.3,0.1
				c-0.2,0.1-0.5,0.1-0.9,0.3c-0.7,0.3-1.7,0.6-2.7,1.1c-2.1,0.9-4.5,2.4-6,3.6c0,0-0.3,0.2-0.8,0.7c-0.3,0.3-0.7,0.6-1.2,1
				c-0.5,0.4-1,1-1.7,1.6c-0.8,0.9-0.8,0.9-0.7,1c0,0,0,0-0.1-0.1c-0.8,1-2.4,2.8-3,3.9c0,0,0,0-0.1-0.1c-0.3,0.5-0.6,1-1,1.5
				l-0.9,1.6c-0.6,1-1.2,2.1-1.7,3.2c-0.1,0-0.1,0-0.1-0.1c-0.5,1.1-1,2.2-1,2.2c-0.1,0-0.1,0-0.1,0c-0.6,1.1-1.2,3.4-1.4,3.4
				c0.1,0,0.1,0,0.1,0c-0.3,0.8-0.6,1.6-0.8,2.4c-0.2,0.8-0.5,1.5-0.7,2.2c1.4-0.3,2.9-0.6,4.2-0.9c-1.6-2-2.9-3.8-4.3-5.5
				c-4.1-5.4-9.1-11.7-14.1-17.8c-0.1,1.2-0.2,2.3-0.3,3.5c2-1.8,4.1-3.7,6.2-5.4c0.9-0.7,1.7-1.5,0.8-0.9c0.9-0.7,1.8-1.4,2.7-2
				c1.8-1.3,0.8-0.8,2.7-2.1c3.7-2.6,7.6-4.9,11.7-6.8c4.1-1.8,8.3-3.2,12.6-3.5l0.8-0.1c0.3,0,0.5,0,0.8,0c0.5,0,1.1,0,1.6,0
				c1,0.2,2.1,0.2,3.1,0.6c1,0.2,1.9,0.7,2.9,1.1l1.3,0.8c0.2,0.1,0.4,0.2,0.6,0.4l0.6,0.5c3.2,2.5,5.5,6.4,7,10.5
				c-0.4-1-0.8-2-1.2-2.9c-0.4-0.9-0.9-1.7-1.3-2.6c-0.5-0.8-1-1.5-1.6-2.4c-0.3-0.4-0.6-0.7-1-1.1c-0.4-0.3-0.7-0.8-1.1-1.1
				c0,0,0.1-0.1-0.7-0.8c-2.4-2-5.7-3.2-8.8-3.4c-3.1-0.2-5.8,0.3-7.5,0.5c-0.5,0.1-1.1,0.2-1.9,0.3c-0.4,0.1-0.9,0.2-1.5,0.4
				c-0.6,0.2-1.2,0.4-2,0.7c1-0.4,2.1-0.7,3.2-1.1c0-0.1,0-0.2,0-0.2c-2.2,0.6-4.6,1.5-6.9,2.5c-2.3,1.1-4.6,2.2-6.6,3.4
				c0,0-0.1-0.1-0.1-0.2c0,0-0.5,0.3-1,0.6c-0.5,0.3-1,0.6-1,0.6c-1.1,0.4,1-1.1,4.2-2.8c3.1-1.8,7.4-3.6,10.1-4.5
				c0-0.1-0.1-0.2-0.1-0.2c0,0-0.6,0.2-1.1,0.3c-0.5,0.2-1.1,0.4-1.1,0.4l0-0.1c3.3-1.2,6.4-2,9.5-2.3c3.2-0.3,6.4,0,9.7,1.3
				c-0.3-0.1-0.6-0.3-1-0.4c-0.4-0.1-0.8-0.2-1.2-0.3c-0.4-0.1-0.8-0.2-1.2-0.3c-0.4-0.1-0.8-0.1-1-0.1c0-0.1,0-0.1-1.1-0.3
				c2.3,0.2,4.9,0.9,7.2,2.1c2.4,1.2,4.2,3.1,5.8,4.9c0.7,0.9,0.3-0.3-2.2-2.8c-2.7-2.3-4.9-3.5-8.4-4.2l0-0.1
				c0.6,0.2,1.2,0.3,1.9,0.5c0.7,0.2,1.4,0.5,2.1,0.8c0.7,0.2,1.3,0.7,1.9,1.1c0.3,0.2,0.6,0.3,0.9,0.5c0.3,0.2,0.5,0.4,0.7,0.6
				c0.5,0.4,0-0.1-0.4-0.5c-0.4-0.4-1-0.7-0.4-0.5c0.5,0.3,1,0.8,1.4,1.1c0.2,0.2,0.5,0.4,0.7,0.6c0.2,0.2,0.4,0.4,0.7,0.6
				c-0.6-0.7-1.4-1.3-2.2-1.9c-0.4-0.3-0.8-0.6-1.3-0.9c-0.5-0.3-0.9-0.5-1.4-0.8c-1.9-0.9-4-1.6-5.8-1.8c-1.2-0.3-2.4-0.3-2.4-0.4
				c-3-0.1-5.7,0.4-8.1,0.9c-2.3,0.5-4.3,1.1-6.1,1.6c-0.3,0.1-0.8,0.3-1.6,0.6c-0.7,0.3-1.6,0.7-2.5,1.2
				C438,299.7,436,300.8,434.5,301.7z"/>
		</g>
	</g>
</g>
<g>
	<g>
		<g>
			<path fill="#3F3B3C" d="M363,343.1c1.5-0.5,3.1-0.9,4.6-1.3c0.8-0.2,1.6-0.3,2.3-0.5c0.8-0.2,1.6-0.3,2.4-0.4
				c-13.4,2-26.4,8.5-36.3,18c-10,9.6-17.1,22.1-20.3,35.6c-3.2,13.4-2.6,27.6,1.7,40.4c4.2,12.8,12.1,24.1,22.1,32.2
				c0.6,0.5,1.4,1.2,2.3,1.8c0.4,0.3,0.9,0.7,1.4,1c0.5,0.3,1,0.7,1.5,1c0.5,0.3,1,0.7,1.5,1c0.5,0.3,1,0.6,1.5,0.9
				c0.5,0.3,0.9,0.6,1.4,0.8c0.4,0.2,0.8,0.5,1.2,0.6c2.8,1.6,5.9,2.9,9.1,4c0.8,0.3,1.6,0.6,2.4,0.8c0.8,0.2,1.7,0.5,2.5,0.7
				c0.8,0.2,1.7,0.4,2.6,0.6l1.3,0.3l1.3,0.2c3.4,0.6,7.1,1,10.7,1c3.6,0.1,7.3-0.2,10.9-0.8c3.6-0.6,7.2-1.4,10.6-2.6
				c3.4-1.2,6.7-2.6,9.9-4.2c6.3-3.3,11.8-7.4,16.4-12c4.6-4.5,7.9-9.2,9.9-12.6c1-1.7,1.8-3.1,2.2-4.1c0.5-1,0.7-1.5,0.7-1.5
				c1.4-2.9,2.5-5.9,1-3.1c-1.3,2.9-4.1,7.7-7,11.5c-1.4,1.9-2.8,3.6-3.9,4.7c-1.1,1.1-1.8,1.9-1.8,1.8c0,0,0.1-0.2,0.3-0.4
				c0.2-0.3,0.6-0.6,0.9-1.1c0.8-0.9,1.8-2.1,2.8-3.3c0,0,0.3-0.6,0.7-1.3c0.3-0.4,0.6-0.9,0.9-1.4c0.3-0.5,0.7-1.1,1-1.7
				c1.4-2.3,2.9-5.1,3.6-6.5c0.2-0.3,0.5-0.9,0.8-1.7c0.3-0.8,0.8-1.6,1.2-2.7c0.9-2.1,1.8-4.6,2.6-7.2c0.2-0.7,0.4-1.3,0.6-2
				c0.2-0.7,0.3-1.3,0.5-1.9c0.3-1.3,0.5-2.5,0.8-3.6c0.4-2.2,0.6-3.9,0.7-4.7c0.3-2.3,0.3-2.3-0.1-0.9c-0.4,1.5-0.9,4.5-1.9,7.9
				c-1,3.5-2.5,7.6-4.3,11.3c-1.8,3.8-3.8,7.2-5.5,9.7c-3.5,5-0.2-0.2-0.4-0.3c-0.8,1.3-1.6,2.4-2.3,3.3c-0.7,1-1.4,1.9-2.2,2.7
				c-0.4,0.4-0.7,0.9-1.1,1.3c-0.4,0.4-0.8,0.9-1.2,1.3c-0.8,0.9-1.8,1.8-2.8,2.9c-0.1,0.1-0.8,0.8-2.2,2c-1.4,1.2-3.4,2.8-5.7,4.5
				c-2.3,1.6-5,3.2-7.6,4.6c-2.7,1.3-5.2,2.5-7.4,3.2c0,0-0.2,0.1-0.6,0.2c-0.4,0.2-1,0.4-1.9,0.7c-0.9,0.3-2.1,0.7-3.6,1
				c-0.7,0.2-1.6,0.4-2.5,0.6c-0.9,0.2-1.9,0.4-3.1,0.6c-3,0.5-3,0.4-3,0.5c0-0.1,0-0.1,0-0.1c-1.5,0.2-3.7,0.4-6,0.4
				c-2.3,0-4.5-0.1-6-0.2c0-0.1,0-0.1,0-0.1c-0.7-0.1-1.5-0.1-2.2-0.2l-0.6-0.1l-0.1,0l0,0l0,0c0,0-0.1,0,0.1,0l0,0l0,0l-0.1,0
				l-0.3,0l-1.2-0.2c-0.8-0.1-1.6-0.2-2.3-0.4l-2.2-0.5c-2.9-0.7-5.8-1.6-8.6-2.8c0-0.1,0-0.1,0-0.1c-1.4-0.5-2.7-1.2-3.8-1.7
				c-0.5-0.3-0.9-0.5-1.2-0.6c-0.3-0.2-0.4-0.3-0.4-0.3c0-0.1,0-0.1,0.1-0.1c-0.7-0.3-1.5-0.8-2.3-1.3c-0.9-0.5-1.7-1-2.5-1.5
				c-0.8-0.5-1.5-1-2-1.3c-0.5-0.4-0.8-0.6-0.8-0.6c0,0,0,0-0.1,0.1c-4.9-3.5-8.6-7.3-11.7-11.1c-3.1-3.8-5.5-7.6-7.5-11.6
				c-1.3-2.7-2.5-5.5-3.6-8.5c-1-3-1.8-6.1-2.5-9.4c-0.6-3.2-1-6.6-1.2-10c-0.2-3.4,0-6.9,0.3-10.3l0.3-2.6l0.4-2.6
				c0.1-0.9,0.3-1.7,0.5-2.6c0.2-0.8,0.3-1.7,0.6-2.5c0.8-3.4,2-6.7,3.3-9.9c2.7-6.5,6.4-12.4,10.8-17.5c2-2.3,4-4.5,1.8-2.4
				c2.1-2.2,4.3-4.3,6.6-6.1c2.4-1.9,3-2.3,3.6-2.8c0.3-0.2,0.6-0.5,1.1-0.8c0.5-0.4,1.3-0.9,2.6-1.7c10.3-6.3,22.4-9.5,34.5-9
				c1.5,0.1,3,0.2,4.5,0.4l1.1,0.1l0.3,0l0.1,0c0.1,0,0,0,0,0l0,0l0.1,0l0.6,0.1l2.3,0.4c0.8,0.1,1.5,0.3,2.2,0.5
				c0.7,0.2,1.4,0.3,2.2,0.5l2.2,0.6l2.1,0.7c2.8,1,5.6,2.2,8.3,3.6c1.4,0.7,2.6,1.5,3.9,2.2c1.3,0.8,2.5,1.6,3.7,2.6
				c9.8,7.1,17.4,17.1,21.9,28.3c4.6,11.2,6,23.6,4.4,35.7c0.8-6,0.9-11.4,0.5-16.6c-0.5-5.3-1.6-10.5-3.6-16.2c0,0,0.1,0,0-0.4
				c-0.1-0.4-0.3-1.1-0.9-2.5c-1.7-4.2-3.9-8.5-6.6-12.4c-2.6-3.9-5.7-7.5-8.8-10.5c-6.3-6.1-13-9.9-17.1-11.9
				c-0.7-0.3-1.4-0.7-2.1-1c-0.8-0.3-1.7-0.7-2.7-1.2c-2.1-0.8-5-1.8-9.5-2.7c3,0.6,5.9,1.3,8.8,2.4c0-0.1,0.1-0.2,0.1-0.2
				c-2.9-1.1-6-1.9-9.3-2.5c-0.8-0.1-1.7-0.3-2.5-0.4c-0.8-0.1-1.7-0.2-2.5-0.3c-0.8-0.1-1.7-0.1-2.6-0.2c-0.9-0.1-1.7-0.1-2.6-0.1
				c-3.5-0.1-6.9,0.1-10.2,0.6c-1.7,0.2-3.3,0.6-4.9,0.9c-1.6,0.4-3.1,0.8-4.6,1.2c0,0,0-0.1-0.1-0.2c0,0-1.5,0.4-2.9,1
				c-1.5,0.5-2.9,1.1-2.9,1.1c-1.5,0.5-0.6,0,1.7-1c2.4-1,6.3-2.3,11.1-3.3c4.7-1,10.3-1.3,15.6-1c5.3,0.3,10.2,1.3,14,2.4
				c0-0.1,0-0.2,0.1-0.2c0,0-0.4-0.1-0.9-0.3c-0.6-0.1-1.3-0.4-2.1-0.5c-0.8-0.2-1.5-0.3-2.1-0.5c-0.6-0.1-1-0.2-1-0.2l0-0.1
				c9.2,1.8,17.2,5.3,24.3,10.2c7,4.9,13.2,11.1,18.2,19c-0.8-1.3-2.1-3.3-3.6-5.1c-1.4-1.9-3-3.6-4-4.8c0,0,0,0-0.2-0.3
				c-0.2-0.3-0.8-0.9-1.9-2c2.3,2.2,4.4,4.7,6.5,7.4c2.1,2.7,4,5.7,5.7,8.8c3.4,6.2,5.7,12.9,7.1,19c0.2,0.8,0.3,1.1,0.3,1.1
				c0,0,0-0.4-0.2-1.2c-0.3-1.5-0.9-4.6-2.4-9.1c-1.6-4.4-3.3-8-5.2-11.4c-2-3.4-4.2-6.7-7.2-10.3l0.1-0.1c2.1,2.4,4.4,5.6,6.4,8.9
				c2,3.4,3.7,6.9,5,9.8c0.6,1.5,0.1,0-0.5-1.5c-0.6-1.5-1.2-2.9-0.5-1.5c1.3,2.9,2.4,5.8,3.4,8.8c-1.4-4.5-3.5-9.7-6.3-14.5
				c-2.7-4.8-6.1-9.2-9.3-12.7c-1-1.2-2.2-2.3-3-3.2c-0.9-0.8-1.4-1.4-1.4-1.4c-3-2.6-6-4.8-9-6.8c-3-1.9-6-3.4-8.9-4.7
				c-2.9-1.2-5.7-2.3-8.4-3c-1.3-0.4-2.7-0.7-3.9-1c-1.2-0.3-2.4-0.5-3.6-0.7c-0.4-0.1-1-0.1-1.8-0.2c-0.8-0.1-1.7-0.2-2.7-0.3
				c-2.1-0.2-4.7-0.3-7.5-0.1c-2.8,0.1-5.8,0.5-8.6,1C368,341.7,365.3,342.4,363,343.1z"/>
		</g>
	</g>
</g>
<g>
	<g>
		<g>
			<path fill="#3F3B3C" d="M549.3,221.2c-1.6-4.1-3.6-7.9-5.7-11.7c-2.3-3.6-4.7-7.3-7.6-10.4c2.9,3.2,5.3,6.8,7.6,10.5
				c2.1,3.8,4.2,7.7,5.7,11.8c3.3,8.1,5.6,16.7,6.8,25.5c2.5,17.5,1.3,35.7-4.1,52.6c-2.8,8.4-6.6,16.5-11.7,23.8l-1.9,2.7l-2.1,2.6
				c-0.7,0.8-1.4,1.7-2.1,2.5l-2.3,2.4c-1.4,1.6-3.2,3.1-4.8,4.6l-1.3,1.1l-0.2,0.1c0.1-0.1,0,0,0,0l-0.1,0.1l-0.3,0.3l-0.7,0.5
				l-2.6,2.1c-1.7,1.4-3.6,2.7-5.4,4l-2.8,1.8l-1.4,0.9l-1.4,0.8c-3.8,2.3-7.8,4.2-11.9,5.6c-4.1,1.3-8.4,2-12.5,1.4
				c-2-0.3-4-1-5.8-1.9c-1.8-1-3.4-2.3-4.8-3.8c-2.8-3-4.9-6.9-6.3-10.9c-0.7-2-1.2-4.1-1.6-6.2c-0.2-1.1-0.3-2.1-0.4-3.2
				c0-0.5-0.1-1.1-0.1-1.6l0-0.7c0-0.3,0-0.6,0-0.8c0.1-2,0.5-4.1,1.1-6.2c0.6-2.1,1.3-4.1,2.1-6.2c0.4-1.1,0.8-2.2,1-3.6
				c0.1-0.7,0.2-1.5,0-2.4c-0.1-0.5-0.3-1-0.6-1.4c-0.1-0.2-0.4-0.5-0.6-0.7c-0.1-0.1-0.1-0.1-0.2-0.2l-0.2-0.1
				c-0.3-0.2-0.1-0.1-0.2-0.2l-0.1-0.1l-0.2-0.1l-0.5-0.3c-0.3-0.1-0.6-0.3-1-0.4c-0.6-0.3-1.3-0.4-1.9-0.5
				c-0.6-0.1-1.3-0.2-1.9-0.2c-0.6,0-1.3-0.1-1.9,0c-2.5,0.1-4.9,0.7-7.1,1.5c-2.2,0.9-4.4,1.9-6.3,3.2l-1.5,1c-0.5,0.3-1,0.6-1.4,1
				c-0.9,0.7-1.8,1.4-2.7,2.1c-1.7,1.5-3.5,3-5,4.7c-0.8,0.8-1.6,1.6-2.3,2.5l-2.2,2.6c-0.4,0.4-0.8,0.9-1.1,1.3l-1,1.3l-2,2.6
				c-1.4,1.8-2.7,4-3.6,6.1c-0.9,2.2-1.6,4.4-2.1,6.7c-0.9,4.5-1.2,9.1-1.1,13.6c0.1,4.5,0.6,9,1.2,13.3c1.4,8.8,3.5,17.3,6,25.7
				c2.5,8.4,5.4,16.6,8.5,24.6c3.1,8,6.4,15.9,10.1,23.6l0.4,0.8l0.8,0.3c7.8,2.9,15.6,5.3,23.5,7.1c4.4,1.1,11,2.4,17.7,3.2
				c3.3,0.5,6.7,0.7,9.8,0.9c3.1,0.1,5.9,0.3,8.2,0.2c18,0,37.4-4.3,54.8-13.8c4.4-2.3,8.6-5,12.7-7.9c2.1-1.4,4-3,6-4.5
				c1.9-1.6,3.9-3.2,5.7-4.9c3.7-3.4,7.3-7,10.7-10.7c3.4-3.8,6.6-7.7,9.6-11.8c12-16.3,21-34.6,27.5-53.1
				c6.5-18.5,10.5-37.2,12.3-55c0.9-8.9,1.1-17.3,0.9-24.9c-0.1-1.9-0.1-3.6-0.3-5.5c-0.2-1.8-0.3-3.5-0.5-5.1
				c-0.2-1.6-0.3-3.2-0.4-4.8c-0.1-0.8-0.1-1.5-0.2-2.2c-0.1-0.7-0.2-1.4-0.3-2.1c-0.4-2.8-0.7-5.2-1-7.4c-0.2-1.1-0.3-2.1-0.4-3
				c-0.2-0.9-0.3-1.8-0.5-2.5c-0.6-3-0.9-4.7-0.9-4.7c-0.2-1.1-0.4-2.2-0.6-3.3c-0.2-1.1-0.5-2.1-0.7-3c-0.5-1.9-0.9-3.5-1.1-4.6
				c-0.6-2.2-0.7-2.1,0.2,2.2c1,4.3,2,10.4,3.1,17c0.4,3.3,0.8,6.8,1.2,10.2c0.4,3.5,0.6,6.9,0.8,10.2c0.1,1.7,0.3,3.3,0.4,4.9
				c0.1,1.6,0.1,3.1,0.2,4.6c0.1,2.9,0,5.6,0,7.8c-0.1,2.2-0.2,4-0.2,5.3c0,0.6-0.1,1.1-0.1,1.4c0,0.3-0.1,0.5-0.1,0.5
				c0,0,0-0.6,0-1.5c0-1,0.1-2.4,0.1-4c0.1-3.3,0.1-7.8-0.1-12.2c0,0-0.1-0.4-0.1-1.2c-0.1-0.7-0.2-1.8-0.3-3.1
				c-0.3-2.6-0.6-6.2-1-10.1c-0.4-3.9-1.1-8-1.6-11.7c-0.2-1.9-0.6-3.6-0.8-5.1c-0.3-1.6-0.5-2.9-0.7-4c-0.8-4.3-3.7-19.7-9.5-34.1
				c-2.8-7.2-6.3-14.2-9.8-19.5c-3.4-5.3-6.8-9-8.5-10.4c-5-4.3-5.1-4.3-1.9-1.4c3.3,2.6,8.8,9.3,13.5,18.6
				c4.8,9.3,8.9,21,11.7,32.6c2.8,11.6,4.3,23.1,5.3,31.8c0.3,2.2,0.3,3.8,0.4,5c0.1,1.2,0.1,2,0.1,2.4c0,0.8-0.1,0.3-0.2-0.8
				c-0.1-1.1-0.3-2.7-0.4-4.1c-0.1-0.7-0.2-1.3-0.3-1.7c-0.1-0.4-0.1-0.7-0.2-0.7c0.3,2.2,0.4,4.2,0.6,6.2c0.2,2,0.3,3.8,0.4,5.6
				c0.1,0.9,0.1,1.8,0.2,2.6l0,0.6l0,0.3l0,0.3c0,0.4,0,0.9,0.1,1.3c0.1,1.7,0.1,3.3,0.1,5c0.1,6.5-0.2,13.1-1,21.9
				c0,0-0.1,0.8-0.3,2.3c-0.2,1.5-0.5,3.6-0.8,6.3c-0.8,5.3-2,12.6-3.9,20.6c-1.9,8-4.4,16.7-7.3,24.8c-2.9,8.1-6.1,15.7-8.9,21.6
				c0,0-0.2,0.5-0.8,1.6c-0.5,1.1-1.4,2.8-2.6,5.3c-2.6,4.8-6.7,12.6-14.4,23.2c-2.6,3.5-4,5.2-4.6,6.1c-0.7,0.9-0.7,0.9-0.6,0.9
				c0,0,0,0-0.1-0.1c-2.7,3.4-7.1,8.3-11.9,12.8c-4.7,4.5-9.9,8.6-13.4,11.1c0,0,0,0-0.1-0.1c-7,5.1-14.7,9.3-22.7,12.7
				c-8,3.2-16.4,5.7-25,7c0-0.1,0-0.1,0-0.1c-2.2,0.3-4.3,0.6-6.3,0.8c-1,0.1-2,0.2-2.9,0.3c-0.9,0-1.8,0.1-2.6,0.1
				c-3.2,0.2-5.4,0.1-5.4,0.1c0-0.1,0-0.1,0-0.1c-2.2,0.1-4.9-0.1-7.7-0.1c-1.4-0.1-2.9-0.2-4.3-0.3c-1.4-0.1-2.9-0.2-4.2-0.4
				c-1.4-0.2-2.6-0.3-3.8-0.4c-1.2-0.2-2.2-0.3-3.1-0.5c-0.9-0.1-1.6-0.3-2.1-0.3c-0.2,0-0.4-0.1-0.6-0.1c-0.1,0-0.2,0-0.2-0.1
				c0,0.1,0,0.1,0,0.1c-11.7-2.1-22.1-5.2-31.5-8.7c0.5,0.4,0.9,0.8,1.3,1.2c-4.3-9.1-7.9-17.8-11.1-26.3c-3.2-8.5-6-16.7-8.3-25.1
				c-2.3-8.4-4.4-17.3-5.4-26.3c-0.5-4.5-0.7-9.1-0.4-13.7c0.3-4.6,1.1-9.1,3-13.1c0.5-1,1-2,1.6-2.9l0.5-0.7l0.1-0.1
				c0,0-0.1,0.1,0,0l0,0l0.1-0.2l0.3-0.4l1.1-1.5c0.7-1,1.5-1.9,2.2-2.9c0.8-0.9,1.5-1.8,2.3-2.7c3.2-3.6,6.6-7,10.5-9.8
				c1-0.6,2-1.3,3-1.9l1.5-0.8c0.5-0.3,1-0.6,1.6-0.8l1.6-0.7c0.5-0.2,1.1-0.3,1.6-0.5c0.5-0.2,1.1-0.3,1.6-0.4l0.8-0.2
				c0.3,0,0.5,0,0.8-0.1l0.8-0.1c0.3,0,0.5,0,0.8,0l0.8,0l0.8,0.1c0.5,0,1,0.2,1.4,0.3c0.2,0.1,0.4,0.2,0.6,0.2
				c0.1,0,0.2,0.1,0.2,0.1l0.1,0.1l0.1,0l0,0c0.1,0.1-0.2-0.1-0.1-0.1l0.2,0.1c0,0,0.1,0.1,0.1,0.1c0,0,0,0-0.1,0
				c0,0-0.1-0.1-0.1-0.1c0,0,0,0,0,0c0-0.1,0-0.1,0-0.1c0,0.1,0,0.5-0.1,1c-0.2,1-0.6,2.1-1.1,3.3c-0.9,2.4-1.8,5-2.4,7.7
				c-0.6,2.7-1,5.4-0.7,8.4c0.2,2.8,0.7,5.4,1.4,8.1c0.7,2.6,1.6,5.2,2.9,7.7c1.2,2.5,2.7,4.9,4.6,7c1.9,2.1,4.1,4,6.7,5.4
				c2.6,1.4,5.5,2.2,8.3,2.5l2.1,0.2c0.7,0,1.4,0,2.1-0.1l1.1,0l1-0.1l2.1-0.3c5.5-1.1,10.4-3.3,15.1-5.8c4.6-2.6,8.9-5.6,13.1-8.7
				l3-2.4l1.5-1.2l0.2-0.2l0.3-0.2l0.4-0.3l0.7-0.6l2.8-2.5l0.7-0.6l0.7-0.7l1.4-1.4c0.9-1,1.8-1.9,2.7-2.9l2.4-3l1.2-1.5
				c0.4-0.5,0.7-1.1,1.1-1.6c0.7-1.1,1.5-2.1,2.2-3.2c1.2-1.9,2.3-3.9,3.4-5.6c0.9-1.7,1.7-3.3,2.2-4.3c1-2,0.9-2.1-1.2,1.9
				c4.2-8,7.2-16.7,9.2-25.5c1.9-8.8,1.8-11.1,2.1-13.4c0.1-1.1,0.2-2.2,0.3-4.2c0-1,0.2-2.2,0.2-3.7c0-1.5,0.1-3.3,0.1-5.6
				c-0.1-5.9-0.5-11.8-1.4-17.6c-0.9-5.8-2.1-11.6-3.9-17.2c-1.8-5.6-3.9-11.2-6.6-16.4c-2.7-5.3-6-10.3-9.9-14.8
				c-3.9-4.5-8.4-8.6-13.7-11.6c-1.4-0.7-2.7-1.4-4.1-2.1l-4.3-1.6l-2.1-0.6l-2.2-0.6c-1.5-0.3-2.9-0.7-4.4-0.9
				c-11.7-2.1-23.6-2.1-35.2-0.7c-11.7,1.5-23.2,4.6-33.8,9.9c-5.3,2.7-10.4,5.9-14.8,9.9c-4.5,4-8.4,8.7-11.1,14.1
				c-2.8,5.4-4.4,11.4-4.7,17.4c-0.2,3-0.1,6,0.2,9c0.1,1.5,0.4,3,0.6,4.4c0.3,1.5,0.6,2.9,1,4.4c3,11.6,8.7,22.1,15.2,31.8
				l-0.2-0.5c0,0.1,0.1,0.5,0.2,0.8c0.1,0.3,0.1,0.7,0.1,1c0,0.7,0.1,1.4,0,2.1c0,0.7-0.1,1.4-0.2,2.1c-0.1,0.7-0.2,1.4-0.4,2.1
				c-0.6,2.8-1.6,5.6-2.9,8.2c-2.5,5.3-6,10.2-10,14.7l-0.2,0.2l-0.1,0.1c-0.1,0.1,0.1-0.1,0,0l0,0l-0.1,0.1l-0.4,0.4l-0.4,0.4
				l-0.3,0.2c-0.2,0.2-0.4,0.3-0.7,0.5c-0.2,0.2-0.5,0.3-0.7,0.4c-1,0.4-2.1,0.5-3.2,0.1c-2.3-0.7-4.6-2.5-6.6-4.6
				c-4-4.2-7.3-9.3-10.3-14.5c-6-10.5-10.9-21.7-15.4-33c-2.2-5.7-4.3-11.4-6.2-17.2c-0.9-2.9-1.8-5.8-2.6-8.7
				c-0.4-1.5-0.8-2.9-1.1-4.4c-0.3-1.4-0.6-2.9-0.7-4.2c0.2,1.9,0.7,4.1,1.2,6.1c0.5,2,1.1,4.1,1.7,6.1c1.2,4,2.4,7.8,3.8,11.6
				c2.6,7.5,5.4,14.7,8.5,21.8c3.1,7.1,6.3,14,10.2,21c2,3.4,4.1,6.9,6.5,10.2c1.2,1.6,2.5,3.3,3.9,4.8c1.4,1.5,2.9,2.9,4.6,4
				c0,0,0,0,0.1,0.1c0.1,0.1,0.3,0.3,0.7,0.5c0.4,0.2,1.1,0.6,2,0.9c0.5,0.1,1.1,0.2,1.7,0.2c0.6-0.1,1.3-0.2,2.1-0.6
				c0.3-0.2,0.6-0.3,0.8-0.5l0.4-0.3l0.2-0.1l0.2-0.2l0.4-0.4l0.1-0.1l0.1-0.1l0,0l0,0l0,0c-0.1,0.1,0,0-0.1,0.1l0.2-0.2l0.8-0.9
				c1-1.3,2.1-2.5,3.1-3.8l1.5-2c0.5-0.7,0.9-1.4,1.4-2.1c0.9-1.4,1.7-2.8,2.5-4.2c1.5-2.9,2.8-6,3.6-9.1l0.3-1.2l0.2-1.2
				c0.2-0.8,0.2-1.6,0.3-2.4c0-0.8,0.1-1.6,0-2.4c0-0.4-0.1-0.8-0.1-1.1c-0.1-0.3-0.1-0.8-0.2-1l0.2,0.4
				c-5.8-8.6-10.7-17.8-13.8-27.4c-1.5-4.8-2.6-9.6-3-14.5c-0.4-4.8-0.1-9.6,0.8-14.1c0.9-4.5,2.6-8.6,4.6-12.3
				c2.1-3.7,4.5-6.8,7.1-9.5c5.2-5.3,10.6-8.8,15.1-11.3c4-2.2,8.1-4,14.4-6.2c3.2-1.1,7-2.2,11.6-3.2c4.6-1,10.2-1.9,16.9-2.5
				c-8.9,0.7-17.8,2.3-26.3,5c0,0.1,0.1,0.2,0.1,0.2c8.5-2.7,17.9-4.4,27.7-5.1c9.7-0.6,19.9-0.2,29.7,2c1.2,0.3,2.5,0.6,3.7,0.9
				c1.2,0.4,2.4,0.7,3.6,1.2c1.2,0.5,2.4,0.9,3.5,1.4c1.1,0.6,2.3,1.2,3.4,1.7c4.4,2.6,8.2,5.8,11.6,9.4c0.8,0.9,1.6,1.8,2.4,2.8
				c0.8,0.9,1.5,1.9,2.2,2.9c1.5,1.9,2.7,4,4,5.9c2.4,4.1,4.5,8.2,6.1,12.4c0,0-0.1,0-0.2,0.1c0,0,0.4,1,1.1,2.6
				c0.5,1.6,1.3,3.7,2,5.8c0.6,2.1,1.3,4.3,1.7,5.9c0.4,1.6,0.6,2.7,0.6,2.7c0.5,2.2,0.5,2.6,0.2,1.6c-0.1-0.5-0.4-1.4-0.7-2.6
				c-0.1-0.6-0.3-1.3-0.5-2c-0.2-0.7-0.5-1.6-0.7-2.4c-0.3-0.9-0.5-1.8-0.8-2.8c-0.3-1-0.7-2.1-1.1-3.2c-0.4-1.1-0.8-2.3-1.3-3.5
				c-0.5-1.2-1-2.5-1.6-3.8c-2.3-5.1-5.3-10.9-9.5-16.5c-4.2-5.5-9.5-11-16.1-14.7c-6.7-3.8-14.4-5.4-21.9-6.4
				c-15-1.8-29.6-0.2-40.4,2.3c0,0.1,0,0.2,0.1,0.2c0,0,4.3-1,8.7-1.6c4.4-0.7,8.8-1,8.8-1l0,0.1c-12.1,1-24,3.6-35.2,8.4
				c-5.6,2.4-10.9,5.4-15.6,9.1c-4.8,3.7-9,8.2-12.2,13.3c-3.2,5.2-5.2,11-5.8,17c-0.3,3-0.4,6-0.2,9c0.3,3,0.7,6,1.4,9
				c2.8,11.8,8.5,22.7,15.3,32.7l0,0l0,0c0.5,1.7,0.5,3.4,0.4,5.2c0.1-1.7,0.1-3.5-0.4-5.2l0,0l0,0c-5.6-8.4-10.5-17.3-13.6-26.9
				c0,0,0.1,0-0.3-1.1c-0.2-0.5-0.4-1.3-0.7-2.5c-0.3-1.2-0.7-2.8-1.1-5c2.3,12,8.3,24.1,15.8,35.4l0,0l0,0c0.4,1.6,0.5,3.3,0.4,4.9
				c-0.1,1.6-0.3,3.3-0.7,4.8c-0.8,3.2-1.9,6.3-3.4,9.2c-0.3,0.7-0.8,1.4-1.2,2.2c-0.4,0.7-0.8,1.4-1.2,2.1c-0.9,1.4-1.7,2.8-2.7,4
				c-1,1.3-1.9,2.6-3,3.8c-1.1,1.2-2,2.6-3.3,3.6c-1.3,1-2.9,1.8-4.5,1.8c-1.7,0-3.2-0.5-4.6-1.3c-1.4-0.8-2.7-1.8-3.8-2.8
				c-1.2-1.1-2.2-2.2-3.2-3.4c-4-4.8-7.2-10-10-15c-0.5-1-0.9-1.7-1.2-2.2c-0.1-0.2-0.2-0.4-0.3-0.5c-0.1-0.1-0.1-0.2-0.1-0.2
				c0,0,0,0.1,0.1,0.2c0.1,0.1,0.2,0.3,0.3,0.6c0.3,0.5,0.6,1.2,1.2,2.2c1,2,2.7,4.9,5.1,8.6c1.2,1.9,2.7,3.9,4.4,6.1
				c1.8,2.1,3.9,4.5,6.7,6.3c1.8,1.1,3.9,2,6.2,1.8c2.3-0.2,4.3-1.6,5.6-3.2l2-2.4c0.7-0.8,1.3-1.6,1.9-2.4l1.9-2.5l1.7-2.6
				c2.2-3.5,4.1-7.3,5.4-11.2c0.6-2,1.1-4,1.3-6.1c0.1-1,0.2-2.1,0.1-3.2c0-1.1-0.1-2.1-0.4-3.2l0-0.1l-0.1-0.1
				c-4-5.9-7.5-12.1-10.4-18.6l0.1,0c2.5,5.7,6.1,12.2,10.4,18.6l0.1,0.1l0,0.1c0.9,3.7,0.4,7.4-0.5,10.9c-0.9,3.5-2.4,6.8-4.1,9.9
				c-0.4,0.8-0.9,1.5-1.3,2.3c-0.5,0.7-0.9,1.4-1.4,2.2c-0.9,1.5-2,2.8-2.9,4.1c-1,1.3-2,2.5-3,3.7c-0.3,0.3-0.5,0.6-0.8,0.9
				c-0.3,0.3-0.5,0.5-0.8,0.8c-0.3,0.3-0.6,0.5-0.9,0.8c-0.3,0.2-0.7,0.4-1,0.6c-1.1,0.6-1.7,0.7-1.8,0.7c-0.1,0,0.2,0,0.7-0.2
				c0.3-0.1,0.6-0.3,1-0.4c0.4-0.2,0.8-0.5,1.2-0.8c0.4-0.3,0.9-0.7,1.2-1.1c0.2-0.2,0.4-0.3,0.6-0.6l0.5-0.6
				c1.5-1.7,2.9-3.4,3.6-4.3c0.7-0.9,0.7-0.9-0.6,0.9c-0.7,0.9-1.4,1.7-2.1,2.6l-1.1,1.3l-0.3,0.3c-0.2,0.2-0.2,0.2-0.3,0.3
				l-0.6,0.6c-0.9,0.8-2,1.5-3.2,2c-1.2,0.4-2.5,0.5-3.7,0.3c-1.2-0.2-2.4-0.6-3.4-1.2c-1.1-0.6-2-1.2-2.9-1.9
				c-1.8-1.5-3.4-3.1-4.8-4.8c1.4,1.7,3,3.4,4.8,4.9c0.9,0.7,1.9,1.5,3,2c1.1,0.6,2.3,1.1,3.7,1.2c1.3,0.2,2.7-0.1,4-0.6
				c0.3-0.1,0.6-0.3,0.9-0.5c0.3-0.2,0.6-0.3,0.8-0.6l0.8-0.7l0.6-0.7c0.9-1,1.6-1.9,2.4-2.9c0.8-0.9,1.6-1.9,2.3-3
				c3-4,5.7-8.4,7.6-13.2c0.5-1.2,0.9-2.4,1.3-3.7c0.3-1.3,0.6-2.5,0.8-3.8c0.4-2.6,0.5-5.1-0.2-7.9l0-0.1l-0.1-0.1
				c-5.9-8.9-10.7-18-13.5-26.7c-1.3-4.2-2.2-8.4-2.6-11.7c-0.2-1.6-0.3-3-0.3-3.9c0-0.9,0-1.5,0-1.5c0-2.7,0.1-5.4,0.5-8
				c0.4-2.6,1.1-5.1,1.9-7.5c1.7-4.8,4.3-9.1,7.5-12.8c6.3-7.4,14.4-12.4,22.3-16c8-3.5,16-5.7,23.5-7c7.5-1.3,14.7-1.8,21.2-1.8
				c2.2,0,6.6,0,12.2,0.7c2.8,0.3,6,0.8,9.3,1.5c0.8,0.2,1.7,0.4,2.5,0.6c0.4,0.1,0.8,0.2,1.3,0.3c0.4,0.1,0.9,0.3,1.3,0.4l0.7,0.2
				c0.2,0,0.4,0.2,0.6,0.2c0.4,0.2,0.8,0.3,1.3,0.5c0.8,0.3,1.7,0.6,2.6,1c6.7,3.2,13,8.4,17.8,14.7
				C543.4,208.3,546.9,215.1,549.3,221.2z"/>
		</g>
	</g>
</g>
<path fill="#FFFFFF" d="M524.5,263.5c-17.1-50.9-72.7-34.5-72.7-34.5s17,38.2-20.6,60.1c0,0-43.3-37-23.2-71.8
	c20.1-34.8,69.6-55,110-36c40.3,19,74.9,91.8,31.5,150c0,0-23.9,31.8-55,29.2C494.4,360.5,542.1,310.3,524.5,263.5z"/>
<path fill="#FFFFFF" d="M367,232.2c0,0-9.8-3.8-34.7-3.1c0,0-4.1,44,60.3,121.9c0,0,2.1,1.1,2,2.5c-19,5.8-34.1,22.8-37.1,44.7
	c-4.2,29.5,15.1,56.7,43,60.6c27.9,3.9,54.8-16.7,58.1-46.3C466.8,337.2,415.3,349.3,367,232.2z"/>
<g>
	<g>
		<g>
			<path fill="#3F3B3C" d="M450.1,386.3c0.4,1.3,0.9,2.7,1.3,4c-1.8-6.1-4.1-12.1-6.9-17.9c-0.7-1.5-1.4-2.9-2.1-4.4
				c-0.7-1.4-1.5-2.9-2.3-4.3c-0.8-1.4-1.6-2.8-2.4-4.2c-0.4-0.7-0.8-1.4-1.3-2.1l-0.6-1l-0.3-0.5l-0.1-0.1c0,0,0,0,0,0
				c0,0,0,0,0,0.1l-0.2-0.5c-0.5-0.7-1.3-1.3-2.2-1.4c-0.4-0.1-0.9-0.1-1.3,0c-0.3,0.1-0.6,0.2-0.8,0.3l-0.1,0.1l-0.1,0l0,0
				l-0.2,0.1c-1.5,1-1.9,3.2-0.9,4.7c0.5-1,1.1-2.1,1.6-3.1h0l0,2l-1.1,1l-0.3,0.2c-0.1,0.1-0.1,0.1-0.1,0.1l0,0l0,0l0,0.1l0.1,0.2
				l0.2,0.3l0.4,0.6l0.9,1.5c0.6,1,1.2,2,1.8,3c1.1,2.1,2.2,4.1,3.2,6.1c1,2.1,2,4.2,2.9,6.3l0.4,0.8l0.2,0.4l0,0.1l0,0l0,0l0,0
				c0,0.1,0-0.1,0-0.1l0,0l0.1,0.2l0.6,1.6c0.4,1,0.8,2.1,1.2,3.1c0.4,1.3,1.3,3.9,1.7,5.2c1.7,5.1,3.2,11,4.2,17
				c0.2,1.5,0.5,3,0.6,4.5c0.1,1.5,0.2,2.9,0.3,4.3c0.1,1.5,0,3,0,4.4c0,0.4,0,0.7,0,1.1l0,0.5l0,0.1l0,0l0,0c0,0,0,0.1,0-0.1l0,0
				l0,0.1l0,0.3c-0.1,0.7-0.1,1.3-0.2,2c-0.3,2.6-0.5,4.9-0.8,6.6c-0.1,0.8-0.2,1.5-0.3,1.9c-0.1,0.4-0.1,0.7-0.1,0.7
				c-0.3,1.3-0.5,2.6,0,1.4c0.5-1.3,1.1-3.5,1.6-5.5c0.2-1,0.4-1.9,0.5-2.6c0.1-0.7,0.2-1.1,0.3-1.1c0.1,0-0.1,1.4-0.4,2.7
				c0.3,0-0.2,4.2-0.6,5.5c-0.1,0.3-0.2,1.1-0.6,2c-0.3,1-0.7,2.1-1.1,3.2c-0.4,1.1-1,2.2-1.3,3.1c-0.2,0.4-0.1,0.8,0.1,1
				c0.1,0.1,0.2,0.2,0.2,0.3c0.1,0.1,0.2,0.1,0.3,0.2c0.9,0.5,0.9,0.5,0.4,0c-0.1-0.1-0.3-0.3-0.5-0.4c-0.1-0.1,0-0.1-0.1-0.2
				c0-0.1,0-0.1-0.1-0.2c0-0.2,0-0.3,0.1-0.4c0.2-0.3,0.4-0.6,0.6-1c0.4-0.7,0.9-1.5,1.3-2.3c0.4-0.9,0.9-1.8,1.2-2.6
				c0.2-0.4,0.4-0.9,0.6-1.3c0.2-0.4,0.3-0.9,0.5-1.3c0.3-0.8,0.6-1.6,0.7-2.3c0.8-2.8,0.3,0.1,0.5,0.1c0.6-2.8,1-4.2,1.3-7.1
				c0,0,0-0.1,0.1-0.4c0-0.2,0.1-0.6,0.1-1c0-0.2,0-0.5,0.1-0.7c0-0.1,0-0.3,0-0.4l0-0.1l0-0.1l0-0.1l0-0.2c0-0.6,0-1.2,0.1-1.8
				c0-1.3,0.1-2.7,0.1-4.1c-0.1-1.4-0.2-2.8-0.2-3.9c0,0,0-0.4-0.1-1.3c-0.1-0.9-0.3-2.3-0.6-4.4c-0.2-1.4-0.3-1.4-0.3-1.4
				c0.1,0,0.1,0,0.1,0c-0.4-1.4-0.9-4.2-1.2-5.5c0.1,0,0.1,0,0.1,0c-0.4-1.4-0.8-2.7-1.1-4.1l-0.5-2c-0.2-0.7-0.4-1.3-0.7-2
				c0.1,0,0.1,0,0.1,0c-0.4-1.3-0.9-2.7-0.8-2.7c0.1,0,0.1,0,0.1,0c-0.4-1.4-1.5-4-1.4-4c-0.1,0-0.1,0-0.1,0c-0.5-1.3-1-2.5-1.5-3.7
				c-0.2-0.6-0.5-1.1-0.7-1.7c-0.1-0.3-0.2-0.5-0.3-0.8l-0.1-0.3l-0.1-0.2l-0.2-0.4c-0.9-2-1.8-3.9-2.7-5.8
				c-0.2-0.5-0.5-1.1-0.7-1.7c-0.3-0.6-0.6-1.1-0.9-1.7c-0.6-1.1-1.2-2.3-1.9-3.5c-0.6-1.2-1.3-2.4-2-3.5c-0.4-0.6-0.7-1.2-1.1-1.8
				c-0.2-0.3-0.4-0.7-0.7-1l-0.7-1.1c-0.6,1.5-1.3,2.9-1.9,4.4h0l2.2-4.1c0.4,0.6,0.2,1.3-0.3,1.7l-0.3,0.2l0,0l0,0l0,0l0.1,0
				l0.1-0.1c-0.1,0-0.3,0.2-0.4,0.2c-0.2,0-0.3,0-0.5,0c-0.3-0.1-0.6-0.2-0.8-0.5l-0.3-0.7c0.1,0.2,0.2,0.4,0.3,0.6l0.2,0.3l0.1,0.2
				l0.3,0.4l0.6,0.9c0.4,0.6,0.8,1.2,1.1,1.8c0.7,1.2,1.5,2.4,2.2,3.7c1.4,2.5,2.7,5,4,7.4c0.6,1.2,1.3,2.4,0.8,1.1
				c0.6,1.2,1.1,2.5,1.7,3.7c1.1,2.5,0.7,1.2,1.8,3.7c0.6,1.2,1,2.5,1.5,3.8c0.5,1.3,1,2.5,1.4,3.8l1.3,3.9l1.1,3.9
				c1.3,5.3,2.3,10.6,2.6,16c0.3,2.7,0.1,5.4,0.1,8.1c0,0.1,0,0.4,0,0.5l0,0.5l-0.1,1l-0.1,1l-0.1,1c-0.2,1.3-0.4,2.6-0.7,3.9
				c-0.6,2.6-1.3,5.2-2.2,7.7c-0.2,0.6-0.5,1.2-0.8,1.8c-0.2,0.6-0.5,1.2-0.8,1.8l-0.4,0.9l-0.2,0.4l-0.1,0.2l0,0.1l0,0
				c0,0.1,0.3-0.5,0.2-0.2l0,0l-0.1,0.1l-0.2,0.2c0-0.1,0.1-0.2,0.2-0.2c0,0,0.1-0.1,0.1-0.1c0,0,0,0,0,0c0,0,0,0,0.1,0
				c0,0,0.1,0,0.1,0c0,0,0,0,0,0l0,0c0.4,0,0.1,0,0.2,0l0,0l-0.1,0l-0.1,0c0,0-0.1,0-0.1,0c0.1,0,0.1,0,0.2,0.1
				c-0.1,0-0.1-0.1-0.2-0.1c-0.1,0,0,0,0,0l0.1,0l0.1,0l0,0c-0.1,0,0.2,0-0.2,0l0,0l0,0l0,0c0,0,0,0,0,0c0,0-0.1,0-0.1,0
				c0,0,0,0-0.1,0c0,0,0,0-0.1,0.1c-0.1,0-0.1,0.1-0.2,0.2c0,0.1,0,0,0,0l0.1-0.1l0.1-0.1l0,0l0,0c0-0.1-0.3,0.5-0.2,0.2l0,0l0,0
				l0,0l0.1-0.2l0.2-0.4c0.1-0.3,0.3-0.5,0.4-0.8c0.6-1.1,1-2.1,1.5-3.2c0.9-2.2,1.7-4.4,2.2-7c0,0,0.2,0,0.5-1.3c0.2-1,0.4-2,0.5-3
				c0.1-1,0.3-2,0.4-3.1c0-0.5,0.1-1,0.1-1.6c0-0.5,0-1,0-1.5c0-1,0-2,0.1-3c0-0.5,0-1,0-1.4c0-0.5-0.1-0.9-0.1-1.4
				c-0.1-0.9-0.1-1.7-0.1-2.5c0-1.6-0.2-2.9-0.3-4c-0.2-1.3,0-2.7-0.9-6.8c0.3,1.3,0.6,2.7,0.8,4c0.1,0,0.2,0,0.2,0
				c-0.8-5.4-2.5-12.1-4.3-17.3c0,0,0.1,0,0.2-0.1l-1-2.6c-0.1-0.7,0.1-0.3,0.5,0.7c0.5,1,1.1,2.8,1.8,4.8c0.7,2,1.3,4.4,2,6.7
				c0.6,2.3,1,4.5,1.4,6.2c0.1,0,0.2,0,0.2,0l-0.6-2.7l0.1,0c1.7,8.1,2.2,15.1,1.6,23.4c0-0.7,0.2-1.7,0.2-2.8c0-1,0-2.1,0.1-2.8
				c0.1,0,0.1,0,0.1-1.4c0.2,5.6-0.9,12.5-2.5,17.8c-0.4,1.3,0.3,0.1,1.4-4c0.5-2,0.8-3.8,1-5.5c0.1-0.9,0.2-1.7,0.3-2.6
				c0.1-0.9,0.1-1.9,0.1-2.9l0.1,0c0,0.7,0,1.5-0.1,2.3c-0.1,0.8-0.1,1.7-0.3,2.5c-0.1,0.9-0.2,1.7-0.4,2.6
				c-0.1,0.8-0.3,1.6-0.4,2.3c-0.2,1.4,0.7-2.7,0.5-1.3c-0.2,1.4-0.6,2.8-0.8,4.1c0.5-2.1,1-4.5,1.3-6.9c0.2-1.2,0.2-2.4,0.4-3.6
				c0-1.2,0.1-2.3,0.1-3.4c0.1-1.4,0.2-2.8,0.3-2.8c-0.1-1.8-0.2-3.4-0.3-5c0-0.4,0-0.8-0.1-1.2c0-0.4-0.1-0.8-0.1-1.1
				c-0.1-0.7-0.2-1.5-0.3-2.2c-0.2-2.8-0.7-5.2-1-7.3C453.4,397,451.5,390.2,450.1,386.3z"/>
		</g>
	</g>
</g>
<g>
	<g>
		<g>
			<path fill="#3F3B3C" d="M572,283.3c-0.2,1.3-0.3,2.6-0.5,4c-0.2,1.3-0.5,2.6-0.7,3.9l-0.3,2c-0.1,0.7-0.3,1.3-0.5,1.9
				c-0.3,1.3-0.6,2.6-0.9,3.9c1.4-5.5,2.5-11.1,3-16.7c0.5-5.7,0.6-11.4,0.2-17.1c-0.5-5.7-1.3-11.4-2.6-17
				c-1.4-5.6-3.1-11.1-5.3-16.4c-2.2-5.3-4.8-10.5-7.7-15.4c-2.9-5-6.3-9.7-10-14.1c-3.7-4.4-7.8-8.5-12.3-12.2
				c-1.2-0.9-2.3-1.8-3.4-2.7c-1.2-0.8-2.4-1.7-3.6-2.5c-1.3-0.8-2.5-1.6-3.8-2.3l-1.9-1l-0.9-0.5l-0.5-0.2l-0.2-0.1l-0.1-0.1
				l-0.2-0.1c-10.5-4.9-22-7.3-33.5-7.4c-11.4,0-22.8,2.2-33.2,6.3c-10.5,4.1-20.2,9.9-28.4,17.2c-4.1,3.6-7.9,7.6-11.3,11.9
				c-0.8,1.1-1.7,2.1-2.4,3.3c-0.8,1.1-1.6,2.3-2.2,3.4l-1,1.7c-0.4,0.7-0.7,1.2-1,1.9l-1,1.8l-0.8,1.9c-0.6,1.3-1.1,2.9-1.7,4.7
				c-0.5,1.8-1,3.9-1.2,6c-0.5,4.1-0.3,8.3,0,11.1c1.2,9,5,17.7,10.1,25.7c2.5,4,5.4,7.9,8.5,11.6c3.2,3.7,6.4,7.2,10.2,10.6
				l1.4,1.2l1.6-1c5.3-3.1,10.3-7,14.5-11.7c2-2.4,3.9-4.9,5.5-7.7c1.5-2.8,2.8-5.7,3.7-8.6c1.9-6,2.4-12.2,2-18.2
				c-0.2-3-0.7-5.9-1.3-8.8c-0.3-1.4-0.7-2.8-1.1-4.2c-0.4-1.4-0.9-2.7-1.5-4.2c-0.6,1.2-1.1,2.3-1.6,3.5c1.6-0.5,3.5-0.8,5.2-1.2
				c1.8-0.3,3.5-0.6,5.2-0.8c10.1-1.2,19-0.3,25.2,1.2c0.8,0.2,1.5,0.4,2.2,0.5c0.7,0.2,1.3,0.4,1.9,0.6c1.2,0.3,2.2,0.7,3,1
				c0.4,0.1,0.8,0.3,1.1,0.4c0.3,0.1,0.6,0.2,0.8,0.3c0.4,0.2,0.6,0.3,0.6,0.3c0.6,0.3,1.2,0.5,1.7,0.8c0.5,0.3,1.1,0.6,1.5,0.8
				c0.5,0.3,0.9,0.5,1.3,0.7c0.4,0.2,0.7,0.4,1,0.6c1.1,0.6,1.2,0.6-0.9-0.9c-2.2-1.3-5.2-3-8.8-4.4c-3.6-1.3-7.6-2.4-11.4-2.9
				c-3.8-0.6-7.3-0.8-9.9-0.8c-1.3,0-2.3,0-3.1,0c-0.7,0-1.1,0-1.1,0c0,0,0.1,0,0.2,0c0.2,0,0.4,0,0.7,0c0.6,0,1.4-0.1,2.3-0.1
				c1.9,0,4.5,0.1,7.1,0.3c0-0.1,1,0,2.5,0.1c0.8,0,1.7,0.2,2.7,0.3c1,0.1,2.1,0.3,3.2,0.5c2.2,0.4,4.6,1.1,6.7,1.7
				c2.1,0.7,3.9,1.5,5,2.1c0.6,0.3,1.6,0.7,2.7,1.4c0.6,0.3,1.3,0.7,2,1.1c0.7,0.5,1.4,0.9,2.2,1.5c3.1,2.1,6.5,5.2,9.4,8.7
				c0.7,0.9,1.5,1.8,2.1,2.7c0.6,0.9,1.3,1.9,1.9,2.8c0.6,0.9,1.1,1.9,1.6,2.8c0.3,0.4,0.5,0.9,0.7,1.3c0.2,0.4,0.4,0.9,0.6,1.3
				c0.4,0.9,0.8,1.7,1.1,2.4c0.4,0.7,0.6,1.5,0.9,2.1c0.5,1.3,0.9,2.3,1.1,2.9c1.4,3.7,1.5,3.6,0.7,1.2c-0.4-1.2-1-3-1.8-5.2
				c-0.4-1.1-1-2.3-1.5-3.6c-0.5-1.3-1.3-2.6-2-4c-0.7-1.4-1.6-2.8-2.5-4.2c-0.4-0.7-1-1.4-1.5-2.1c-0.5-0.7-1-1.4-1.6-2.1
				c-2.3-2.8-5-5.3-7.9-7.6c-2.9-2.2-6-4-9.1-5.5c-3.1-1.4-6-2.4-8.6-3.1c-10.5-2.4,0.1-0.4,0.1-0.5c-5.3-1.3-9.3-1.8-13.3-2.1
				c-4-0.2-8.1-0.2-13.4,0.4c0,0-1.2,0.1-3.2,0.4c-2,0.3-4.8,0.7-8.1,1.6l-2.3,0.6l1,2.3c0.9,2.2,1.8,5,2.4,7.9
				c0.6,2.9,1.1,6,1.2,9.1c0.3,6.2-0.8,12.2-2.4,16.6c0,0-0.1,0.3-0.3,1c-0.3,0.6-0.7,1.7-1.3,3.1c-0.7,1.4-1.6,3.2-3.1,5.3
				c-1.4,2.1-3.4,4.5-6.2,7.1c-0.5,0.4-0.9,0.8-1.2,1.1c-0.4,0.3-0.7,0.6-1,0.8c-0.5,0.5-0.9,0.8-1.1,1c-0.5,0.4-0.5,0.4-0.4,0.5
				c0,0,0,0-0.1-0.1c-0.8,0.6-1.7,1.3-2.7,2c-1.1,0.7-2.2,1.4-3.5,2.2c0.8,0.1,1.6,0.1,2.4,0.2c-3.4-3-6.9-6.9-9-9.2
				c0,0,0,0,0.1-0.1c-6.8-7.7-12.4-16.4-15.9-25.9c0.1,0,0.1,0,0.1,0c-0.4-1.2-0.8-2.4-1.1-3.5c-0.3-1.1-0.6-2.2-0.8-3.1
				c-0.2-0.9-0.3-1.7-0.4-2.2c-0.1-0.5-0.1-0.8-0.1-0.8c0.1,0,0.1,0,0.1,0c-0.3-2.5-0.5-6.2-0.2-9.2c0.1-0.8,0.2-1.5,0.3-2.1
				c0.1-0.7,0.2-1.2,0.3-1.7c0.1-0.5,0.2-0.9,0.3-1.1c0.1-0.3,0.1-0.4,0.1-0.4c-0.1,0-0.1,0-0.1,0c0.3-1.2,0.7-2.3,1.1-3.5
				c0.5-1.1,0.9-2.2,1.4-3.2c0.5-1,1.1-2.1,1.6-3c0.6-1,1.2-2,1.9-3c2.4-3.7,5.2-7.1,7.9-10.1c5.6-6.1,11.7-10.8,18.1-14.9
				c8.7-5.3,18.8-9.6,29.8-11.8c11-2.2,22.8-2.4,34.2,0.2c5.7,1.3,11.3,3.3,16.5,6c0.7,0.4,1.4,0.7,2,1.1l1.8,1.1
				c0.6,0.4,1.2,0.7,1.8,1.1l1.8,1.3c1.2,0.8,2.4,1.7,3.5,2.6c1.2,0.9,2.3,1.9,3.4,2.8c8.8,7.9,16,17.5,21.4,27.6
				c1.2,2.3,2.3,4.6,2.9,5.7c0.5,1.2,0.6,1.1-0.4-1.2c0.6,1.1,1,2.3,1.6,3.5c0.5,1.2,1,2.4,1.5,3.6c0.4,1.2,0.9,2.4,1.3,3.6l1.2,3.7
				c0.4,1.2,0.7,2.2,0.9,3.1c0.2,0.8,0.4,1.5,0.6,2c0.3,1.1,0.5,1.7,0.6,2.3c0.2,0.6,0.3,1.3,0.6,2.3c0.1,0.5,0.3,1.2,0.5,2.1
				c0.1,0.9,0.3,1.9,0.5,3.1c0.9,5.8,1.4,11.8,1.3,17.7c-0.1,5.9-0.8,11.8-1.9,17.6c-1.2,5.8-3,11.4-5.2,16.9
				c-1.2,2.7-2.3,5.4-3.8,8l-1,2c-0.3,0.7-0.7,1.3-1.1,1.9l-2.3,3.8c-0.8,1.3-1.7,2.4-2.5,3.7l-1.3,1.8c-0.4,0.6-0.8,1.1-1.3,1.7
				c-1.9,2.3-3.9,4.4-6,6.5c-4.2,4.2-8.8,8-13.7,11.2c-4.9,3.2-10.2,5.9-15.7,7.6c-2.8,0.9-5.6,1.5-8.5,1.8
				c-2.9,0.3-5.8,0.4-8.6,0.2l1.3,3.3c3.1-3.4,5.9-6.8,8.6-10.4c2.7-3.6,5.3-7.3,7.6-11.1c4.8-7.6,9-15.6,12.2-24.1
				c1.6-4.2,2.9-8.6,4-13c1-4.4,1.7-8.9,2-13.5c0.2-4.6,0.1-9.1-0.5-13.7c-0.7-4.5-1.9-9-3.4-13.3c3.7,10.2,4.5,19.8,3.6,29.2
				c-0.4,4.7-1.3,9.3-2.5,14c-1.2,4.7-2.9,9.4-4.9,14.3c0,0-0.1,0-0.4,0.6c-0.3,0.6-0.9,1.8-2,4.2c-3.1,6.5-6.9,13.1-11,19.2
				c-4.2,6.2-8.7,12-13.5,17.3c-0.3-0.9-0.7-1.8-1-2.7c8.1,0.7,15.7-1.1,21.8-3.7c6.2-2.5,11-5.7,14.5-8.1c2.1-1.5,4.2-3,7.1-5.6
				c1.5-1.3,3.1-2.8,5-4.8c1-1,2-2.1,3.1-3.3c0.5-0.6,1.1-1.3,1.7-1.9c0.3-0.3,0.6-0.7,0.8-1c0.3-0.4,0.5-0.8,0.8-1.2
				c-1.4,2.1-3.2,4-4.9,5.9c-1.8,1.9-3.6,3.7-5.5,5.5c0,0,0.1,0.1,0.1,0.1c1.9-1.7,3.8-3.6,5.7-5.6c0.9-1,1.8-2,2.7-3.1
				c0.4-0.5,0.9-1.1,1.3-1.6c0.4-0.6,0.8-1.2,1.2-1.7c0.8-1.2,1.6-2.3,2.5-3.5c0.8-1.2,1.5-2.5,2.3-3.7l1.1-1.9l1-1.9
				c0.7-1.3,1.4-2.6,2-3.9c2.5-5.3,4.6-10.7,6.2-16.2c0.4-1.4,0.7-2.7,1-4.1c0.2-0.7,0.3-1.4,0.5-2c0.1-0.7,0.2-1.4,0.4-2
				c0.2-1.3,0.5-2.7,0.7-4c0.2-1.3,0.3-2.6,0.5-3.9c0,0,0.1,0,0.2,0c0,0,0.1-0.6,0.2-1.6c0.1-1,0.1-2.3,0.2-3.6
				c0-0.6,0.1-1.3,0.1-1.9c0-0.6,0-1.2,0-1.7c0-1,0-1.6,0-1.6c0.1-2.6,0.2-1,0.2,3.3c-0.1,4.3-0.6,11.3-2.4,19.3
				c-1.8,7.9-5.1,16.7-9.3,24.5c-4.3,7.8-9.3,14.7-13.9,19.3c0,0,0.1,0.1,0.2,0.2c0,0,1.8-1.9,3.6-3.8c0.9-1,1.7-2,2.3-2.8
				c0.6-0.8,0.9-1.3,0.9-1.3l0.1,0.1c-1.5,2.3-3.4,4.3-5.3,6.4c-1.9,2-3.9,4-5.9,5.8c-4.1,3.7-8.5,7.1-13.2,9.9
				c-2.4,1.4-4.8,2.7-7.3,3.9c-2.5,1.1-5.1,2.1-7.8,2.8c-2.7,0.8-5.4,1.3-8.1,1.6c-2.8,0.3-5.5,0.3-8.3,0.1l-0.2,0l0.1-0.2
				c5.1-5.6,9.7-11.7,13.9-18c-1.4,2.2-3.7,5.4-6.1,8.5c-2.4,3.1-4.9,6.2-6.6,8.1c0,0-0.1,0-1.3,1.3l-0.3,0.3l0.4,0
				c0.7,0,1.8,0.1,3.4,0.2c-1.1,0-2.2-0.1-3.4-0.1l-0.5,0l0.3-0.3c6.8-7.5,13.4-16.6,19-26.2c5.6-9.6,9.9-19.9,12.3-29.5
				c0.6-2.5,0.6-2.5-0.1,0c-0.7,2.5-2.1,7.5-5.2,14.7c-3.1,7.2-6.2,12.9-9.6,18.5c-3.4,5.5-7.2,10.9-12.1,17l-0.1-0.1
				c3.3-4,7.2-9.3,10.7-14.8c3.6-5.5,6.6-11.2,8.8-15.9c1.1-2.4,0,0-1.2,2.3c-1.2,2.3-2.5,4.6-1.3,2.3c2.4-4.6,4.6-9.4,6.3-14.3
				c-1.4,3.6-3,7.5-5,11.5c-1.9,3.9-4.2,7.9-6.5,11.8c-4.8,7.8-10.3,15.1-15.4,20.9c-0.4,0.4-0.8,0.9-1.2,1.3l-1.5,1.6l2.1,0.1
				c1.2,0.1,2.3,0.2,3.4,0.2c1.1,0,2,0,2.8,0c0.8,0,1.5-0.1,2-0.1c0.5,0,0.7,0,0.7,0c6.7-0.8,12.8-2.9,18.1-5.5
				c5.4-2.7,10.1-5.8,14.3-9.1c4.2-3.3,7.8-6.7,11-10.1c1.6-1.7,3.1-3.3,4.4-5.1c1.3-1.7,2.5-3.4,3.7-5c0.7-1.1,2.2-3.3,3.9-6.4
				c0.8-1.5,1.7-3.3,2.7-5.1c0.9-1.9,1.8-4,2.7-6.1c1.7-4.3,3.3-9.1,4.4-13.8c0.3-1.2,0.6-2.3,0.8-3.5c0.2-1.2,0.4-2.3,0.6-3.4
				C571.5,287.5,571.7,285.3,572,283.3z"/>
		</g>
	</g>
</g>
<g>
	<g>
		<g>
			<path fill="#3F3B3C" d="M406.5,403.3c0.4,1.3,0.9,2.7,1.3,4c-1.8-6.1-4.1-12.1-6.9-17.9c-0.7-1.5-1.4-2.9-2.1-4.4
				c-0.7-1.4-1.5-2.9-2.3-4.3c-0.8-1.4-1.6-2.8-2.4-4.2c-0.4-0.7-0.8-1.4-1.3-2.1l-0.6-1L392,373l-0.1-0.1c0,0,0,0,0,0
				c0,0,0,0.1,0,0.1l-0.3-0.6c-0.5-0.7-1.3-1.3-2.2-1.4c-0.4-0.1-0.9-0.1-1.3,0c-0.3,0.1-0.6,0.2-0.8,0.3l-0.2,0.1l-0.2,0.1l0,0l0,0
				l0,0l-0.1,0.1l-0.1,0.1l-0.2,0.2c-0.1,0.2-0.3,0.3-0.4,0.5c-0.2,0.4-0.4,0.8-0.5,1.2c-0.2,0.9,0,1.8,0.6,2.6l-0.2-0.4
				c0.4,0.6,0.8,1.3,1.1,1.8l0.9,1.5c0.6,1,1.2,2,1.8,3c1.1,2.1,2.2,4.1,3.2,6.1c1,2.1,2,4.2,2.9,6.3l0.4,0.8l0.2,0.4l0,0.1l0,0l0,0
				l0,0c0,0.1,0-0.1,0-0.1l0,0l0.1,0.2l0.6,1.6c0.4,1,0.8,2.1,1.2,3.1c0.4,1.3,1.3,3.9,1.7,5.2c1.7,5.1,3.2,11,4.2,17
				c0.2,1.5,0.5,3,0.6,4.5c0.1,1.5,0.2,2.9,0.3,4.3c0.1,1.5,0,3,0,4.4c0,0.4,0,0.7,0,1.1l0,0.5l0,0.1l0,0l0,0c0-0.2,0-0.1,0-0.1l0,0
				l0,0.1l0,0.3c-0.1,0.7-0.1,1.3-0.2,2c-0.3,2.6-0.5,4.9-0.8,6.6c-0.1,0.8-0.2,1.5-0.3,1.9c-0.1,0.4-0.1,0.7-0.1,0.7
				c-0.3,1.3-0.6,2.6,0,1.4c0.5-1.3,1.1-3.5,1.6-5.5c0.2-1,0.4-1.9,0.6-2.6c0.1-0.7,0.2-1.1,0.3-1.1c0.1,0-0.1,1.4-0.4,2.7
				c0.3,0-0.2,4.2-0.6,5.5c0,0.2-0.1,0.4-0.2,0.8c-0.1,0.3-0.2,0.8-0.4,1.2c-0.3,1-0.7,2.1-1.1,3.2c-0.4,1.1-1,2.2-1.3,3.1
				c-0.1,0.4,0,0.8,0.1,1.1c0.1,0.1,0.2,0.2,0.2,0.3c0.1,0.1,0.2,0.1,0.3,0.2c0.9,0.6,0.9,0.5,0.4,0c-0.1-0.1-0.3-0.3-0.5-0.4
				c-0.1-0.1,0-0.1-0.1-0.2c0-0.1-0.1-0.1-0.1-0.2c0-0.2,0-0.3,0.1-0.5c0.2-0.3,0.4-0.6,0.6-1c0.4-0.7,0.9-1.5,1.3-2.3
				c0.4-0.9,0.9-1.8,1.3-2.6c0.4-0.9,0.7-1.8,1-2.6c0.3-0.8,0.6-1.6,0.7-2.3c0.8-2.8,0.3,0.1,0.5,0.1c0.3-1.4,0.6-2.5,0.8-3.5
				c0.3-1.1,0.4-2.1,0.6-3.6c0,0,0-0.1,0.1-0.4c0-0.2,0.1-0.6,0.1-1c0-0.2,0-0.5,0.1-0.7c0-0.1,0-0.3,0-0.4l0-0.1l0,0l0-0.1l0-0.1
				l0-0.2c0-0.6,0-1.2,0.1-1.8c0-1.3,0.1-2.7,0.1-4.1c-0.1-1.4-0.2-2.8-0.2-3.9c0,0,0-0.4-0.1-1.3c-0.1-0.9-0.3-2.3-0.6-4.4
				c-0.2-1.4-0.3-1.4-0.3-1.4c0.1,0,0.1,0,0.1,0c-0.4-1.4-0.9-4.2-1.2-5.5c0.1,0,0.1,0,0.1,0c-0.4-1.4-0.7-2.7-1.1-4.1l-0.5-2
				c-0.2-0.7-0.4-1.3-0.7-2c0.1,0,0.1,0,0.1,0c-0.4-1.3-0.9-2.7-0.8-2.7c0.1,0,0.1,0,0.1,0c-0.4-1.4-1.5-4-1.4-4c-0.1,0-0.1,0-0.1,0
				c-0.5-1.3-1-2.5-1.5-3.7c-0.2-0.6-0.5-1.1-0.7-1.7c-0.1-0.3-0.2-0.5-0.3-0.8l0-0.1l-0.1-0.2l-0.1-0.2l-0.2-0.4
				c-0.9-2-1.8-3.9-2.7-5.8c-0.2-0.5-0.5-1.1-0.8-1.7c-0.3-0.6-0.6-1.1-0.9-1.7c-0.6-1.1-1.2-2.3-1.9-3.5c-0.6-1.2-1.3-2.4-2-3.5
				c-0.4-0.6-0.7-1.2-1.1-1.8c-0.2-0.3-0.3-0.5-0.5-0.7l-0.4-0.6l-0.3-0.6c0.2,0.3,0.3,0.7,0.2,1c-0.1,0.3-0.2,0.5-0.5,0.7
				c-0.5,0.4-1.3,0.2-1.7-0.3l-0.3-0.8c0.1,0.2,0.2,0.5,0.3,0.7l0.2,0.3l0.1,0.2l0.3,0.4l0.6,0.9c0.4,0.6,0.8,1.2,1.1,1.8
				c0.7,1.2,1.5,2.4,2.2,3.7c1.4,2.5,2.7,5,4,7.4c0.6,1.2,1.3,2.4,0.8,1.1c0.6,1.2,1.1,2.5,1.7,3.7c1.1,2.5,0.7,1.2,1.8,3.7
				c0.6,1.2,1,2.5,1.5,3.8c0.5,1.3,1,2.5,1.4,3.8l1.3,3.9l1.1,3.9c1.3,5.3,2.3,10.6,2.6,16c0.3,2.7,0.1,5.4,0.1,8.1
				c0,0.1,0,0.4,0,0.5l0,0.5l-0.1,1l-0.1,1l-0.1,1c-0.2,1.3-0.4,2.6-0.6,3.9c-0.6,2.6-1.3,5.2-2.2,7.7c-0.2,0.6-0.5,1.2-0.8,1.8
				c-0.2,0.6-0.5,1.2-0.8,1.8l-0.4,0.9l-0.2,0.4l-0.1,0.2l0,0.1l0,0c0.1-0.1-0.2,0.3,0.2-0.3l0,0l-0.1,0.1l-0.2,0.2
				c0-0.1,0.1-0.1,0.2-0.2c0.2-0.1,0.1-0.1,0.2-0.1c0.1,0,0.2,0,0.2,0l-0.1,0c0,0-0.1,0,0,0c0.1,0,0.1,0,0.2,0.1
				c-0.1,0-0.1-0.1-0.2-0.1c-0.1,0,0,0,0,0l0.1,0c0,0-0.1,0-0.2,0c0,0-0.1,0-0.1,0c0,0,0,0,0,0c0,0-0.1,0-0.1,0.1
				c-0.1,0-0.1,0.1-0.2,0.2c0,0.1,0,0,0,0l0.1-0.1l0.1-0.1l0,0l0,0l0,0c-0.3,0.5-0.1,0.1-0.2,0.3l0,0l0,0l0.1-0.2l0.2-0.4
				c0.1-0.3,0.3-0.5,0.4-0.8c0.6-1.1,1-2.1,1.5-3.2c0.9-2.2,1.6-4.4,2.2-7c0,0,0.2,0,0.5-1.3c0.4-2,0.7-4,0.9-6.1
				c0-0.5,0.1-1,0.1-1.6c0-0.5,0-1,0-1.5c0-1,0-2,0.1-3c0-0.5,0-1,0-1.4c0-0.5-0.1-0.9-0.1-1.4c0-0.9-0.1-1.7-0.1-2.5
				c0-1.6-0.2-2.9-0.3-4c-0.2-1.3,0-2.7-0.9-6.8c0.3,1.3,0.6,2.7,0.8,4c0.1,0,0.2,0,0.2,0c-0.8-5.4-2.5-12.1-4.3-17.3
				c0,0,0.1,0,0.2-0.1l-1-2.6c-0.1-0.7,0.1-0.3,0.5,0.7c0.5,1,1.1,2.8,1.8,4.8c0.7,2,1.3,4.4,2,6.7c0.6,2.3,1,4.5,1.4,6.2
				c0.1,0,0.2,0,0.2,0l-0.6-2.7l0.1,0c1.7,8.1,2.2,15.1,1.6,23.4c0-0.7,0.2-1.7,0.2-2.8c0-1,0-2.1,0.1-2.8c0.1,0,0.1,0,0.1-1.4
				c0.2,5.6-0.9,12.5-2.5,17.8c-0.4,1.3,0.3,0.1,1.4-4c0.5-2,0.8-3.8,1-5.5c0.1-0.9,0.2-1.7,0.3-2.6c0.1-0.9,0.1-1.9,0.1-2.9l0.1,0
				c0,0.7,0,1.5-0.1,2.3c-0.1,0.8-0.1,1.7-0.3,2.5c-0.1,0.9-0.2,1.7-0.4,2.6c-0.1,0.8-0.3,1.6-0.4,2.3c-0.2,1.4,0.7-2.7,0.5-1.3
				c-0.2,1.4-0.6,2.8-0.8,4.1c0.5-2.1,1-4.5,1.3-6.9c0.2-1.2,0.2-2.4,0.4-3.6c0-1.2,0.1-2.3,0.1-3.4c0.1-1.4,0.2-2.8,0.3-2.8
				c-0.1-1.8-0.2-3.4-0.3-5c0-0.4,0-0.8-0.1-1.2c0-0.4-0.1-0.8-0.1-1.1c-0.1-0.7-0.2-1.5-0.3-2.2c-0.2-2.8-0.7-5.2-1-7.3
				C409.8,414.1,407.9,407.3,406.5,403.3z"/>
		</g>
	</g>
</g>
<g>
	<g>
		<g>
			<path fill="#3F3B3C" d="M430,399.4c0.4,1.3,0.9,2.7,1.3,4c-1.8-6.1-4.1-12.1-6.9-17.9c-0.7-1.5-1.4-2.9-2.1-4.4
				c-0.7-1.4-1.5-2.9-2.3-4.3c-0.8-1.4-1.6-2.8-2.4-4.2c-0.4-0.7-0.8-1.4-1.3-2.1l-0.6-1l-0.3-0.5c0,0-0.1-0.1-0.1-0.1
				c0,0,0,0,0,0.1c0,0.1,0,0.1,0,0.2l-0.3-0.7c-0.5-0.7-1.3-1.3-2.2-1.4c-0.4-0.1-0.9-0.1-1.3,0c-0.3,0.1-0.6,0.2-0.8,0.3l-0.1,0.1
				l-0.1,0l0,0l0,0l-0.2,0.1l0,0c-0.7,0.5-1.3,1.3-1.4,2.2c-0.2,0.9,0,1.8,0.5,2.5l3.6,5.2l0-6.4l0,0c-0.7,0-1.3,0-2,0l-1,1
				l-0.2,0.3c-0.1,0.1-0.2,0.2-0.1,0.1l0,0l0,0l0,0.1l0.1,0.1l0.2,0.3l0.4,0.6l0.9,1.5c0.6,1,1.2,2,1.8,3c1.1,2.1,2.2,4.1,3.2,6.1
				c1,2.1,2,4.2,2.9,6.3l0.4,0.8l0.2,0.4l0,0.1l0,0l0,0c0,0.1,0-0.1,0-0.1l0,0l0,0l0.1,0.2l0.6,1.6c0.4,1,0.8,2.1,1.2,3.1
				c0.4,1.3,1.3,3.9,1.7,5.2c1.7,5.1,3.2,11,4.2,17c0.2,1.5,0.5,3,0.6,4.5c0.1,1.5,0.2,2.9,0.3,4.3c0.1,1.5,0,3,0,4.4
				c0,0.4,0,0.7,0,1.1l0,0.5l0,0.1l0,0l0,0c0-0.1,0,0.1,0-0.1l0,0l0,0.1l0,0.3c-0.1,0.7-0.1,1.3-0.2,2c-0.3,2.6-0.5,4.9-0.8,6.6
				c-0.1,0.8-0.2,1.5-0.3,1.9c-0.1,0.4-0.1,0.7-0.1,0.7c-0.3,1.3-0.6,2.6,0,1.4c0.5-1.3,1.1-3.5,1.6-5.5c0.2-1,0.4-1.9,0.5-2.6
				c0.1-0.7,0.2-1.1,0.3-1.1c0.1,0-0.1,1.4-0.4,2.7c0.3,0-0.2,4.2-0.6,5.5c-0.1,0.3-0.3,1.1-0.6,2c-0.3,1-0.7,2.1-1.1,3.2
				c-0.4,1.1-1,2.2-1.3,3.1c-0.2,0.4-0.1,0.8,0.1,1.1c0.1,0.1,0.2,0.2,0.2,0.3c0.1,0.1,0.2,0.1,0.3,0.2c0.9,0.5,0.9,0.5,0.4,0
				c-0.1-0.1-0.3-0.3-0.5-0.4c-0.1-0.1,0-0.1-0.1-0.2c0-0.1,0-0.1-0.1-0.2c0-0.2,0-0.3,0.1-0.4c0.2-0.3,0.4-0.6,0.6-1
				c0.4-0.7,0.9-1.5,1.3-2.3c0.4-0.9,0.9-1.8,1.3-2.6c0.2-0.4,0.4-0.9,0.6-1.3c0.2-0.4,0.3-0.9,0.5-1.3c0.3-0.8,0.6-1.6,0.7-2.3
				c0.8-2.8,0.3,0.1,0.5,0.1c0.6-2.8,1-4.2,1.3-7.1c0,0,0-0.1,0.1-0.4c0-0.2,0.1-0.6,0.1-1c0-0.2,0-0.5,0.1-0.7c0-0.1,0-0.3,0-0.4
				l0-0.1l0-0.2l0-0.1l0-0.2c0-0.6,0-1.2,0.1-1.8c0-1.3,0.1-2.7,0.1-4.1c-0.1-1.4-0.2-2.8-0.2-3.9c0,0,0-0.4-0.1-1.3
				c-0.1-0.9-0.3-2.3-0.6-4.4c-0.2-1.4-0.3-1.4-0.3-1.4c0.1,0,0.1,0,0.1,0c-0.4-1.4-0.9-4.2-1.2-5.5c0.1,0,0.1,0,0.1,0
				c-0.4-1.4-0.8-2.7-1.1-4.1l-0.5-2c-0.2-0.7-0.4-1.3-0.7-2c0.1,0,0.1,0,0.1,0c-0.4-1.3-0.9-2.7-0.8-2.7c0.1,0,0.1,0,0.1,0
				c-0.4-1.4-1.5-4-1.4-4c-0.1,0-0.1,0-0.1,0c-0.5-1.3-1-2.5-1.5-3.7c-0.2-0.6-0.5-1.1-0.7-1.7c-0.1-0.3-0.2-0.5-0.3-0.8L424,390
				l-0.1-0.2l-0.2-0.4c-0.9-2-1.8-3.9-2.7-5.8c-0.2-0.5-0.5-1.1-0.8-1.7c-0.3-0.6-0.6-1.1-0.9-1.7c-0.6-1.1-1.2-2.3-1.9-3.5
				c-0.6-1.2-1.3-2.4-2-3.5c-0.4-0.6-0.7-1.2-1.1-1.8c-0.1-0.3-0.4-0.7-0.7-1.1l-0.8-1.1l-4.5-6.4l0,8.2v0c1.6-0.5,3.2-1,4.8-1.5
				c0.4,0.5,0.2,1.3-0.3,1.6l-0.2,0.1l0,0l0,0l0.1,0l0.1-0.1c0,0,0,0-0.1,0c0,0-0.1,0-0.1,0.1c-0.1,0-0.2,0.1-0.2,0.1
				c-0.2,0-0.3,0-0.5,0c-0.3-0.1-0.6-0.2-0.8-0.5l-0.4-0.9c0.1,0.2,0.2,0.5,0.3,0.7c0.1,0.1,0.1,0.2,0.2,0.4l0.1,0.2l0.3,0.4
				l0.6,0.9c0.4,0.6,0.8,1.2,1.1,1.8c0.7,1.2,1.5,2.4,2.2,3.7c1.4,2.5,2.7,5,4,7.4c0.6,1.2,1.3,2.4,0.8,1.1c0.6,1.2,1.1,2.5,1.7,3.7
				c1.1,2.5,0.7,1.2,1.8,3.7c0.6,1.2,1,2.5,1.5,3.8c0.5,1.3,1,2.5,1.4,3.8l1.3,3.9l1.1,3.9c1.3,5.3,2.3,10.6,2.6,16
				c0.3,2.7,0.1,5.4,0.1,8.1c0,0.1,0,0.4,0,0.5l0,0.5l-0.1,1l-0.1,1l-0.1,1c-0.2,1.3-0.4,2.6-0.7,3.9c-0.6,2.6-1.3,5.2-2.2,7.7
				c-0.2,0.6-0.5,1.2-0.8,1.8c-0.2,0.6-0.5,1.2-0.8,1.8l-0.8,1.6l-0.1,0.2c0-0.1,0.1-0.2,0.2-0.2c0,0,0.1-0.1,0.1-0.1c0,0,0,0,0,0
				c0,0,0.1,0,0.1,0c0,0,0.1,0,0.1,0c0,0,0,0,0,0l0,0c-0.2,0,0.2,0,0.2,0l0,0l-0.1,0l-0.1,0c0,0-0.1,0,0,0c0.1,0,0.2,0,0.2,0.1
				c-0.1-0.1-0.2-0.1-0.2-0.1c-0.1,0,0,0,0,0l0.1,0l0.1,0l0,0l0,0c0,0-0.4,0-0.2,0l0,0l0,0c0,0,0,0,0,0c0,0-0.1,0-0.1,0
				c0,0-0.1,0-0.1,0c0,0,0,0-0.1,0.1c-0.1,0.1-0.1,0.1-0.2,0.2c0,0.1,0,0,0,0l0.1-0.1l0.1-0.1l0,0l0,0l0,0c-0.3,0.4-0.1,0.1-0.1,0.2
				l0,0l0,0l0.1-0.2l0.2-0.4c0.1-0.3,0.3-0.5,0.4-0.8c0.6-1.1,1-2.1,1.5-3.2c0.9-2.2,1.7-4.4,2.2-7c0,0,0.2,0,0.5-1.3
				c0.4-2,0.7-4,0.9-6.1c0-0.5,0.1-1,0.1-1.6c0-0.5,0-1,0-1.5c0-1,0-2,0.1-3c0-0.5,0-1,0-1.4c0-0.5-0.1-0.9-0.1-1.4
				c-0.1-0.9-0.1-1.7-0.1-2.5c0-1.6-0.2-2.9-0.3-4c-0.2-1.3,0-2.7-0.9-6.8c0.3,1.3,0.6,2.7,0.8,4c0.1,0,0.2,0,0.2,0
				c-0.8-5.4-2.5-12.1-4.3-17.3c0,0,0.1,0,0.2-0.1l-1-2.6c-0.1-0.7,0.1-0.3,0.5,0.7c0.5,1,1.1,2.8,1.8,4.8c0.7,2,1.3,4.4,2,6.7
				c0.6,2.3,1,4.5,1.4,6.2c0.1,0,0.2,0,0.2,0l-0.6-2.7l0.1,0c1.7,8.1,2.3,15.1,1.6,23.4c0-0.7,0.2-1.7,0.2-2.8c0-1,0-2.1,0.1-2.8
				c0.1,0,0.1,0,0.1-1.4c0.2,5.6-0.9,12.5-2.5,17.8c-0.4,1.3,0.3,0.1,1.4-4c0.5-2,0.8-3.8,1-5.5c0.1-0.9,0.2-1.7,0.3-2.6
				c0.1-0.9,0.1-1.9,0.1-2.9l0.1,0c0,0.7,0,1.5-0.1,2.3c-0.1,0.8-0.1,1.7-0.3,2.5c-0.1,0.9-0.2,1.7-0.4,2.6
				c-0.1,0.8-0.3,1.6-0.4,2.3c-0.2,1.4,0.7-2.7,0.5-1.3c-0.2,1.4-0.6,2.8-0.8,4.1c0.5-2.1,1-4.5,1.3-6.9c0.2-1.2,0.2-2.4,0.4-3.6
				c0-1.2,0.1-2.3,0.1-3.4c0.1-1.4,0.2-2.8,0.3-2.8c-0.1-1.8-0.2-3.4-0.3-5c0-0.4,0-0.8-0.1-1.2c0-0.4-0.1-0.8-0.1-1.1
				c-0.1-0.7-0.2-1.5-0.3-2.2c-0.2-2.8-0.7-5.2-1-7.3C433.4,410.1,431.4,403.3,430,399.4z"/>
		</g>
	</g>
</g>
<g>
	<g>
		<g>
			<path fill="#202020" d="M375.2,475.2c1.2,0.3,2.3,0.7,3.5,0.9c1.2,0.2,2.3,0.6,3.5,0.7l1.8,0.3l0.4,0.1l0.1,0c0,0,0.1,0,0,0
				l0.1,0l0.2,0l0.9,0.1l1.8,0.2c0.6,0.1,1.2,0.1,1.8,0.1c-13.1-0.9-25.9-5.9-36-14.4c-10.1-8.5-17.5-20.3-20.6-33.2
				c-1.6-6.4-2-13.2-1.5-19.7c0.6-6.7,2.1-13.1,4.7-19.2c5.1-12.2,14.2-22.5,25.4-29.2l0.7-0.4l0.2-0.6c0.1-0.2,0.1-0.5,0.2-0.7
				l0.1-0.4c0-0.3,0-0.6,0.1-0.8c0-0.6,0-1.1,0-1.6c0-1-0.1-2-0.3-3c-0.3-2-0.7-3.9-1.3-5.8c-1.1-3.7-2.6-7.3-4.2-10.7
				c-3.3-6.9-7.3-13.3-11.6-19.3l-1.6-2.2L342,314c-1-1.5-2.1-2.9-3.1-4.4c-1.9-3-3.9-6-5.6-9.2c-1.8-3.1-3.4-6.2-5.1-9.4
				c-1.6-3.2-3.2-6.3-4.6-9.5c-1-2.2-2.5-5.6-3.9-9c-1.4-3.4-2.8-6.8-3.6-9.1c-2.9-7.5-5.8-15.5-8.4-23.8c-0.5,1-1,2.1-1.5,3.1
				c8.8-3.7,17.9-7.5,27.1-11.3c-1.2-0.7-2.4-1.3-3.6-2c2.3,12.8,6.9,24.8,11.8,36.2c4.9,11.4,10.5,22.2,15.8,32
				c4.7,8.7,9.2,16.1,12.5,21.3c3.3,5.2,5.4,8.3,5.4,8.3c2.7,4.2,5.5,8.2,3,4c-2.6-4.2-7.1-11.6-10.8-18c-1.8-3.2-3.5-6.2-4.7-8.3
				c-0.6-1.1-1.1-2-1.4-2.6c-0.3-0.6-0.5-1-0.5-1c0,0,0,0.1,0.1,0.2c0.1,0.1,0.2,0.3,0.3,0.5c0.3,0.5,0.6,1.1,1.1,1.9
				c0.9,1.6,2.1,3.7,3.4,5.9c0.1,0,0.6,0.7,1.4,2c0.8,1.3,1.9,2.9,3,4.7c2.3,3.7,5,7.8,6.3,9.9c1.8,2.9,10.1,15.8,16.2,24.3l0.1,0.2
				l-0.2,0.1c-0.1,0-0.2,0.1-0.3,0.1c0-0.1,0-0.2-0.1-0.3c1.2,0,2.3,0,3.4,0c0.5,0,1,0,1.5,0c0.5,0,0.9,0.1,1.3,0.1
				c1.7,0.1,3,0.2,3.7,0.3c3.5,0.3,3.7,0.2,1.7-0.1c-2-0.3-6.1-1-11.6-1.2c0.1,0.6,0.2,1.1,0.4,1.7c0.1,0,0.2-0.1,0.3-0.1l1-0.4
				l-0.6-0.9c-6.4-9.8-15.2-24.4-20.3-33.2c-4.9-8.5,0.2-0.1,0.4-0.2c-5-8.4-7.3-12.8-12.1-21.4c0,0-0.2-0.4-0.6-1.1
				c-0.4-0.7-1-1.8-1.6-3.1c-1.4-2.6-3.3-6.3-5.3-10.4c-4.1-8.2-8.6-18.3-11.2-25.1c0,0-0.4-1.1-1.6-4c-1-2.9-2.8-7.4-4.7-14.4
				c-0.6-2.3-0.9-3.5-1-4.1c-0.2-0.6-0.2-0.6-0.2-0.6c0.1,0,0.1,0,0.1,0c-0.2-1.1-0.5-2.5-0.9-4l-0.5-2.5l-2.3,1
				c-4.7,2-10.8,4.5-14.3,6c0-0.1,0-0.1,0-0.1c-4.2,1.8-8.5,3.6-12.8,5.4l-1.8,0.8l0.6,1.8c1.6,5.1,3.3,10,5.1,14.9
				c-0.1,0-0.1,0-0.1,0c0.8,2.3,1.7,4.6,2.4,6.4c0.3,0.9,0.6,1.6,0.8,2.1c0.1,0.3,0.2,0.5,0.2,0.6c0,0.1,0.1,0.2,0.1,0.2
				c-0.1,0-0.1,0-0.1,0c0.9,2.3,2.3,5.7,3.5,8.6c0.6,1.4,1.2,2.7,1.6,3.6c0.2,0.5,0.4,0.8,0.5,1.1c0.1,0.3,0.2,0.4,0.1,0.4
				c0.1,0,0.1,0,0.1,0c4.1,9.1,8,16.8,12.1,23.8c1,1.8,2,3.5,3.1,5.1c1.1,1.6,2,3.3,3.1,4.9c1.1,1.6,2.2,3.1,3.3,4.7
				c1.1,1.5,2.1,3,3.2,4.5c3.8,5.5,7.4,11.4,10.5,17.8c1.5,3.2,2.9,6.5,3.9,9.9c0.2,0.9,0.5,1.7,0.7,2.6c0.2,0.9,0.4,1.7,0.5,2.6
				c0.1,0.9,0.2,1.7,0.3,2.6c0,0.4,0,0.8,0,1.2c0,0.2,0,0.4,0,0.5l0,0.2c0,0.1,0,0,0,0c0,0,0-0.1,0-0.1c0.4-0.4,0.7-0.9,1.1-1.4
				c-3.2,2-6.3,4.2-9.3,6.7c-2.9,2.5-5.6,5.3-8.1,8.3c-2.5,3-4.7,6.2-6.6,9.6c-1,1.7-1.8,3.5-2.7,5.2c-0.8,1.8-1.5,3.6-2.2,5.5
				c-1.3,3.7-2.3,7.5-2.9,11.4l-0.2,1.5l-0.2,1.4c-0.1,0.9-0.2,1.8-0.3,2.9c-0.1,1-0.2,2-0.2,3l0,2.9c0.1,7.8,1.6,15.4,4.3,22.5
				c1.8,4.8,4.4,9.2,2.2,4.6c2.1,4.6,4.8,9,8,13c3.2,4,4.2,4.8,5.1,5.7c0.4,0.5,0.9,0.9,1.7,1.6c0.8,0.8,2,1.8,4,3.4
				c15.8,12.8,37.7,17.6,57.4,12.6c4.9-1.2,9.7-3,14.2-5.3c4.5-2.3,8.8-5.1,12.6-8.4c3.9-3.3,7.4-7,10.4-11.1
				c3-4.1,5.6-8.5,7.6-13.1c2-4.6,3.5-9.5,4.4-14.5l0.3-1.9l0.1-0.5l0-0.1l0-0.2l0-0.2l0.1-0.9l0.2-1.8c0.1-0.6,0.1-1.3,0.1-1.9
				c0-0.6,0.1-1.3,0.1-1.9l0-1.9c0-1.3,0-2.5-0.1-3.8c-0.5-10.1-3.4-20.1-8.4-29c-2.5-4.4-5.5-8.6-8.9-12.3
				c-3.4-3.7-7.3-7.1-11.5-9.9c-8.4-5.8-18.1-9.4-28.1-10.9c10,1.5,18.4,4.9,25.9,9.6c3.7,2.4,7.2,5.1,10.5,8.3
				c3.3,3.2,6.4,6.8,9.2,11c0,0-0.1,0,0.3,0.6c0.3,0.6,1,1.6,2.2,3.8c3.7,6.6,6.4,14.1,7.6,21.9c1.2,7.7,1,15.6-0.4,22.7
				c-0.7,3.6-1.6,6.9-2.8,10.1c-1.1,3.1-2.5,6-3.9,8.6c-2.8,5.2-5.9,9.2-8.4,12c-1.7,1.9-3.4,3.7-6.3,6.1c-0.7,0.6-1.5,1.3-2.4,1.9
				c-0.9,0.7-1.8,1.4-2.9,2.2c-2.2,1.5-4.8,3.2-8.2,4.9c4.5-2.3,8.7-5.1,12.5-8.3c0,0-0.1-0.1-0.1-0.1c-3.8,3.2-8.3,6.2-13.2,8.6
				c-4.9,2.4-10.3,4.3-15.8,5.4c-5.5,1.1-11.1,1.6-16.6,1.2c-5.4-0.3-10.7-1.3-15.5-2.7c0,0,0-0.1,0.1-0.2c0,0-0.6-0.2-1.5-0.5
				c-0.4-0.1-1-0.3-1.5-0.5c-0.5-0.2-1.1-0.4-1.7-0.7c-1.2-0.4-2.3-0.9-3.2-1.3c-0.4-0.2-0.8-0.3-1-0.5c-0.2-0.1-0.4-0.2-0.4-0.2
				c-1.1-0.6-1.3-0.7-0.7-0.5c0.5,0.3,1.8,0.8,3.7,1.6c1,0.4,2.1,0.8,3.3,1.2c1.3,0.4,2.6,0.9,4.2,1.3c3,0.9,6.6,1.6,10.4,2
				c3.8,0.4,8,0.5,12.2,0.2c4.2-0.3,8.5-1.1,12.5-2.2c8.1-2.3,15.3-6.2,20.2-9.8c0,0-0.1-0.1-0.1-0.2c0,0-0.5,0.4-1.3,0.9
				c-0.8,0.5-1.8,1.2-2.8,1.8c-1.1,0.6-2.1,1.2-2.9,1.7c-0.8,0.4-1.4,0.7-1.4,0.7l-0.1-0.1c6.6-3.3,12.3-7.7,17.1-12.7
				c4.8-5,8.7-10.6,11.6-16.7c1.4-3.1,2.7-6.2,3.6-9.5c1-3.3,1.6-6.6,2.1-10c0.9-6.9,0.7-14-0.8-21.2c0.5,2.4,1.1,6.1,1.2,9.7
				c0.2,3.7,0,7.4-0.3,9.8c0,0-0.1,0-0.2,0.6c-0.1,0.6-0.2,1.8-0.7,4.2c0.9-4.8,1.2-10.1,0.9-15.4c-0.4-5.3-1.4-10.8-3.1-16.1
				c-3.4-10.5-9.8-19.9-17-26.5c-0.5-0.4-0.8-0.7-1-0.9c-0.2-0.2-0.4-0.3-0.4-0.3s0.1,0.1,0.3,0.3c0.2,0.2,0.5,0.5,1,1
				c1.7,1.7,5.2,5.2,9.3,11.2c2,3,3.6,6,5,8.9c1.3,2.9,2.4,5.8,3.2,8.7c0.5,1.5,0.8,2.9,1.1,4.4c0.3,1.5,0.6,3,0.8,4.6
				c0.4,3.2,0.7,6.5,0.6,10.2l-0.1,0c0.1-4.9-0.3-11-1.8-16.9c-1.4-5.9-3.8-11.6-6.3-15.8c-0.6-1-0.6-1-0.4-0.5
				c0.1,0.3,0.4,0.7,0.6,1.1c0.2,0.5,0.5,1,0.8,1.6c1.1,2.2,2,4.4,1,2.2c-2-4.4-4.6-8.6-7.6-12.4c4.5,5.7,8.7,13.3,11,21.4
				c2.4,8.1,2.9,16.8,2.1,24c-0.1,0.6-0.2,1.2-0.2,1.8l-0.1,0.4c0,0.1,0,0.2,0,0.2l0,0.2c-0.1,0.3-0.1,0.6-0.2,0.9
				c-0.2,1.1-0.4,2.2-0.6,3c-0.2,0.9-0.4,1.6-0.5,2.1c-0.2,0.5-0.3,0.8-0.3,0.8c-3,11.7-9.1,21.2-15.9,28
				c-6.8,6.9-14.3,11.2-20.9,13.8c-2.2,0.9-9,3.5-17.4,4.4c-4.2,0.5-8.7,0.5-13,0C382.7,477.1,378.6,476.2,375.2,475.2z"/>
		</g>
	</g>
</g>
<g>
	<g>
		<g>
			<path fill="#202020" d="M457.7,398.2c-0.1-2.2,0-4.4-0.2-6.6l-0.2-3.3c-0.1-1.1-0.3-2.2-0.4-3.3c0.7,4.6,0.8,9.3,0.8,14.1
				c-0.1,2.4-0.2,4.7-0.3,7.1l-0.3,3.6l-0.2,1.8c0,0.3,0,0.6-0.1,0.9l-0.1,0.9l-0.6,3.5l-0.1,0.9l-0.2,0.8l-0.5,1.7l-0.5,1.7
				c-0.1,0.3-0.1,0.6-0.2,0.8l-0.3,0.8l-1.3,3.3c-0.2,0.6-0.5,1.1-0.7,1.6l-0.8,1.6c-0.5,1-1,2.1-1.7,3.1l-1.9,3
				c-0.7,0.9-1.4,1.8-2.2,2.8c-0.4,0.5-0.7,0.9-1.1,1.4l-1.2,1.3c-0.8,0.8-1.6,1.7-2.5,2.5l-2.7,2.3l-0.7,0.6l-0.7,0.5l-1.4,1
				c-1.9,1.4-4,2.5-6,3.7l-3.2,1.4c-0.5,0.2-1.1,0.5-1.6,0.7l-1.7,0.6l-1.7,0.6c-0.6,0.2-1.1,0.4-1.7,0.5l-3.4,0.8
				c-0.6,0.2-1.1,0.2-1.7,0.3l-1.7,0.2l-1.7,0.2c-0.6,0.1-1.1,0-1.7,0.1l-3.4,0.1l-3.6-0.3l-0.9-0.1l-0.5,0l-0.2,0c-0.1,0,0.1,0,0,0
				l-0.1,0l-0.1,0l-1.7-0.3c-1.1-0.2-2.3-0.5-3.4-0.8c-9-2.3-17.2-7.5-23.3-14.4c-6.1-6.9-10.3-15.4-12.1-24.3
				c-0.9-4.5-1.2-9-1-13.5c0.1-1.1,0.1-2.2,0.3-3.3l0.2-1.7l0.3-1.6c0.3-2.2,0.9-4.4,1.5-6.5c2.6-8.5,7.3-16.2,13.3-22.3
				c1.6-1.5,3.9-3.7,6.6-5.4c1.3-1,2.7-1.7,4-2.5c1.3-0.7,2.5-1.3,3.4-1.8c1.1-0.5,2.1-0.9,3.2-1.4c1.1-0.4,2.2-0.8,3.4-1.2l1.8-0.6
				l0.1-1.7c0-0.8-0.2-1.5-0.5-2c-0.3-0.5-0.6-0.9-0.9-1.3c-0.3-0.3-0.6-0.6-0.9-0.8c-0.3-0.2-0.6-0.4-1-0.7
				c0.3,0.2,0.5,0.4,0.8,0.6c-10.5-13.1-21.6-27.7-31.1-43c-9.6-15.3-17.6-31.4-22.8-46.4c-2.8-8.4-4.7-15.9-5.6-21.3
				c-0.1-0.7-0.2-1.3-0.3-1.9c-0.1-0.6-0.1-1.2-0.2-1.7c-0.1-0.5-0.1-1-0.2-1.5c0-0.5-0.1-0.9-0.1-1.2c-0.1-0.7-0.1-1.3-0.1-1.7
				c0-0.4,0-0.6,0-0.6c0-0.3,0-0.6,0-0.8c-0.6,0.6-1.2,1.1-1.7,1.6c4.1-0.2,7.7-0.4,3.5-0.5c-1,0-2.2,0-3.5,0
				c0.4-0.4,0.8-0.8,1.3-1.2c0,0.5,0,1.2-0.1,1.9c0,0.7,0,1.4,0.1,2.1c0.1,1.4,0.2,2.9,0.4,4.4c0.2,1.5,0.4,3,0.7,4.5
				c0.3,1.5,0.6,2.9,0.8,4.3c0.7,2.7,1.2,5.2,1.7,6.9c0.2,0.9,0.4,1.6,0.6,2c0.1,0.5,0.2,0.7,0.2,0.8c0,0,0-0.1-0.1-0.2
				c0-0.1-0.1-0.3-0.2-0.5c-0.1-0.5-0.4-1.1-0.6-1.9c-0.4-1.6-1-3.8-1.5-5.9c-0.1,0-0.3-0.8-0.7-2.1c-0.3-1.3-0.8-3-1.2-5
				c-0.8-3.8-1.2-8.3-1.2-10.5c0-0.1,0-0.3,0-0.9c-0.1,0-0.2,0.1-0.3,0.2c1.3,0,3.9-0.1,7.1-0.2c1.6-0.1,3.3,0,5.2,0
				c1.8,0,3.7,0,5.6,0.2c3.8,0.2,7.5,0.6,10.5,1.1c3,0.4,5.4,1.1,6.4,1.4c2.7,0.9,3.1,1,2,0.5c-0.6-0.2-1.5-0.7-2.8-1.1
				c-0.3-0.1-0.7-0.2-1.1-0.3c-0.4-0.1-0.8-0.2-1.2-0.3c-0.4-0.1-0.8-0.2-1.3-0.3c-0.4-0.1-0.9-0.2-1.4-0.3
				c-1.9-0.4-4.1-0.8-6.4-1.1c-1.2-0.2-2.4-0.3-3.6-0.4c-1.2-0.1-2.5-0.3-3.8-0.4c-2.6-0.1-5.2-0.3-7.8-0.4c-2.6,0-5.2,0-7.6-0.1
				l-1.3,0l-0.1,1.3c-0.1,2-0.1,3.8,0,5.5c0.1,1.7,0.2,3.3,0.5,4.7c1.3,9-0.3,0.1-0.5,0.1c0.2,1.1,0.3,2.2,0.5,3.2
				c0.2,1,0.4,1.9,0.6,2.9c0.2,0.9,0.3,1.8,0.5,2.6c0.2,0.8,0.4,1.7,0.6,2.5c0.7,3.3,1.8,6.6,3.2,10.9c0,0,0,0.1,0.1,0.3
				c0.1,0.2,0.2,0.5,0.3,0.8c0.3,0.7,0.6,1.8,1.1,3.1c0.5,1.3,1,2.9,1.7,4.6c0.7,1.7,1.5,3.5,2.3,5.5c0.4,1,0.8,2,1.3,3
				c0.4,1,1,2,1.4,3c1,2,2,4.1,2.9,6.1c0.2,0.5,0.5,1,0.7,1.5c0.3,0.5,0.5,1,0.8,1.4c0.5,0.9,1,1.9,1.5,2.8c1,1.8,1.9,3.5,2.7,5
				c0,0,0.1,0.2,0.4,0.8c0.3,0.6,0.8,1.4,1.6,2.6c0.7,1.2,1.7,2.8,2.9,4.8c0.6,1,1.3,2.1,2,3.3c0.4,0.6,0.8,1.2,1.2,1.9
				c0.4,0.6,0.9,1.3,1.3,2c1.3,1.9,1.9,2.8,2.2,3.3c0.3,0.5,0.4,0.4,0.4,0.4c0,0,0,0-0.1,0.1c1.3,1.8,3.2,4.7,5.1,7.5
				c2,2.7,4,5.5,5.3,7.3c0,0,0,0-0.1,0.1c1.3,1.7,2.5,3.4,3.8,5.1c1.3,1.7,2.6,3.3,3.9,5l7.9,9.9l0.3,0.3l0.4,0.2
				c0.2,0.1,0.7,0.4,0.8,0.6c0,0,0,0-0.1,0.1c0.1,0.1,0.1,0.1,0.1,0.1c0,0-0.1-0.2-0.1-0.3c0.5-0.7,1.1-1.4,1.6-2.1
				c-1.9,0.7-3.8,1.3-5.1,1.9c-0.7,0.3-1.2,0.5-1.6,0.7c-0.4,0.2-0.6,0.2-0.6,0.2c0-0.1,0-0.1-0.1-0.1c-1,0.5-2.4,1.2-3.7,1.9
				c-0.7,0.4-1.3,0.8-2,1.2c-0.3,0.2-0.7,0.4-1,0.6c-0.3,0.2-0.6,0.4-0.9,0.7c-1.2,0.9-2.3,1.6-3,2.2c-0.4,0.3-0.7,0.5-0.9,0.7
				c-0.2,0.2-0.3,0.2-0.3,0.2c0,0,0,0,0.1,0.1c-3.6,3-6.5,6.3-9,9.7c-2.4,3.4-4.4,6.8-6,10.3c-3.1,6.9-4.8,13.9-5.3,20.9
				c-0.7,9.4,1,19.5,5.4,28.9c4.4,9.4,11.8,17.9,21.2,23.4c2.4,1.4,4.8,2.6,7.4,3.6c2.6,1,5.2,1.8,7.9,2.4c0.7,0.2,1.4,0.3,2,0.4
				l1,0.2l0.5,0.1l0.6,0.1l3.9,0.3c0.3,0,0.6,0.1,1,0.1l1.1,0l2.1,0l2.1,0c0.7-0.1,1.4-0.2,2.1-0.2l2-0.3c0.7-0.1,1.4-0.1,2-0.3
				c1.3-0.3,2.7-0.6,4-0.9c1.3-0.3,2.6-0.8,3.9-1.3c0.6-0.2,1.3-0.4,1.9-0.7l1.9-0.8l1.8-0.8l0.9-0.4l0.9-0.5c1.2-0.7,2.3-1.4,3.5-2
				c1.1-0.7,2.2-1.5,3.3-2.3c1.1-0.7,2.1-1.6,3.1-2.5c0.9-0.8,1.8-1.5,2.5-2.3c0.7-0.8,1.3-1.4,1.7-1.8c0.8-0.9,0.7-0.9-0.9,0.7
				l2.4-2.6l2.2-2.8l1.1-1.4l0.9-1.5l1.9-3c2.1-4.2,2.6-5.2,3-6.4c0.2-0.6,0.4-1.1,0.7-2.1c0.2-0.5,0.4-1.1,0.7-1.8
				c0.2-0.8,0.4-1.7,0.8-2.8l0.4-1.7c0.2-0.6,0.3-1.1,0.4-1.7l0.5-3.5c0.1-0.6,0.2-1.1,0.3-1.8l0.1-1.7l0.3-3.4l0.1-1.7l0.1-1.7
				l0.1-3.4c0.1-2.3,0-4.6,0-6.9c0-1.1-0.2-2.3-0.2-3.4c-0.1-1.1-0.1-2.3-0.3-3.4c-0.3-2.3-0.6-4.6-1.1-6.8
				c-0.4-2.3-1.1-4.5-1.7-6.7c-0.3-1.1-0.8-2.2-1.1-3.3l-0.6-1.6l-0.7-1.6c-1.7-4.3-4-8.3-6.5-12.2c-2.5-3.9-5.2-7.5-8.1-11
				c-5.7-7.1-11.7-13.7-17.4-20.6c-11.5-13.7-22.1-28.1-31.1-43.5c-9.1-15.4-16.8-31.5-23.7-48c1.8,4.1,3.3,8,5,11.7
				c0.8,1.8,1.7,3.7,2.5,5.5c0.8,1.8,1.6,3.6,2.5,5.3c1.7,3.5,3.4,7.1,5.3,10.6c0.9,1.8,1.9,3.6,2.9,5.5c1,1.8,2.1,3.7,3.2,5.7
				c0,0-0.1,0,0.2,0.5c0.2,0.5,0.8,1.5,1.9,3.4c1.7,2.9,3.5,5.8,5.3,8.7c0.9,1.4,1.8,2.9,2.8,4.4c1,1.4,1.9,2.9,2.9,4.3
				c3.9,5.7,8,11.2,12,16.2c7.9,10.1,15.4,18.5,19.7,23.7c1.4,1.8,2.9,3.5,4.9,6.2c2.1,2.7,4.9,6.2,8.7,11.9c-2.4-3.8-5.2-7.4-8-11
				c0,0-0.1,0.1-0.1,0.1c2.8,3.5,5.7,7.3,8.4,11.6c2.6,4.2,5,8.8,6.9,13.5c1.9,4.8,3,9.8,3.8,14.7c0.2,1.2,0.3,2.5,0.5,3.7
				c0.1,1.2,0.2,2.4,0.3,3.6c0.2,2.4,0.1,4.7,0.2,7c0,0-0.1,0-0.2,0c0,0,0,0.6,0,1.4c0,0.8-0.1,2-0.1,3.1c0,1.1-0.1,2.3-0.1,3.1
				c-0.1,0.8-0.1,1.4-0.1,1.4c-0.1,1.1-0.2,1.3-0.2,0.8c0-0.5,0.1-1.8,0.2-3.7c0.1-3.7,0.3-9.8-0.4-16.8c-0.7-7-2.7-14.9-5.9-21.9
				c-3.1-7-7.4-13-10.8-17.5c0,0-0.1,0.1-0.2,0.1c0,0,0.3,0.4,0.9,1.1c0.5,0.7,1.1,1.6,1.8,2.5c0.3,0.5,0.7,0.9,1,1.3
				c0.3,0.4,0.6,0.9,0.8,1.2c0.5,0.7,0.8,1.2,0.8,1.2l-0.1,0.1c-3.7-5.6-7.7-10.7-11.8-15.5c-4.1-4.8-8.1-9.5-12.1-14.2
				c-8-9.4-15.7-19.1-23.2-30.3c2.4,3.8,7.8,11,10.5,14.6c0,0,0,0,0.3,0.5c0.3,0.5,1,1.3,2.4,3.1c-5.6-7.1-11.5-15.3-16.9-23.8
				c-5.4-8.5-10.5-17.3-14.7-25.2c-1.1-2-1.1-1.9-0.1,0.1c0.5,1,1.3,2.5,2.3,4.5c1,2,2.4,4.4,4,7.4c1.6,3,3.3,5.6,4.8,8.1
				c1.5,2.5,3.1,4.9,4.6,7.2c1.5,2.4,3.1,4.7,4.8,7.1c1.7,2.4,3.5,4.9,5.5,7.6l-0.1,0.1c-2.7-3.6-5.9-8.2-9-12.9
				c-1.6-2.3-3-4.7-4.5-7c-1.4-2.3-2.7-4.4-3.9-6.4c-2.4-3.8,4.5,7.8,2.1,4l-3.5-5.8c-1.1-2-2.2-3.9-3.4-5.9
				c1.7,2.9,3.4,6.2,5.4,9.4c1.9,3.3,4.1,6.6,6.2,9.9c4.3,6.6,8.9,13,13,18.4c1.4,1.8,2.7,3.6,3.7,4.9c1,1.4,1.7,2.2,1.7,2.3
				c7.1,8.7,13.8,16.3,19.5,23.2c5.7,6.9,10.3,13.2,13.4,19c0.6,0.9,1.6,2.9,2.8,5.5c0.5,1.3,1.2,2.8,1.8,4.4
				c0.3,0.8,0.6,1.7,0.9,2.5c0.1,0.4,0.3,0.9,0.5,1.3c0.1,0.5,0.3,0.9,0.4,1.4c0.3,0.9,0.5,1.9,0.8,2.8c0.2,1,0.4,1.9,0.6,2.9
				c0.5,2,0.6,4,0.9,5.9c0.2,1,0.2,2,0.3,2.9c0.1,1,0.1,1.9,0.2,2.9C457.7,394.7,457.7,396.5,457.7,398.2z"/>
		</g>
	</g>
</g>
</svg>
